<svg preserveAspectRatio="none" width="100%" height="100%" overflow="visible" style="display: block;" viewBox="0 0 29.9501 30" fill="none" xmlns="http://www.w3.org/2000/svg">
<g id="Group">
<path id="Vector" d="M14.9875 0C6.71 0 0 6.71 0 14.9875C0 21.34 3.9475 26.7675 9.5225 28.9512C9.38625 27.7675 9.27625 25.9412 9.57125 24.6462C9.8425 23.4737 11.3225 17.195 11.3225 17.195C11.3225 17.195 10.8787 16.295 10.8787 14.975C10.8787 12.89 12.0875 11.3363 13.5925 11.3363C14.875 11.3363 15.4925 12.2987 15.4925 13.4462C15.4925 14.7287 14.6787 16.6537 14.2462 18.4425C13.8887 19.935 14.9987 21.1562 16.4662 21.1562C19.1312 21.1562 21.1787 18.3437 21.1787 14.2975C21.1787 10.7075 18.6012 8.20375 14.9125 8.20375C10.645 8.20375 8.14 11.3987 8.14 14.705C8.14 15.9875 8.63375 17.37 9.25 18.1225C9.375 18.2688 9.3875 18.405 9.35 18.5525C9.23875 19.0213 8.98 20.045 8.93 20.255C8.86875 20.5263 8.7075 20.5875 8.42375 20.4525C6.54875 19.5762 5.37625 16.85 5.37625 14.6425C5.37625 9.9175 8.805 5.57625 15.2812 5.57625C20.475 5.57625 24.52 9.2775 24.52 14.2362C24.52 19.405 21.2637 23.5625 16.7487 23.5625C15.2312 23.5625 13.8 22.7725 13.32 21.835C13.32 21.835 12.5675 24.6962 12.3825 25.4C12.05 26.7075 11.1362 28.3363 10.52 29.335C11.9275 29.765 13.4087 30 14.9625 30C23.24 30 29.95 23.29 29.95 15.0125C29.975 6.71 23.265 0 14.9875 0Z" fill="var(--fill-0, #757575)"/>
</g>
</svg>
