<svg preserveAspectRatio="none" width="100%" height="100%" overflow="visible" style="display: block;" viewBox="0 0 40 40" fill="none" xmlns="http://www.w3.org/2000/svg">
<g id="Frame 2085668219">
<circle id="Ellipse 102" cx="20" cy="20" r="20" fill="var(--fill-0, #E0DAD1)"/>
<g id="Random strain combinations 1">
<path id="Vector" fill-rule="evenodd" clip-rule="evenodd" d="M6.30489 13.4271C6.30449 13.2832 6.33254 13.1406 6.38743 13.0076C6.44232 12.8745 6.52296 12.7537 6.62472 12.6519C6.72648 12.5501 6.84735 12.4695 6.98038 12.4146C7.11341 12.3597 7.25598 12.3317 7.39989 12.3321H12.0019C13.3261 12.334 14.6273 12.6784 15.779 13.3318C16.9308 13.9852 17.8939 14.9254 18.5749 16.0611C19.2559 14.9254 20.219 13.9852 21.3708 13.3318C22.5225 12.6784 23.8237 12.334 25.1479 12.3321H29.9479L29.8099 12.2001C29.6054 11.9943 29.4907 11.7161 29.4907 11.4261C29.4907 11.136 29.6054 10.8578 29.8099 10.6521C29.9116 10.55 30.0325 10.4691 30.1656 10.4138C30.2986 10.3586 30.4413 10.3301 30.5854 10.3301C30.7295 10.3301 30.8721 10.3586 31.0052 10.4138C31.1383 10.4691 31.2592 10.55 31.3609 10.6521L33.3739 12.6681C33.4758 12.7695 33.5567 12.8901 33.6119 13.023C33.6672 13.1558 33.6956 13.2982 33.6956 13.4421C33.6956 13.5859 33.6672 13.7283 33.6119 13.8612C33.5567 13.994 33.4758 14.1146 33.3739 14.2161L31.3609 16.2291C31.2592 16.3311 31.1383 16.4121 31.0052 16.4673C30.8721 16.5226 30.7295 16.551 30.5854 16.551C30.4413 16.551 30.2986 16.5226 30.1656 16.4673C30.0325 16.4121 29.9116 16.3311 29.8099 16.2291C29.6054 16.0233 29.4907 15.7451 29.4907 15.4551C29.4907 15.165 29.6054 14.8868 29.8099 14.6811L29.9539 14.5371H25.1539C20.3539 14.5371 17.8099 20.4051 21.2869 23.8821C21.7934 24.3923 22.3958 24.7974 23.0595 25.0739C23.7231 25.3504 24.4349 25.4928 25.1539 25.4931H29.9539L29.8099 25.3491C29.6054 25.1433 29.4907 24.8651 29.4907 24.5751C29.4907 24.285 29.6054 24.0068 29.8099 23.8011C29.9116 23.699 30.0325 23.6181 30.1656 23.5628C30.2986 23.5076 30.4413 23.4791 30.5854 23.4791C30.7295 23.4791 30.8721 23.5076 31.0052 23.5628C31.1383 23.6181 31.2592 23.699 31.3609 23.8011L33.3739 25.8141C33.4758 25.9155 33.5567 26.0361 33.6119 26.169C33.6672 26.3018 33.6956 26.4442 33.6956 26.5881C33.6956 26.7319 33.6672 26.8743 33.6119 27.0072C33.5567 27.14 33.4758 27.2606 33.3739 27.3621L31.3609 29.3781C31.2592 29.4801 31.1383 29.5611 31.0052 29.6163C30.8721 29.6716 30.7295 29.7 30.5854 29.7C30.4413 29.7 30.2986 29.6716 30.1656 29.6163C30.0325 29.5611 29.9116 29.4801 29.8099 29.3781C29.6054 29.1724 29.4907 28.8941 29.4907 28.6041C29.4907 28.314 29.6054 28.0358 29.8099 27.8301L29.9539 27.6831H25.1539C23.8272 27.6806 22.5239 27.3345 21.3709 26.6783C20.2178 26.0221 19.2545 25.0784 18.5749 23.9391C17.8939 25.0747 16.9308 26.0149 15.779 26.6684C14.6273 27.3218 13.3261 27.6662 12.0019 27.6681H7.39989C7.25598 27.6685 7.11341 27.6404 6.98038 27.5855C6.84735 27.5306 6.72648 27.45 6.62472 27.3482C6.52296 27.2465 6.44232 27.1256 6.38743 26.9926C6.33254 26.8595 6.30449 26.717 6.30489 26.5731C6.30489 26.2827 6.42025 26.0041 6.62561 25.7988C6.83096 25.5934 7.10948 25.4781 7.39989 25.4781H12.0019C16.8019 25.4781 19.3459 19.6101 15.8689 16.1331C15.3621 15.6232 14.7596 15.2184 14.096 14.9419C13.4324 14.6655 12.7208 14.5228 12.0019 14.5221H7.39989C7.25598 14.5225 7.11341 14.4944 6.98038 14.4395C6.84735 14.3846 6.72648 14.304 6.62472 14.2022C6.52296 14.1005 6.44232 13.9796 6.38743 13.8466C6.33254 13.7135 6.30449 13.571 6.30489 13.4271Z" stroke="var(--stroke-0, #445438)" stroke-width="0.45" stroke-miterlimit="10"/>
</g>
</g>
</svg>
