<svg preserveAspectRatio="none" width="100%" height="100%" overflow="visible" style="display: block;" viewBox="0 0 48 48" fill="none" xmlns="http://www.w3.org/2000/svg">
<g id="Frame 2085668220">
<circle id="Ellipse 102" cx="24" cy="24" r="24" fill="var(--fill-0, #F2FEF2)"/>
<g id="Promotes Long-Term Weight Management 1">
<path id="Vector" d="M30.7428 33.8496L32.1072 35.214L35.7324 31.5888M36.9708 28.5828L38.9724 13.9848C39.1884 12.4116 38.2308 10.9176 36.7116 10.4496C32.514 9.15361 28.176 8.50561 23.8344 8.50561C19.4928 8.50561 15.1548 9.15361 10.9572 10.4496C9.44159 10.9176 8.48039 12.4116 8.69639 13.9848L11.8104 36.7044C12.03 38.3064 13.398 39.5016 15.018 39.5016H32.6508M24 18.996V16.2204M33.3456 27.2688L33.81 25.7316C34.2096 24.4068 33.4068 23.0172 32.0568 22.7076L29.7708 22.182C28.4208 21.8724 27.0888 22.7724 26.8728 24.144L26.2536 28.0968C26.1888 28.6584 26.0772 29.2128 25.9152 29.7528L25.3176 31.74C25.242 31.9956 25.2024 32.2584 25.2024 32.514C25.2024 33.5364 25.7892 34.5012 26.7576 34.9512C26.9376 35.034 27.1212 35.0988 27.3084 35.1384M33.234 27.3012C36.6 27.3012 39.3324 30.03 39.3324 33.3996C39.3324 36.7692 36.6036 39.498 33.234 39.498C29.8644 39.498 27.1356 36.7692 27.1356 33.3996C27.1356 30.03 29.8644 27.3012 33.234 27.3012ZM32.4276 13.2612L31.6428 18.9924H16.3572L15.5724 13.2612C18.3336 12.66 21.1524 12.3576 24 12.3576C26.8476 12.3576 29.6664 12.66 32.4276 13.2612ZM22.794 32.514C22.794 33.5364 22.2072 34.5012 21.2388 34.9512C19.9572 35.5452 18.438 35.0484 17.754 33.8136L15.6552 30.012C15.3852 29.5224 15.1692 29.004 15.0144 28.4676L14.1864 25.7316C13.7868 24.4068 14.5896 23.0172 15.9396 22.7076L18.2256 22.182C19.5792 21.8724 20.9076 22.7724 21.1236 24.144L21.7428 28.0968C21.8076 28.6584 21.9192 29.2128 22.0812 29.7528L22.6788 31.74C22.7544 31.9956 22.794 32.2584 22.794 32.514Z" stroke="var(--stroke-0, #033008)" stroke-width="0.7" stroke-miterlimit="10" stroke-linecap="round"/>
</g>
</g>
</svg>
