<svg preserveAspectRatio="none" width="100%" height="100%" overflow="visible" style="display: block;" viewBox="0 0 30 30" fill="none" xmlns="http://www.w3.org/2000/svg">
<g id="instagram-circle 1" clip-path="url(#clip0_0_125)">
<path id="Vector" d="M18.1325 14.9829C18.1325 16.7716 16.6825 18.2216 14.8938 18.2216C13.105 18.2216 11.6562 16.7716 11.6562 14.9829C11.6562 13.1941 13.1063 11.7441 14.8938 11.7441C16.6813 11.7441 18.1325 13.1941 18.1325 14.9829Z" fill="var(--fill-0, #E0DAD1)"/>
<path id="Vector_2" d="M15 0C6.71625 0 0 6.71625 0 15C0 23.2837 6.71625 30 15 30C23.2837 30 30 23.2837 30 15C30 6.71625 23.2837 0 15 0ZM24.5462 18.9875C24.5 20.0212 24.335 20.7275 24.095 21.345C23.8462 21.9838 23.5137 22.5262 22.9737 23.0662C22.4337 23.6062 21.8913 23.9388 21.2538 24.1863C20.6363 24.4263 19.9288 24.59 18.895 24.6375C17.8588 24.685 17.5275 24.6962 14.8888 24.6962C12.25 24.6962 11.92 24.685 10.8837 24.6375C9.85 24.59 9.14375 24.4263 8.525 24.1863C7.88625 23.9388 7.345 23.605 6.80375 23.0662C6.26375 22.5262 5.93125 21.9838 5.6825 21.345C5.4425 20.7275 5.27875 20.0212 5.23125 18.9875C5.18375 17.9512 5.1725 17.62 5.1725 14.9812C5.1725 12.3425 5.18375 12.0125 5.23125 10.9763C5.27875 9.9425 5.4425 9.23625 5.6825 8.6175C5.93125 7.97875 6.26375 7.4375 6.80375 6.8975C7.34375 6.3575 7.88625 6.025 8.525 5.77625C9.1425 5.53625 9.85 5.3725 10.8837 5.325C11.92 5.2775 12.2513 5.26625 14.8888 5.26625C17.5263 5.26625 17.8588 5.2775 18.895 5.325C19.9288 5.37125 20.635 5.53625 21.2538 5.77625C21.8925 6.02375 22.4337 6.3575 22.9737 6.8975C23.5137 7.4375 23.8462 7.98 24.095 8.6175C24.335 9.235 24.4987 9.9425 24.5462 10.9763C24.5937 12.0125 24.605 12.3425 24.605 14.9812C24.605 17.62 24.5937 17.95 24.5462 18.9875ZM22.4638 9.2525C22.2875 8.79875 22.0775 8.475 21.7362 8.135C21.3962 7.795 21.0725 7.58375 20.6188 7.4075C20.2763 7.275 19.7625 7.11625 18.815 7.07375C17.79 7.02625 17.4825 7.0175 14.8888 7.0175C12.295 7.0175 11.9875 7.0275 10.9625 7.07375C10.0163 7.11625 9.50125 7.275 9.15875 7.4075C8.705 7.58375 8.38125 7.79375 8.04125 8.135C7.70125 8.475 7.49 8.79875 7.31375 9.2525C7.18125 9.595 7.0225 10.1088 6.98 11.0563C6.9325 12.08 6.92375 12.3875 6.92375 14.9825C6.92375 17.5775 6.93375 17.8837 6.98 18.9087C7.02375 19.855 7.18125 20.37 7.31375 20.7125C7.49 21.1662 7.7 21.49 8.04125 21.83C8.38125 22.17 8.705 22.38 9.15875 22.5563C9.50125 22.69 10.015 22.8475 10.9625 22.8912C11.9863 22.9387 12.2938 22.9475 14.8888 22.9475C17.4838 22.9475 17.7913 22.9375 18.815 22.8912C19.7625 22.8475 20.2763 22.69 20.6188 22.5563C21.0725 22.38 21.3962 22.17 21.7362 21.83C22.0762 21.49 22.2875 21.1662 22.4638 20.7125C22.5963 20.37 22.755 19.8562 22.7975 18.9087C22.845 17.8837 22.855 17.5763 22.855 14.9825C22.855 12.3888 22.845 12.0813 22.7975 11.0563C22.7538 10.1088 22.5963 9.595 22.4638 9.2525ZM14.89 19.97C12.135 19.97 9.90125 17.7362 9.90125 14.9812C9.90125 12.2262 12.135 9.9925 14.89 9.9925C17.645 9.9925 19.8787 12.2262 19.8787 14.9812C19.8787 17.7362 17.645 19.97 14.89 19.97ZM20.0763 10.9613C19.4325 10.9613 18.91 10.44 18.91 9.79625C18.91 9.1525 19.4313 8.63 20.0763 8.63C20.7213 8.63 21.2425 9.1525 21.2425 9.79625C21.2425 10.44 20.72 10.9613 20.0763 10.9613Z" fill="var(--fill-0, #E0DAD1)"/>
</g>
<defs>
<clipPath id="clip0_0_125">
<rect width="30" height="30" fill="white"/>
</clipPath>
</defs>
</svg>
