<svg preserveAspectRatio="none" width="100%" height="100%" overflow="visible" style="display: block;" viewBox="0 0 30 30" fill="none" xmlns="http://www.w3.org/2000/svg">
<g id="youtube-circle 1" clip-path="url(#clip0_0_122)">
<path id="Vector" d="M12.8281 11.834L18.3931 15.0002L12.8281 18.1665V11.8352V11.834Z" fill="var(--fill-0, #E0DAD1)"/>
<path id="Vector_2" d="M15 0C6.71625 0 0 6.71625 0 15C0 23.2837 6.71625 30 15 30C23.2837 30 30 23.2837 30 15C30 6.71625 23.2837 0 15 0ZM25.2 20.1575C24.9562 21.0787 24.2337 21.805 23.3175 22.0525C21.6575 22.5 15 22.5 15 22.5C15 22.5 8.3425 22.5 6.6825 22.0525C5.76625 21.8063 5.045 21.08 4.8 20.1575C4.35375 18.4862 4.35375 15 4.35375 15C4.35375 15 4.35375 11.5138 4.8 9.8425C5.04375 8.92125 5.76625 8.195 6.6825 7.94875C8.3425 7.50125 15 7.50125 15 7.50125C15 7.50125 21.6575 7.50125 23.3175 7.94875C24.2337 8.195 24.955 8.92125 25.2 9.8425C25.645 11.5138 25.645 15 25.645 15C25.645 15 25.645 18.4862 25.2 20.1575Z" fill="var(--fill-0, #E0DAD1)"/>
</g>
<defs>
<clipPath id="clip0_0_122">
<rect width="30" height="30" fill="white"/>
</clipPath>
</defs>
</svg>
