<svg preserveAspectRatio="none" width="100%" height="100%" overflow="visible" style="display: block;" viewBox="0 0 30 30" fill="none" xmlns="http://www.w3.org/2000/svg">
<g id="linkedin-circle 1" clip-path="url(#clip0_0_128)">
<path id="Vector" d="M25.8112 22.7147H25.5938V22.2734H25.8687C26.0112 22.2734 26.1738 22.2959 26.1738 22.4822C26.1738 22.6959 26.01 22.7134 25.8112 22.7134V22.7147Z" fill="var(--fill-0, #E0DAD1)"/>
<path id="Vector_2" d="M25.8039 21.707C25.2126 21.717 24.7414 22.2045 24.7501 22.7958C24.7601 23.387 25.2476 23.8595 25.8389 23.8495H25.8664C26.4451 23.837 26.9039 23.3583 26.8926 22.7795V22.762C26.8826 22.1708 26.3951 21.6983 25.8039 21.7083V21.707ZM26.1914 23.4295L25.8351 22.8683L25.8301 22.862H25.6001V23.4295H25.4139V22.1258H25.9114C26.2189 22.1258 26.3701 22.2445 26.3701 22.4933C26.3701 22.5008 26.3701 22.5083 26.3701 22.5158C26.3689 22.6995 26.2514 22.8483 26.0089 22.8483L26.3939 23.4295H26.1939H26.1914Z" fill="var(--fill-0, #E0DAD1)"/>
<path id="Vector_3" d="M15 0C6.71625 0 0 6.71625 0 15C0 23.2837 6.71625 30 15 30C23.2837 30 30 23.2837 30 15C30 6.71625 23.2837 0 15 0ZM23.7963 22.57C23.7863 23.2925 23.1925 23.8725 22.4688 23.8625H7.2C6.47875 23.87 5.88625 23.2912 5.8775 22.57V7.2375C5.88625 6.51625 6.4775 5.9375 7.2 5.94625H22.4688C23.1913 5.935 23.785 6.51375 23.7963 7.23625V22.57ZM25.8588 23.99C25.1838 23.9962 24.6313 23.455 24.625 22.78C24.6188 22.1063 25.16 21.5537 25.835 21.5462H25.8588C26.5238 21.5525 27.0625 22.0912 27.0688 22.7562C27.075 23.43 26.5338 23.9825 25.8588 23.99ZM17.9587 12.45C16.93 12.4125 15.9637 12.9425 15.4437 13.8312H15.4087V12.6625H12.86V21.2125H15.515V16.9837C15.515 15.8675 15.7262 14.7888 17.11 14.7888C18.4725 14.7888 18.49 16.065 18.49 17.0563V21.2138H21.145V16.5237C21.145 14.22 20.65 12.4513 17.9587 12.4513V12.45ZM8.53375 21.2125H11.1913V12.6625H8.53375V21.2125ZM9.86375 8.4125C9.0125 8.4125 8.3225 9.1025 8.3225 9.95375C8.3225 10.805 9.0125 11.4937 9.86375 11.4937C10.715 11.4937 11.405 10.8037 11.405 9.9525C11.405 9.10125 10.715 8.41125 9.86375 8.4125Z" fill="var(--fill-0, #E0DAD1)"/>
</g>
<defs>
<clipPath id="clip0_0_128">
<rect width="30" height="30" fill="white"/>
</clipPath>
</defs>
</svg>
