<svg preserveAspectRatio="none" width="100%" height="100%" overflow="visible" style="display: block;" viewBox="0 0 30 30" fill="none" xmlns="http://www.w3.org/2000/svg">
<g id="twitter-alt-circle 1" clip-path="url(#clip0_0_6)">
<path id="Vector" d="M8.57812 7.69922L19.6731 22.2055H21.3731L10.4044 7.69922H8.57812Z" fill="var(--fill-0, #E0DAD1)"/>
<path id="Vector_2" d="M15 0C6.71625 0 0 6.71625 0 15C0 23.2837 6.71625 30 15 30C23.2837 30 30 23.2837 30 15C30 6.71625 23.2837 0 15 0ZM18.8287 24.04L13.9912 17.7213L8.46375 24.04H5.39125L12.5575 15.8475L5 5.96H11.3275L15.695 11.7362L20.7488 5.96H23.8175L17.1162 13.6175L25 24.0388L18.8287 24.04Z" fill="var(--fill-0, #E0DAD1)"/>
</g>
<defs>
<clipPath id="clip0_0_6">
<rect width="30" height="30" fill="white"/>
</clipPath>
</defs>
</svg>
