<svg preserveAspectRatio="none" width="100%" height="100%" overflow="visible" style="display: block;" viewBox="0 0 40 40" fill="none" xmlns="http://www.w3.org/2000/svg">
<g id="Frame 2085668220">
<circle id="Ellipse 102" cx="20" cy="20" r="20" fill="var(--fill-0, #445438)"/>
<g id="Gut Like Fermentation Process 1">
<path id="Vector" d="M20.0001 31.6341C25.2291 31.6341 29.8431 28.1181 31.2231 23.0811L30.2871 22.8261C29.0241 27.4431 24.7911 30.6651 20.0001 30.6651C14.1891 30.6651 9.45206 25.9911 9.34106 20.2071L10.9311 21.7971C11.0271 21.8931 11.1501 21.9381 11.2731 21.9381C11.3961 21.9381 11.5221 21.8901 11.6151 21.7971C11.8041 21.6081 11.8041 21.3021 11.6151 21.1131L9.19106 18.6891C9.00206 18.5001 8.69606 18.5001 8.50706 18.6891L6.08306 21.1131C5.89406 21.3021 5.89406 21.6081 6.08306 21.7971C6.27206 21.9861 6.57806 21.9861 6.76706 21.7971L8.36906 20.1951C8.47406 26.5191 13.6491 31.6341 19.9971 31.6341H20.0001ZM33.2301 18.2031L31.6281 19.8051C31.5231 13.4811 26.3481 8.36606 20.0001 8.36606C14.7591 8.36606 10.1421 11.8971 8.77106 16.9491L9.70706 17.2041C10.9611 12.5721 15.1941 9.33506 20.0001 9.33506C25.8111 9.33506 30.5481 14.0091 30.6591 19.7931L29.0691 18.2031C28.8801 18.0141 28.5741 18.0141 28.3851 18.2031C28.1961 18.3921 28.1961 18.6981 28.3851 18.8871L30.8091 21.3111C30.9051 21.4071 31.0281 21.4521 31.1511 21.4521C31.2741 21.4521 31.4001 21.4041 31.4931 21.3111L33.9171 18.8871C34.1061 18.6981 34.1061 18.3921 33.9171 18.2031C33.7281 18.0141 33.4221 18.0141 33.2331 18.2031H33.2301ZM25.8171 20.9691C25.9041 20.9691 25.9971 20.9601 26.0841 20.9301C26.5971 20.7861 26.9001 20.2461 26.7471 19.7331L25.7781 16.3401C25.6581 15.9141 25.2681 15.6381 24.8481 15.6381C24.7611 15.6381 24.6681 15.6471 24.5811 15.6771C24.0681 15.8211 23.7651 16.3611 23.9181 16.8741L24.8871 20.2671C25.0071 20.6931 25.3971 20.9691 25.8171 20.9691ZM16.4721 25.5921L19.3791 28.0161C19.5591 28.1661 19.7811 28.2381 20.0001 28.2381C20.2761 28.2381 20.5521 28.1181 20.7471 27.8901C21.0861 27.4791 21.0321 26.8671 20.6211 26.5221L17.7141 24.0981C17.5341 23.9481 17.3121 23.8761 17.0931 23.8761C16.8171 23.8761 16.5411 23.9961 16.3461 24.2241C16.0071 24.6351 16.0611 25.2471 16.4721 25.5921ZM14.1831 21.9381C14.6061 21.9381 14.9931 21.6621 15.1131 21.2361L16.0821 17.8431C16.2321 17.3301 15.9321 16.7901 15.4191 16.6461C15.3321 16.6161 15.2391 16.6071 15.1521 16.6071C14.7291 16.6071 14.3421 16.8831 14.2221 17.3091L13.2531 20.7021C13.1031 21.2151 13.4031 21.7551 13.9161 21.8991C14.0031 21.9291 14.0961 21.9381 14.1831 21.9381ZM21.9381 22.4241C21.5301 22.4241 21.1521 22.6821 21.0171 23.0871C20.8461 23.5971 21.1251 24.1431 21.6321 24.3141L24.5391 25.2831C24.6411 25.3161 24.7431 25.3311 24.8451 25.3311C25.2531 25.3311 25.6311 25.0731 25.7661 24.6681C25.9371 24.1581 25.6581 23.6121 25.1511 23.4411L22.2441 22.4721C22.1421 22.4391 22.0401 22.4241 21.9381 22.4241ZM21.4521 18.0621C21.2331 18.0621 21.0111 18.1341 20.8311 18.2841L17.9241 20.7081C17.5131 21.0531 17.4591 21.6621 17.7981 22.0761C17.9931 22.3041 18.2691 22.4241 18.5451 22.4241C18.7641 22.4241 18.9861 22.3521 19.1661 22.2021L22.0731 19.7781C22.4841 19.4331 22.5381 18.8241 22.1991 18.4101C22.0041 18.1821 21.7281 18.0621 21.4521 18.0621ZM21.2871 13.9761L17.8941 12.7851C17.7861 12.7521 17.6811 12.7311 17.5731 12.7311C17.1711 12.7311 16.7961 12.9771 16.6581 13.3821C16.4841 13.8861 16.7451 14.4381 17.2551 14.6181L20.6481 15.8091C20.7561 15.8421 20.8611 15.8631 20.9691 15.8631C21.3711 15.8631 21.7461 15.6171 21.8841 15.2121C22.0581 14.7081 21.7971 14.1561 21.2871 13.9761Z" stroke="var(--stroke-0, white)" stroke-width="0.45" stroke-linecap="round" stroke-linejoin="round"/>
</g>
</g>
</svg>
