<svg preserveAspectRatio="none" width="100%" height="100%" overflow="visible" style="display: block;" viewBox="0 0 48 48" fill="none" xmlns="http://www.w3.org/2000/svg">
<g id="Frame 2085668220">
<circle id="Ellipse 102" cx="24" cy="24" r="24" fill="var(--fill-0, #F2FEF2)"/>
<g id="Improves Gut Tolerance &#38; Comfort 1">
<path id="Vector" d="M34.6632 18.1284C34.8252 18.7656 34.908 19.4316 34.9044 20.1156C34.8756 23.2404 34.0116 25.8324 32.6868 27.9456M19.392 8.48401V11.1804C19.392 12.426 20.166 13.5384 21.3288 13.9776L21.3432 13.9848C21.8976 14.1936 22.5132 14.1036 22.9956 13.7652C24.216 12.9084 25.7064 12.4008 27.312 12.3936C30.084 12.3828 32.4996 13.8876 33.8244 16.116M15.3672 39.516V37.662C15.3672 36.7296 15.8028 35.8476 16.548 35.2824L16.8864 35.0268C17.142 34.8324 17.4876 34.818 17.754 34.9944C18.2832 35.3436 18.924 35.5596 19.6476 35.5812C19.6908 35.5812 19.734 35.5812 19.7772 35.5812C21.5808 35.5812 24.4392 34.8432 27.1896 33.2016M17.124 8.48401V11.1804C17.124 13.3692 18.4812 15.3312 20.5332 16.1016C20.6628 16.1484 20.7168 16.2996 20.652 16.4184C20.094 17.4732 19.7772 18.6756 19.7772 19.9536V24.9648C19.7772 25.908 19.4208 26.8152 18.7764 27.5064L17.0844 29.3244C16.2744 30.1956 15.9828 31.2792 16.1088 32.3016C16.1412 32.568 16.0296 32.8272 15.8172 32.9892L15.1764 33.4752C13.8696 34.4688 13.1028 36.0168 13.1028 37.6584V39.5124M19.5936 29.4036L18.4668 30.6132C17.7144 31.4196 18.0096 32.334 18.1212 32.5932C18.2544 32.9136 18.6756 33.6624 19.7016 33.6912C19.7268 33.6912 19.752 33.6912 19.7772 33.6912C20.7348 33.6912 22.038 33.4176 23.3592 32.9388C24.5796 32.496 25.7712 31.8984 26.8548 31.182M20.958 27.7008C21.4224 26.8692 21.6708 25.9332 21.6708 24.9612V19.95C21.6708 16.8216 24.216 14.2764 27.3408 14.2764C30.4656 14.2764 33.0108 16.8216 33.0108 19.95C33.0108 22.2468 32.4996 24.36 31.4952 26.2284C31.2576 26.6712 30.9912 27.1032 30.696 27.5172M34.7352 32.7012C34.8432 32.3376 34.9008 31.9488 34.9008 31.5492C34.9008 29.3208 33.0936 27.5172 30.8688 27.5172C28.644 27.5172 26.8368 29.3244 26.8368 31.5492C26.8368 33.774 28.644 35.5812 30.8688 35.5812C31.9092 35.5812 32.8596 35.1852 33.576 34.5372M32.6076 30.39L30.2892 32.7084L29.13 31.5492" stroke="var(--stroke-0, #033008)" stroke-width="0.7" stroke-miterlimit="10" stroke-linecap="round"/>
</g>
</g>
</svg>
