<svg preserveAspectRatio="none" width="100%" height="100%" overflow="visible" style="display: block;" viewBox="0 0 104.484 115.484" fill="none" xmlns="http://www.w3.org/2000/svg">
<g id="Frame 2085668502">
<path id="Union" d="M46.7393 0C48.9268 0 51.0254 0.869256 52.5723 2.41602C54.1192 3.96292 54.9882 6.06137 54.9883 8.24902V21.998H57.7412C59.2597 21.9981 60.4902 23.2295 60.4902 24.748V32.9961H63.2373C74.1758 32.9961 84.6667 37.3415 92.4014 45.0762C100.136 52.8109 104.481 63.3017 104.481 74.2402C104.481 85.1788 100.136 95.6696 92.4014 103.404C89.8171 105.989 86.924 108.192 83.8105 109.984H101.735C103.254 109.985 104.484 111.216 104.484 112.734C104.484 114.253 103.254 115.484 101.735 115.484H2.75C1.23145 115.484 0 114.253 0 112.734C0 111.216 1.23145 109.984 2.75 109.984H63.3184C72.7691 109.963 81.8284 106.2 88.5127 99.5156C95.2161 92.8122 98.9824 83.7203 98.9824 74.2402C98.9824 64.7602 95.2161 55.6682 88.5127 48.9648C81.8093 42.2615 72.7173 38.4961 63.2373 38.4961H60.4902V46.7451C60.4901 50.3912 59.042 53.8877 56.4639 56.4658C53.8857 59.044 50.3892 60.4921 46.7432 60.4922H35.7441C32.0981 60.4921 28.6016 59.044 26.0234 56.4658C23.4453 53.8877 21.9962 50.3912 21.9961 46.7451V24.748C21.9961 23.2295 23.2275 21.998 24.7461 21.998H27.4922V8.24902C27.4922 6.06137 28.3613 3.96292 29.9082 2.41602C31.4551 0.869109 33.5536 3.86394e-05 35.7412 0H46.7393ZM63.2393 87.9863C64.7578 87.9863 65.9893 89.2178 65.9893 90.7363C65.9893 92.2549 64.7578 93.4863 63.2393 93.4863H19.2461C17.7275 93.4863 16.4961 92.2549 16.4961 90.7363C16.4961 89.2178 17.7275 87.9863 19.2461 87.9863H63.2393ZM46.7402 65.9902C48.2588 65.9902 49.4902 67.2217 49.4902 68.7402C49.4902 70.2588 48.2588 71.4902 46.7402 71.4902H35.7422C34.2236 71.4902 32.9922 70.2588 32.9922 68.7402C32.9922 67.2217 34.2236 65.9902 35.7422 65.9902H46.7402ZM27.4961 46.7451C27.4962 48.9327 28.3653 51.0303 29.9121 52.5771C31.459 54.124 33.5566 54.9931 35.7441 54.9932H46.7432C48.9307 54.9931 51.0283 54.124 52.5752 52.5771C54.122 51.0303 54.9911 48.9327 54.9912 46.7451V35.8018C54.9908 35.7832 54.9883 35.7647 54.9883 35.7461C54.9883 35.7272 54.9908 35.7083 54.9912 35.6895V27.498H27.4961V46.7451ZM35.7412 5.5C35.012 5.50004 34.3125 5.78907 33.7969 6.30469C33.2813 6.8203 32.9922 7.51984 32.9922 8.24902V21.998H49.4893V8.24902C49.4892 7.51984 49.1992 6.8203 48.6836 6.30469C48.168 5.78922 47.4684 5.5 46.7393 5.5H35.7412Z" fill="url(#paint0_linear_0_4)"/>
</g>
<defs>
<linearGradient id="paint0_linear_0_4" x1="52.2422" y1="0" x2="52.2422" y2="115.484" gradientUnits="userSpaceOnUse">
<stop stop-color="#F9FFE3"/>
<stop offset="0.0001" stop-color="#7AA05F"/>
</linearGradient>
</defs>
</svg>
