<svg preserveAspectRatio="none" width="100%" height="100%" overflow="visible" style="display: block;" viewBox="0 0 40 40" fill="none" xmlns="http://www.w3.org/2000/svg">
<g id="Frame 2085668220">
<circle id="Ellipse 102" cx="20" cy="20" r="20" fill="var(--fill-0, #E0DAD1)"/>
<g id="Limited Ecosystem Support 1" clip-path="url(#clip0_0_226)">
<path id="Vector" d="M29.8106 10.1896C27.1706 7.57965 23.6906 6.13965 20.0006 6.13965C16.3106 6.13965 12.8306 7.57965 10.1906 10.1896C7.58062 12.8296 6.14062 16.3096 6.14062 19.9996C6.14062 23.6896 7.58062 27.1696 10.1906 29.8096C12.8006 32.4196 16.2806 33.8596 20.0006 33.8596C23.7206 33.8596 27.1706 32.4196 29.8106 29.8096C32.4506 27.1996 33.8606 23.6896 33.8606 19.9996C33.8606 16.3096 32.4206 12.8296 29.8106 10.1896Z" stroke="var(--stroke-0, #445438)" stroke-width="0.45" stroke-miterlimit="10"/>
<path id="Vector_2" d="M12.7706 11.1795C12.7106 10.6395 13.1306 10.1895 13.6406 10.1295C13.7006 10.1295 14.8106 10.0395 16.0406 10.3695C17.8106 10.8495 19.0106 11.9295 19.4906 13.5195C19.6106 13.9395 19.4606 14.3595 19.1306 14.5995C19.0406 14.6595 18.9506 14.6895 18.8606 14.7195C18.3506 14.8695 17.8106 14.5995 17.6606 14.0895C16.9406 11.8095 13.8506 12.0495 13.8206 12.0495C13.2806 12.1095 12.8006 11.6895 12.7706 11.1795ZM12.6206 19.0095C12.8006 19.1895 13.0406 19.2795 13.3106 19.2795C13.5806 19.2795 13.8206 19.1895 14.0006 18.9795C14.3906 18.5895 14.3606 17.9895 14.0006 17.5995L10.6106 14.2695C10.2206 13.8795 9.62058 13.9095 9.23058 14.2695C8.84058 14.6295 8.87058 15.2595 9.23058 15.6495L12.6206 19.0095ZM20.6606 23.1495C20.2106 22.8495 19.6106 22.9995 19.3406 23.4495C16.8206 27.4395 18.7406 30.3495 18.8006 30.4395C18.9806 30.7095 19.2806 30.8595 19.6106 30.8595C19.7906 30.8595 19.9706 30.7995 20.1506 30.6795C20.6006 30.3795 20.7206 29.7795 20.4206 29.3295C20.4206 29.3295 20.1206 28.8495 20.0306 28.0995C19.8806 26.9295 20.2106 25.6995 20.9906 24.4395C21.2606 24.0495 21.1106 23.4495 20.6606 23.1495ZM30.9506 20.1495C30.8606 19.8795 30.7106 19.6095 30.4706 19.5195C29.5106 19.1295 28.8806 19.8195 29.0606 20.5695C29.4806 22.4895 26.8706 25.0995 26.0006 25.7295C25.9106 25.7895 25.8206 25.8195 25.7306 25.8495C25.3706 25.9995 25.1306 26.3895 25.1606 26.7795C25.1906 27.2895 25.6106 27.7095 26.1206 27.7095C26.1506 27.7095 26.1506 27.7095 26.1806 27.7095C26.3906 27.7095 26.7506 27.6795 27.7406 26.7795C28.3406 26.2395 28.9406 25.6095 29.4206 24.9495C31.7606 22.0395 30.9506 20.1495 30.9506 20.1495ZM25.1606 18.7395C25.1606 19.2795 25.5806 19.6995 26.1206 19.6995C26.6606 19.6995 27.0806 19.2495 27.0806 18.7395C27.0806 18.3495 26.9906 17.9595 26.9306 17.6295C26.8106 17.0895 26.7506 16.7595 26.8706 16.3695C27.0506 15.7995 27.6506 15.1695 28.6406 14.4495C29.0606 14.1495 29.1806 13.5195 28.8506 13.0995C28.5506 12.6495 27.9206 12.5595 27.5006 12.8895C26.1506 13.8795 25.3406 14.7795 25.0106 15.7695C24.6806 16.6995 24.8606 17.5095 25.0106 18.0795C25.0406 18.1995 25.1606 18.5295 25.1606 18.7395ZM20.6906 17.7495L25.4306 12.5295C25.6406 12.3195 25.6106 11.9595 25.4006 11.7795C25.1906 11.5695 24.8306 11.5995 24.6506 11.8095L19.8806 16.9995C19.6706 17.2095 19.7006 17.5695 19.9106 17.7495C19.9406 17.7795 19.9706 17.8095 20.0006 17.8095C20.2406 17.9595 20.5106 17.9295 20.6906 17.7495ZM19.9406 20.3595C19.9406 19.9995 19.6406 19.6995 19.2806 19.6995C18.9206 19.6995 18.6206 19.9995 18.6206 20.3595C18.6206 20.7195 18.9206 21.0195 19.2806 21.0195C19.6406 21.0195 19.9406 20.7195 19.9406 20.3595ZM24.8006 21.8895C24.8006 21.4695 24.4706 21.1395 24.0506 21.1395C23.6306 21.1395 23.3006 21.4695 23.3006 21.8895C23.3006 22.3095 23.6306 22.6395 24.0506 22.6395C24.4706 22.6395 24.8006 22.3095 24.8006 21.8895ZM22.2806 26.9595C21.8306 26.9595 21.4706 27.3195 21.4706 27.7695C21.4706 28.2195 21.8306 28.5795 22.2806 28.5795C22.7306 28.5795 23.0906 28.2195 23.0906 27.7695C23.0906 27.3195 22.7306 26.9595 22.2806 26.9595ZM14.5406 23.9295C14.5406 24.4395 14.9606 24.8295 15.4406 24.8295C15.9206 24.8295 16.3406 24.4095 16.3406 23.9295C16.3406 23.4495 15.9206 23.0295 15.4406 23.0295C14.9606 23.0295 14.5406 23.4195 14.5406 23.9295ZM16.7906 18.6195C17.3306 18.6195 17.7806 18.1695 17.7806 17.6295C17.7806 17.0895 17.3306 16.6395 16.7906 16.6395C16.2506 16.6395 15.8006 17.0895 15.8006 17.6295C15.8006 18.1695 16.2506 18.6195 16.7906 18.6195ZM21.3506 11.1795C21.8306 11.1795 22.2206 10.7895 22.2206 10.3095C22.2206 9.82945 21.8306 9.43945 21.3506 9.43945C20.8706 9.43945 20.4806 9.82945 20.4806 10.3095C20.4806 10.7895 20.8706 11.1795 21.3506 11.1795ZM30.0806 17.6895C30.3806 17.6895 30.6206 17.4495 30.6206 17.1495C30.6206 16.8495 30.3806 16.6095 30.0806 16.6095C29.7806 16.6095 29.5406 16.8495 29.5406 17.1495C29.5406 17.4495 29.7806 17.6895 30.0806 17.6895ZM13.4606 26.5395C12.2906 25.9095 12.1406 23.8095 12.1706 23.0295C12.2006 22.4895 11.7806 22.0395 11.2706 22.0095C10.7306 21.9795 10.2806 22.3995 10.2506 22.9095C10.2506 23.0595 10.1006 26.0895 11.8406 27.7095C12.0506 27.9195 12.2906 28.0695 12.5606 28.2195C13.0406 28.4595 13.6106 28.2795 13.8806 27.8295C14.1506 27.3795 13.9406 26.7795 13.4606 26.5395Z" stroke="var(--stroke-0, #445438)" stroke-width="0.375" stroke-miterlimit="10"/>
</g>
</g>
<defs>
<clipPath id="clip0_0_226">
<rect width="30" height="30" fill="white" transform="translate(5 5)"/>
</clipPath>
</defs>
</svg>
