<svg preserveAspectRatio="none" width="100%" height="100%" overflow="visible" style="display: block;" viewBox="0 0 44 47" fill="none" xmlns="http://www.w3.org/2000/svg">
<g id="Frame 2085668807">
<rect width="44" height="47" rx="10" fill="var(--fill-0, #7AA05F)" fill-opacity="0.1"/>
<path id="Vector" d="M26.5 14.5L22 10L17.5 14.5M22 10V25M14.5003 20.5C13.1025 20.5 12.4036 20.5 11.8523 20.7284C11.1172 21.0328 10.5328 21.6172 10.2284 22.3523C10 22.9036 10 23.6022 10 25V32.2C10 33.8802 10 34.7197 10.327 35.3614C10.6146 35.9259 11.0732 36.3857 11.6377 36.6733C12.2788 37 13.1185 37 14.7954 37H29.2054C30.8822 37 31.7207 37 32.3618 36.6733C32.9263 36.3857 33.3857 35.9259 33.6733 35.3614C34 34.7203 34 33.8815 34 32.2046V25C34 23.6022 33.9998 22.9036 33.7715 22.3523C33.467 21.6172 32.8831 21.0328 32.148 20.7284C31.5967 20.5 30.8978 20.5 29.5 20.5" stroke="var(--stroke-0, #445438)" stroke-width="2" stroke-linecap="round" stroke-linejoin="round"/>
</g>
</svg>
