<svg preserveAspectRatio="none" width="100%" height="100%" overflow="visible" style="display: block;" viewBox="0 0 115.485 115.497" fill="none" xmlns="http://www.w3.org/2000/svg">
<g id="Frame 2085668501">
<path id="Union" d="M96.2354 5.5033C103.828 5.50331 109.983 11.6588 109.983 19.2513C109.983 22.4487 108.891 25.3907 107.061 27.726C112.542 36.7273 115.463 47.0709 115.484 57.6371C115.508 68.9266 112.221 79.9753 106.03 89.4164C99.8401 98.8576 91.0182 106.277 80.6554 110.757C70.2925 115.237 58.8432 116.58 47.7247 114.621C46.2295 114.358 45.231 112.932 45.4942 111.437C45.7578 109.941 47.1843 108.942 48.6798 109.205C58.7391 110.978 69.0971 109.762 78.4728 105.709C87.8486 101.656 95.831 94.9428 101.432 86.4008C107.032 77.8588 110.007 67.8622 109.985 57.6478C109.966 48.3772 107.481 39.2964 102.808 31.3285C100.855 32.3934 98.6162 32.9994 96.2354 32.9994C88.6428 32.9992 82.4874 26.844 82.4874 19.2513C82.4876 11.6589 88.6429 5.50346 96.2354 5.5033ZM34.8517 4.72986C45.2182 0.253858 56.6699 -1.08378 67.7892 0.88123C69.2844 1.14548 70.2827 2.57155 70.0187 4.06678C69.7544 5.56216 68.3275 6.56054 66.8321 6.29627C56.772 4.51845 46.4114 5.72915 37.0323 9.77869C27.653 13.8285 19.6662 20.5397 14.0616 29.0814C8.45708 37.6231 5.48039 47.6211 5.49912 57.8373C5.51619 67.1094 7.99968 76.1926 12.672 84.1625C14.6251 83.0968 16.8656 82.4916 19.2472 82.4916C26.8398 82.4916 32.995 88.6471 32.9952 96.2396C32.9952 103.832 26.8399 109.988 19.2472 109.988C11.6545 109.988 5.49912 103.832 5.49912 96.2396C5.49921 93.0433 6.59025 90.1019 8.42002 87.767C2.9385 78.7628 0.0194937 68.416 9.70364e-05 57.8471C-0.0205965 46.5555 3.2695 35.5056 9.46396 26.0648C15.6585 16.624 24.4851 9.20593 34.8517 4.72986ZM19.2472 87.9916C14.6918 87.9917 10.9993 91.6843 10.9991 96.2396C10.9991 100.795 14.6916 104.488 19.2472 104.489C23.8028 104.489 27.4962 100.795 27.4962 96.2396C27.496 91.6842 23.8027 87.9916 19.2472 87.9916ZM57.7384 38.4974C68.3681 38.4975 76.9852 47.1149 76.9854 57.7445C76.9854 68.3744 68.3682 76.9916 57.7384 76.9916C47.1087 76.9913 38.4913 68.3742 38.4913 57.7445C38.4916 47.115 47.1089 38.4977 57.7384 38.4974ZM57.7384 43.9974C50.146 43.9977 43.9916 50.1521 43.9913 57.7445C43.9913 65.3371 50.1458 71.4923 57.7384 71.4926C65.3311 71.4925 71.4864 65.3373 71.4864 57.7445C71.4861 50.152 65.3309 43.9975 57.7384 43.9974ZM96.2354 11.0033C91.6801 11.0035 87.9876 14.696 87.9874 19.2513C87.9874 23.8069 91.6799 27.5002 96.2354 27.5004C100.791 27.5004 104.484 23.807 104.484 19.2513C104.484 14.6959 100.791 11.0033 96.2354 11.0033Z" fill="url(#paint0_linear_0_12)"/>
</g>
<defs>
<linearGradient id="paint0_linear_0_12" x1="57.7424" y1="0.000370741" x2="57.7424" y2="115.498" gradientUnits="userSpaceOnUse">
<stop stop-color="#F9FFE3"/>
<stop offset="0.0001" stop-color="#7AA05F"/>
</linearGradient>
</defs>
</svg>
