<svg preserveAspectRatio="none" width="100%" height="100%" overflow="visible" style="display: block;" viewBox="0 0 48 48" fill="none" xmlns="http://www.w3.org/2000/svg">
<g id="Frame 2085668220">
<circle id="Ellipse 102" cx="24" cy="24" r="24" fill="var(--fill-0, #F2FEF2)"/>
<g id="Supports Lean Muscle Preservation 1">
<path id="Vector" d="M24.7452 26.4876C23.514 25.379 21.8938 24.7092 20.1084 24.7092C18.0708 24.7092 16.2348 25.5876 14.964 26.988V17.3184C14.964 16.8324 15.36 16.4364 15.846 16.4364H18.2184C19.3524 16.4364 20.0472 15.5544 20.274 14.3808L20.4598 13.182M23.3088 31.0812C23.3088 29.3738 23.8398 27.7909 24.7452 26.4876C26.2528 24.3175 28.7989 22.9232 31.6644 23.0244C36.0348 23.1828 39.4332 26.9052 39.4332 31.2756V37.7412C29.3136 40.1928 18.3984 40.1388 9.71879 36.8412C7.75679 29.2308 8.50559 18.7224 10.4424 11.1408C10.8348 9.60723 12.228 8.54163 13.812 8.54163H16.7676C18.456 8.54163 19.8888 9.63243 20.3928 11.1516C20.58 11.7096 20.5944 12.3108 20.5044 12.894L20.4598 13.182M20.4598 13.182H17.1636C16.6488 13.182 16.2312 12.7644 16.2312 12.2496V11.0868M31.4016 10.662L27.7332 14.9604H29.67V18.8052H33.1368V14.9604H35.07L31.4016 10.662Z" stroke="var(--stroke-0, #033008)" stroke-width="0.7" stroke-miterlimit="13.33" stroke-linecap="round"/>
</g>
</g>
</svg>
