<svg preserveAspectRatio="none" width="100%" height="100%" overflow="visible" style="display: block;" viewBox="0 0 48 48" fill="none" xmlns="http://www.w3.org/2000/svg">
<g id="Frame 2085668220">
<circle id="Ellipse 102" cx="24" cy="24" r="24" fill="var(--fill-0, #F2FEF2)"/>
<g id="Eases GLP-1 Gut Side Effects 1">
<path id="Vector" d="M21.6276 31.6968H19.7484M28.8384 24H15.2376M21.3864 16.3032H27.6828M20.0652 20.1516H31.4988M19.4676 27.8448H26.9628M30.9408 25.7928C30.2532 24.7164 29.0508 24 27.6864 24H32.7264C34.8468 24 36.582 22.2684 36.582 20.1516C36.582 18.0348 34.8468 16.3032 32.7264 16.3032H27.6864C29.8068 16.3032 31.542 14.5716 31.542 12.4548V10.1148C31.542 9.21841 30.8076 8.48401 29.9076 8.48401C29.0076 8.48401 28.2732 9.21841 28.2732 10.1148V11.616C28.2732 12.0768 27.8952 12.4512 27.4344 12.4512H20.0688C17.9484 12.4512 16.2132 14.1828 16.2132 16.2996C16.2132 18.4164 17.9484 20.148 20.0688 20.148H14.1756C12.0552 20.148 10.32 21.8796 10.32 23.9964C10.32 26.1132 12.0552 27.8448 14.1756 27.8448H20.0688C18.3264 27.8448 16.8432 29.0148 16.368 30.606C16.368 30.606 16.098 31.7544 16.368 32.7768C16.8396 34.368 18.3228 35.538 20.0652 35.538H21.3756C21.8364 35.538 22.2144 35.916 22.2144 36.3732V37.878C22.2144 38.7744 22.9488 39.5088 23.8488 39.5088C24.7488 39.5088 25.4832 38.7744 25.4832 37.878V35.538C25.4832 33.4212 23.748 31.6896 21.6276 31.6896H25.53M29.1408 32.2692L30.498 33.6264L34.1016 30.0228M31.6212 25.7604C34.9692 25.7604 37.6872 28.4748 37.6872 31.8264C37.6872 35.178 34.9728 37.8924 31.6212 37.8924C28.2696 37.8924 25.5552 35.178 25.5552 31.8264C25.5552 28.4748 28.2696 25.7604 31.6212 25.7604Z" stroke="var(--stroke-0, #033008)" stroke-width="0.7" stroke-linecap="round" stroke-linejoin="round"/>
</g>
</g>
</svg>
