<svg preserveAspectRatio="none" width="100%" height="100%" overflow="visible" style="display: block;" viewBox="0 0 16.7787 15.1008" fill="none" xmlns="http://www.w3.org/2000/svg">
<path id="Vector" d="M16.7787 7.54425C16.7728 6.88172 16.5188 6.24829 16.0716 5.78122L10.9301 0.366198C10.7056 0.131651 10.4018 0 10.0852 0C9.76856 0 9.4648 0.131651 9.24025 0.366198C9.12792 0.483267 9.03876 0.622547 8.97792 0.776006C8.91707 0.929464 8.88575 1.09406 8.88575 1.26031C8.88575 1.42655 8.91707 1.59115 8.97792 1.74461C9.03876 1.89806 9.12792 2.03734 9.24025 2.15441L13.1832 6.28494H1.19848C0.880621 6.28494 0.575784 6.41762 0.351026 6.65378C0.126268 6.88995 0 7.21026 0 7.54425C0 7.87824 0.126268 8.19855 0.351026 8.43471C0.575784 8.67088 0.880621 8.80356 1.19848 8.80356H13.1832L9.24025 12.9467C9.01458 13.1821 8.88716 13.5022 8.88604 13.8363C8.88491 14.1705 9.01017 14.4915 9.23426 14.7286C9.45835 14.9657 9.76291 15.0996 10.0809 15.1008C10.399 15.102 10.7044 14.9704 10.9301 14.7349L16.0716 9.31987C16.5217 8.84971 16.776 8.21115 16.7787 7.54425Z" fill="var(--fill-0, white)"/>
</svg>
