<svg preserveAspectRatio="none" width="100%" height="100%" overflow="visible" style="display: block;" viewBox="0 0 40 40" fill="none" xmlns="http://www.w3.org/2000/svg">
<g id="Frame 2085668221">
<circle id="Ellipse 102" cx="20" cy="20" r="20" fill="var(--fill-0, #445438)"/>
<g id="Strains + Substrates+ Postbiotic Compounds 1">
<path id="Vector" d="M19.999 7.00098C12.82 7.00098 7 12.821 7 20C7 27.179 12.82 32.999 19.999 32.999C27.178 32.999 32.998 27.179 32.998 20C32.998 12.821 27.178 7.00098 19.999 7.00098ZM24.715 29.63H24.049C23.788 29.63 23.575 29.417 23.575 29.156C23.575 28.895 23.788 28.682 24.049 28.682H24.715C24.976 28.682 25.189 28.895 25.189 29.156C25.189 29.417 24.976 29.63 24.715 29.63ZM28.138 16.373H27.472C27.211 16.373 26.998 16.16 26.998 15.899C26.998 15.638 27.211 15.425 27.472 15.425H28.138C28.399 15.425 28.612 15.638 28.612 15.899C28.612 16.16 28.399 16.373 28.138 16.373ZM26.749 21.491L26.101 21.338C25.846 21.278 25.687 21.023 25.747 20.768C25.807 20.513 26.062 20.354 26.317 20.414L26.965 20.567C27.22 20.627 27.379 20.882 27.319 21.137C27.259 21.392 27.004 21.551 26.749 21.491ZM13.003 14.885L12.388 15.143C12.145 15.245 11.869 15.131 11.767 14.888C11.665 14.645 11.779 14.369 12.022 14.267L12.637 14.009C12.88 13.907 13.156 14.021 13.258 14.264C13.36 14.507 13.246 14.783 13.003 14.885ZM18.811 27.38L18.151 27.467C17.89 27.5 17.653 27.317 17.62 27.056C17.587 26.795 17.77 26.558 18.031 26.525L18.691 26.438C18.952 26.405 19.189 26.588 19.222 26.849C19.255 27.11 19.072 27.347 18.811 27.38ZM17.104 27.641L16.444 27.734C16.183 27.77 15.943 27.59 15.907 27.329C15.871 27.068 16.051 26.828 16.312 26.792L16.972 26.699C17.233 26.663 17.473 26.843 17.509 27.104C17.545 27.365 17.365 27.605 17.104 27.641ZM15.397 27.944L14.737 28.037C14.476 28.073 14.236 27.893 14.2 27.632C14.164 27.371 14.344 27.131 14.605 27.095L15.265 27.002C15.526 26.966 15.766 27.146 15.802 27.407C15.838 27.668 15.658 27.908 15.397 27.944ZM13.69 28.247L13.03 28.34C12.769 28.376 12.529 28.196 12.493 27.935C12.457 27.674 12.637 27.434 12.898 27.398L13.558 27.305C13.819 27.269 14.059 27.449 14.095 27.71C14.131 27.971 13.951 28.211 13.69 28.247ZM26.602 23.657C26.542 23.912 26.701 24.167 26.953 24.227L27.103 24.263L26.896 25.142C26.761 25.712 26.191 26.063 25.621 25.928C25.051 25.793 24.697 25.223 24.832 24.653L25.954 19.904C26.089 19.334 26.662 18.983 27.232 19.118C27.802 19.253 28.153 19.823 28.018 20.393L27.322 23.342L27.172 23.306C26.917 23.246 26.662 23.402 26.602 23.657ZM18.316 15.845L17.899 19.169C17.863 19.466 17.944 19.766 18.127 20.003L19.861 22.235C20.245 22.727 20.155 23.438 19.663 23.822C19.171 24.206 18.46 24.116 18.076 23.624L16.252 21.278C16.069 21.041 15.799 20.888 15.499 20.849L15.409 20.837L12.364 20.456C11.746 20.378 11.305 19.814 11.383 19.193C11.461 18.572 12.025 18.134 12.646 18.212L15.16 18.527C15.454 18.563 15.721 18.356 15.757 18.062L16.069 15.56C16.147 14.939 16.711 14.501 17.332 14.579C17.95 14.657 18.391 15.221 18.313 15.842L18.316 15.845ZM25.831 13.13L23.185 15.188C22.948 15.371 22.795 15.641 22.756 15.941L22.405 18.746C22.327 19.364 21.763 19.805 21.142 19.727C20.524 19.649 20.083 19.085 20.161 18.464L20.53 15.518C20.566 15.221 20.485 14.921 20.302 14.684L20.245 14.612L18.364 12.188C17.98 11.696 18.07 10.985 18.562 10.601C19.054 10.217 19.765 10.307 20.149 10.799L21.703 12.8C21.883 13.034 22.222 13.076 22.453 12.893L24.442 11.345C24.934 10.961 25.645 11.051 26.029 11.543C26.413 12.035 26.323 12.746 25.831 13.13Z" stroke="var(--stroke-0, white)" stroke-width="0.45" stroke-miterlimit="10"/>
</g>
</g>
</svg>
