<svg preserveAspectRatio="none" width="100%" height="100%" overflow="visible" style="display: block;" viewBox="0 0 40 40" fill="none" xmlns="http://www.w3.org/2000/svg">
<g id="Frame 2085668218">
<circle id="Ellipse 102" cx="20" cy="20" r="20" fill="var(--fill-0, #445438)"/>
<g id="Multi-layer Microbiome Ecosystem 4">
<path id="Vector" d="M25.0048 14.0325C25.8118 14.0325 26.4688 14.6895 26.4688 15.4965C26.4688 16.3035 25.8118 16.9605 25.0048 16.9605C24.6238 16.9605 24.2788 16.8105 24.0178 16.5705L22.3948 17.5665C22.5628 18.8805 23.0008 20.1525 23.6788 21.2985L24.9388 20.5965C24.8368 20.3775 24.7798 20.1315 24.7798 19.8735C24.7798 18.9135 25.5598 18.1335 26.5198 18.1335C27.4798 18.1335 28.2598 18.9135 28.2598 19.8735C28.2598 20.8335 27.4798 21.6135 26.5198 21.6135C26.0908 21.6135 25.6978 21.4545 25.3918 21.1965L24.0808 21.9255C25.2448 23.5845 26.8918 24.8265 28.7728 25.5015L29.5798 24.3675C29.3698 24.0885 29.2408 23.7435 29.2408 23.3685C29.2408 22.4535 29.9848 21.7095 30.8998 21.7095C31.8148 21.7095 32.5588 22.4535 32.5588 23.3685C32.5588 24.2835 31.8148 25.0275 30.8998 25.0275C30.6328 25.0275 30.3808 24.9615 30.1558 24.8505L29.5258 25.7385C29.9518 25.8525 30.3868 25.9425 30.8308 25.9995C31.0348 26.0265 31.1818 26.2125 31.1548 26.4195C31.1308 26.6085 30.9688 26.7465 30.7828 26.7465C30.7678 26.7465 30.7498 26.7465 30.7348 26.7465C30.0838 26.6625 29.4478 26.5155 28.8298 26.3175C28.8088 26.3145 28.7908 26.3055 28.7728 26.2995C26.6158 25.5855 24.7258 24.1875 23.4178 22.2915C23.3518 22.1925 23.2858 22.0935 23.2228 21.9945C23.2228 21.9915 23.2168 21.9885 23.2168 21.9855C22.3408 20.6115 21.7978 19.0575 21.6268 17.4495C21.6268 17.4345 21.6238 17.4195 21.6208 17.4045C21.5518 16.7325 21.5458 16.0545 21.6058 15.3765C21.6238 15.1725 21.8038 15.0225 22.0138 15.0375C22.2208 15.0555 22.3708 15.2385 22.3528 15.4455C22.3138 15.8745 22.3018 16.3065 22.3198 16.7355L23.6128 15.9405C23.5678 15.7995 23.5378 15.6555 23.5378 15.4995C23.5378 14.6925 24.1948 14.0355 25.0018 14.0355L25.0048 14.0325ZM17.5258 23.5395C17.4328 23.3535 17.5078 23.1315 17.6938 23.0385C17.8798 22.9455 18.1018 23.0205 18.1948 23.2065C18.2098 23.2365 19.7128 26.1615 22.6018 27.0165C22.7998 27.0735 22.9138 27.2835 22.8538 27.4815C22.8058 27.6435 22.6558 27.7485 22.4938 27.7485C22.4578 27.7485 22.4218 27.7425 22.3888 27.7335C19.1818 26.7855 17.5918 23.6745 17.5258 23.5425V23.5395ZM19.4368 19.4265C19.4368 19.2195 19.5988 19.0515 19.8058 19.0485C20.0158 19.0485 20.1838 19.2135 20.1868 19.4175C20.1868 19.4505 20.2708 22.7445 22.6528 23.8425C22.8418 23.9295 22.9228 24.1515 22.8358 24.3405C22.7728 24.4785 22.6378 24.5565 22.4968 24.5565C22.4458 24.5565 22.3918 24.5445 22.3408 24.5235C19.5268 23.2245 19.4428 19.5825 19.4398 19.4295L19.4368 19.4265ZM18.7168 28.7505C18.8788 28.6215 19.1128 28.6485 19.2418 28.8105C19.2598 28.8345 21.2488 31.2825 23.8558 30.5085C24.0568 30.4485 24.2638 30.5625 24.3208 30.7605C24.3808 30.9585 24.2668 31.1685 24.0688 31.2255C23.6248 31.3575 23.2018 31.4145 22.7998 31.4145C20.3848 31.4145 18.7378 29.3775 18.6568 29.2755C18.5278 29.1135 18.5548 28.8795 18.7168 28.7505ZM24.2698 28.7505C24.0958 28.6395 24.0418 28.4085 24.1528 28.2345C24.2638 28.0605 24.4948 28.0065 24.6688 28.1175C24.7588 28.1745 26.7178 29.3565 29.3728 28.0965C29.5588 28.0095 29.7838 28.0875 29.8708 28.2735C29.9608 28.4595 29.8798 28.6845 29.6938 28.7715C28.6678 29.2575 27.7288 29.4225 26.9308 29.4225C25.3588 29.4225 24.3328 28.7895 24.2698 28.7505ZM19.0528 10.4115C19.4188 10.2975 19.7968 10.2705 20.1658 10.3095L20.3548 9.64052C19.7278 9.34052 19.2928 8.70152 19.2928 7.96352C19.2928 6.93752 20.1268 6.10352 21.1528 6.10352C22.1788 6.10352 23.0128 6.93752 23.0128 7.96352C23.0128 8.98952 22.1788 9.82352 21.1528 9.82352C21.1288 9.82352 21.1048 9.82352 21.0808 9.82052L20.8918 10.4895C21.5008 10.7235 22.0318 11.1645 22.3708 11.7615C22.4728 11.9415 22.4098 12.1695 22.2298 12.2715C22.1728 12.3045 22.1098 12.3195 22.0468 12.3195C21.9178 12.3195 21.7888 12.2505 21.7198 12.1305C21.2308 11.2665 20.2018 10.8465 19.2718 11.1315C19.0738 11.1915 18.8638 11.0805 18.8038 10.8825C18.7438 10.6845 18.8548 10.4745 19.0528 10.4145V10.4115ZM18.7648 14.0835C18.9448 13.9815 19.1728 14.0445 19.2748 14.2245C19.3768 14.4045 19.3138 14.6325 19.1338 14.7345C19.0138 14.8035 16.2088 16.4355 17.4688 19.2705C17.5528 19.4595 17.4688 19.6815 17.2798 19.7655C17.2318 19.7865 17.1778 19.7985 17.1268 19.7985C16.9828 19.7985 16.8478 19.7145 16.7848 19.5765C15.2458 16.1145 18.7318 14.1045 18.7648 14.0865V14.0835ZM13.8058 8.73152C14.8678 8.73152 15.7318 9.59552 15.7318 10.6575C15.7318 11.1135 15.5728 11.5335 15.3058 11.8635L15.8818 12.6345C16.2358 12.2835 16.6048 11.9475 17.0008 11.6415C17.1658 11.5155 17.3998 11.5455 17.5258 11.7075C17.6518 11.8695 17.6218 12.1065 17.4598 12.2325C16.5838 12.9135 15.8098 13.7145 15.1618 14.6205C15.0898 14.7225 14.9728 14.7765 14.8558 14.7765C14.7808 14.7765 14.7028 14.7525 14.6398 14.7075C14.4718 14.5875 14.4328 14.3535 14.5528 14.1855C14.8018 13.8375 15.0778 13.5075 15.3598 13.1865L14.7298 12.3465C14.4538 12.4995 14.1388 12.5865 13.8028 12.5865C12.7408 12.5865 11.8738 11.7225 11.8738 10.6605C11.8738 9.59852 12.7378 8.73452 13.8028 8.73452L13.8058 8.73152ZM8.60678 18.7635C7.40378 18.7635 6.42578 17.7855 6.42578 16.5825C6.42578 15.3795 7.40378 14.4015 8.60678 14.4015C9.80978 14.4015 10.7878 15.3795 10.7878 16.5825C10.7878 16.7625 10.7638 16.9395 10.7218 17.1075L12.8308 17.6355C12.9508 17.2605 13.0828 16.8885 13.2388 16.5225C13.3198 16.3335 13.5418 16.2435 13.7308 16.3275C13.9198 16.4085 14.0098 16.6305 13.9258 16.8195C13.4998 17.8095 13.2118 18.8535 13.0678 19.9245C13.0438 20.1135 12.8818 20.2485 12.6958 20.2485C12.6808 20.2485 12.6628 20.2485 12.6448 20.2455C12.4408 20.2185 12.2968 20.0295 12.3238 19.8255C12.3898 19.3305 12.4918 18.8385 12.6148 18.3555L10.4068 17.8035C10.0138 18.3825 9.35078 18.7635 8.60078 18.7635H8.60678ZM33.5698 29.0715C33.5188 29.8305 33.1648 30.5205 32.5708 31.0125C32.2828 31.2495 31.9828 31.4775 31.6798 31.6875C29.5738 33.1395 27.1528 33.8895 24.6658 33.8895C23.7838 33.8895 22.8928 33.7965 22.0048 33.6045C18.6208 32.8755 15.7678 30.8325 13.9708 27.8535C12.9298 26.1255 12.3268 24.1365 12.2308 22.1025C12.2218 21.8955 12.3808 21.7215 12.5878 21.7095C12.7888 21.6945 12.9688 21.8595 12.9808 22.0665C13.0708 23.9745 13.6378 25.8435 14.6158 27.4665C16.3018 30.2655 18.9838 32.1855 22.1668 32.8725C25.3498 33.5595 28.5778 32.9205 31.2598 31.0725C31.5448 30.8745 31.8268 30.6615 32.0968 30.4395C32.6518 29.9775 32.8018 29.4165 32.8288 29.0265C32.8678 28.4385 32.6608 27.8535 32.2618 27.4185C32.1208 27.2655 32.1328 27.0285 32.2828 26.8905C32.4358 26.7495 32.6728 26.7615 32.8108 26.9115C33.3478 27.4965 33.6268 28.2855 33.5728 29.0745L33.5698 29.0715Z" stroke="var(--stroke-0, white)" stroke-width="0.5" stroke-miterlimit="10"/>
</g>
</g>
</svg>
