<svg preserveAspectRatio="none" width="100%" height="100%" overflow="visible" style="display: block;" viewBox="0 0 36 38" fill="none" xmlns="http://www.w3.org/2000/svg">
<g id="Frame 2085668808">
<rect width="36" height="38" rx="10" fill="var(--fill-0, #7AA05F)" fill-opacity="0.1"/>
<path id="Vector" d="M12 13V24.8C12 25.9201 12 26.4798 12.218 26.9076C12.4097 27.2839 12.7155 27.5905 13.0918 27.7822C13.5192 28 14.079 28 15.1969 28H20.8031C21.921 28 22.48 28 22.9074 27.7822C23.2837 27.5905 23.5905 27.2839 23.7822 26.9076C24 26.4802 24 25.921 24 24.8031V13M12 13H14M12 13H10M14 13H22M14 13C14 12.0681 14 11.6024 14.1522 11.2349C14.3552 10.7448 14.7443 10.3552 15.2344 10.1522C15.6019 10 16.0681 10 17 10H19C19.9319 10 20.3978 10 20.7654 10.1522C21.2554 10.3552 21.6447 10.7448 21.8477 11.2349C21.9999 11.6024 22 12.0681 22 13M22 13H24M24 13H26" stroke="var(--stroke-0, #445438)" stroke-width="1.5" stroke-linecap="round" stroke-linejoin="round"/>
</g>
</svg>
