<svg preserveAspectRatio="none" width="100%" height="100%" overflow="visible" style="display: block;" viewBox="0 0 48 48" fill="none" xmlns="http://www.w3.org/2000/svg">
<g id="Frame 2085668219">
<circle id="Ellipse 102" cx="24" cy="24" r="24" fill="var(--fill-0, #F2FEF2)"/>
<g id="Enhances GLP-1 Efficacy 1">
<path id="Vector" d="M33.9792 29.4864C36.4344 26.4984 38.1876 23.2368 39.0084 20.076C40.0488 16.062 39.462 12.6888 37.3524 10.5828C35.9448 9.1752 33.9252 8.43 31.5132 8.43C29.7492 8.43 27.8088 8.826 25.8144 9.582M22.1172 11.382C20.0148 12.6276 17.97 14.2188 16.1268 16.062C12.5628 19.626 10.032 23.7912 8.99159 27.7944C7.95119 31.8084 8.53799 35.1816 10.6476 37.2876C12.0552 38.6952 14.0748 39.4404 16.4868 39.4404C18.8052 39.4404 21.4332 38.7564 24.0864 37.4604C26.5524 36.2544 28.9896 34.5408 31.1856 32.4744M17.0808 32.7228C19.2048 34.6776 21.5448 36.3048 23.9136 37.4604C26.5668 38.7564 29.1948 39.4404 31.5132 39.4404C33.8316 39.4404 35.9412 38.6952 37.3524 37.2876C39.4584 35.1816 40.0488 31.8084 39.0084 27.7944C37.9716 23.7912 35.4372 19.626 31.8732 16.062C30.03 14.2188 27.9888 12.6276 25.8828 11.382M22.182 9.582C20.1876 8.8224 18.2472 8.43 16.4832 8.43C14.0712 8.43 12.0552 9.1752 10.644 10.5828C8.53799 12.6888 7.94759 16.062 8.98799 20.076C9.83039 23.3304 11.6664 26.6964 14.2368 29.7528M32.7516 29.0796C33.8892 29.0796 34.8108 30.0012 34.8108 31.1388C34.8108 32.2764 33.8892 33.198 32.7516 33.198C31.614 33.198 30.6924 32.2764 30.6924 31.1388C30.6924 30.0012 31.614 29.0796 32.7516 29.0796ZM15.7632 29.0796C16.9008 29.0796 17.8224 30.0012 17.8224 31.1388C17.8224 32.2764 16.9008 33.198 15.7632 33.198C14.6256 33.198 13.704 32.2764 13.704 31.1388C13.704 30.0012 14.6256 29.0796 15.7632 29.0796ZM24 8.4912C25.1376 8.4912 26.0592 9.4128 26.0592 10.5504C26.0592 11.688 25.1376 12.6096 24 12.6096C22.8624 12.6096 21.9408 11.688 21.9408 10.5504C21.9408 9.4128 22.8624 8.4912 24 8.4912ZM24 15.6984C25.1376 15.6984 26.0592 16.62 26.0592 17.7576C26.0592 18.8952 25.1376 19.8168 24 19.8168C22.8624 19.8168 21.9408 18.8952 21.9408 17.7576C21.9408 16.62 22.8624 15.6984 24 15.6984ZM16.7928 19.8168V21.3612C16.7928 22.4988 17.7144 23.4204 18.852 23.4204H21.426V26.5092L22.4556 33.2016H25.5444L26.574 26.5092V23.4204H29.148C30.2856 23.4204 31.2072 22.4988 31.2072 21.3612V19.8168H16.7928Z" stroke="var(--stroke-0, #033008)" stroke-width="0.7" stroke-miterlimit="10" stroke-linecap="round"/>
</g>
</g>
</svg>
