<svg preserveAspectRatio="none" width="100%" height="100%" overflow="visible" style="display: block;" viewBox="0 0 18 18" fill="none" xmlns="http://www.w3.org/2000/svg">
<g id="material-symbols:verified-rounded">
<path id="Vector" d="M8.21094 9.52454L7.12344 8.45579C6.98594 8.31829 6.81419 8.24954 6.60819 8.24954C6.40219 8.24954 6.22394 8.32454 6.07344 8.47454C5.93594 8.61204 5.86719 8.78704 5.86719 8.99954C5.86719 9.21204 5.93594 9.38704 6.07344 9.52454L7.68594 11.137C7.83594 11.287 8.01094 11.362 8.21094 11.362C8.41094 11.362 8.58594 11.287 8.73594 11.137L11.9234 7.94954C12.0734 7.79954 12.1452 7.62454 12.1387 7.42454C12.1322 7.22454 12.0604 7.04954 11.9234 6.89954C11.7734 6.74954 11.5954 6.67154 11.3894 6.66554C11.1834 6.65954 11.0052 6.73129 10.8547 6.88079L8.21094 9.52454ZM6.11094 16.312L5.02344 14.4745L2.96094 14.0245C2.77344 13.987 2.62344 13.8903 2.51094 13.7343C2.39844 13.5783 2.35469 13.4063 2.37969 13.2183L2.58594 11.0995L1.17969 9.48704C1.05469 9.34954 0.992188 9.18704 0.992188 8.99954C0.992188 8.81204 1.05469 8.64954 1.17969 8.51204L2.58594 6.89954L2.37969 4.78079C2.35469 4.59329 2.39844 4.42129 2.51094 4.26479C2.62344 4.10829 2.77344 4.01154 2.96094 3.97454L5.02344 3.52454L6.11094 1.68704C6.21094 1.52454 6.34844 1.41504 6.52344 1.35854C6.69844 1.30204 6.87344 1.31154 7.04844 1.38704L8.99844 2.21204L10.9484 1.38704C11.1234 1.31204 11.2984 1.30254 11.4734 1.35854C11.6484 1.41454 11.7859 1.52404 11.8859 1.68704L12.9734 3.52454L15.0359 3.97454C15.2234 4.01204 15.3734 4.10904 15.4859 4.26554C15.5984 4.42204 15.6422 4.59379 15.6172 4.78079L15.4109 6.89954L16.8172 8.51204C16.9422 8.64954 17.0047 8.81204 17.0047 8.99954C17.0047 9.18704 16.9422 9.34954 16.8172 9.48704L15.4109 11.0995L15.6172 13.2183C15.6422 13.4058 15.5984 13.5778 15.4859 13.7343C15.3734 13.8908 15.2234 13.9875 15.0359 14.0245L12.9734 14.4745L11.8859 16.312C11.7859 16.4745 11.6484 16.584 11.4734 16.6405C11.2984 16.697 11.1234 16.6875 10.9484 16.612L8.99844 15.787L7.04844 16.612C6.87344 16.687 6.69844 16.6965 6.52344 16.6405C6.34844 16.5845 6.21094 16.475 6.11094 16.312Z" fill="var(--fill-0, #333333)"/>
</g>
</svg>
