<svg preserveAspectRatio="none" width="100%" height="100%" overflow="visible" style="display: block;" viewBox="0 0 40 40" fill="none" xmlns="http://www.w3.org/2000/svg">
<g id="Frame 2085668219">
<circle id="Ellipse 102" cx="20" cy="20" r="20" fill="var(--fill-0, #445438)"/>
<g id="Designed to Support Microbial Balance 1" clip-path="url(#clip0_0_217)">
<path id="Vector" d="M6.19994 31.76H11.8999C11.9299 31.76 11.9299 31.76 11.9599 31.76L23.1499 33.77C23.6299 33.86 24.1099 33.71 24.4699 33.35L32.9899 24.89C33.2899 24.59 33.4699 24.17 33.4399 23.75C33.4099 23.33 33.1999 22.91 32.8699 22.64C32.2999 22.19 31.4899 22.19 30.9199 22.67L25.7299 27.08C25.6699 27.14 25.5799 27.17 25.4899 27.17H24.2599V26C24.2599 24.98 23.4199 24.14 22.3999 24.14H18.2899C18.2599 24.14 18.2299 24.14 18.2299 24.14L12.1399 22.94C11.3899 22.79 10.6099 23 10.0099 23.48C9.40994 23.96 9.07994 24.68 9.07994 25.46C9.07994 25.67 8.92994 25.82 8.71994 25.82H6.19994M24.2899 27.17H18.6499M22.5199 10.37H23.6899C23.7499 9.8 23.9899 9.29 24.3199 8.84L23.5099 8.03C23.3599 7.88 23.3599 7.67 23.5099 7.52C23.6599 7.37 23.8699 7.37 24.0199 7.52L24.8299 8.33C25.2499 8 25.7899 7.76 26.3599 7.7V6.56C26.3599 6.35 26.5099 6.2 26.7199 6.2C26.9299 6.2 27.0799 6.35 27.0799 6.56V7.7C27.6499 7.76 28.1599 8 28.6099 8.33L29.4199 7.52C29.5699 7.37 29.7799 7.37 29.9299 7.52C30.0799 7.67 30.0799 7.88 29.9299 8.03L29.1199 8.84C29.4499 9.26 29.6899 9.8 29.7499 10.37H30.9199C31.1299 10.37 31.2799 10.52 31.2799 10.73C31.2799 10.94 31.1299 11.09 30.9199 11.09H29.7499C29.6899 11.66 29.4499 12.17 29.1199 12.62L29.9299 13.43C30.0799 13.58 30.0799 13.79 29.9299 13.94C29.8699 14 29.7799 14.06 29.6899 14.06C29.5999 14.06 29.5099 14.03 29.4499 13.94L28.5499 13.1C28.1299 13.43 27.5899 13.67 27.0199 13.73V14.9C27.0199 15.11 26.8699 15.26 26.6599 15.26C26.4499 15.26 26.2999 15.11 26.2999 14.9V13.73C25.7299 13.67 25.2199 13.43 24.7699 13.1L23.9599 13.91C23.8999 13.97 23.8099 14.03 23.7199 14.03C23.6299 14.03 23.5399 14 23.4799 13.91C23.3299 13.76 23.3299 13.55 23.4799 13.4L24.2899 12.59C23.9599 12.17 23.7199 11.63 23.6599 11.06H22.4899C22.2799 11.06 22.1299 10.91 22.1299 10.7C22.1299 10.49 22.3399 10.37 22.5199 10.37ZM28.2199 22.1C27.8299 22.49 27.3199 22.7 26.7799 22.7C26.2399 22.7 25.7599 22.49 25.3399 22.1L23.2099 19.97C22.4299 19.19 22.4299 17.9 23.2099 17.12C23.9899 16.34 25.2799 16.34 26.0599 17.12L28.1899 19.25C28.9999 20.03 28.9999 21.32 28.2199 22.1ZM18.5299 6.2C19.8799 6.2 20.9599 7.31 20.9599 8.63C20.9599 9.95 19.8499 11.06 18.5299 11.06C17.2099 11.06 16.0999 9.98 16.0999 8.63C16.0999 7.28 17.1799 6.2 18.5299 6.2ZM14.9899 14.3C15.4099 13.97 15.9499 13.73 16.5199 13.67V12.5C16.5199 12.32 16.6699 12.14 16.8799 12.14C17.0899 12.14 17.2399 12.29 17.2399 12.5V13.67C17.8099 13.73 18.3199 13.97 18.7699 14.3L19.5799 13.49C19.7299 13.34 19.9399 13.34 20.0899 13.49C20.2399 13.64 20.2399 13.85 20.0899 14L19.2799 14.81C19.6099 15.23 19.8499 15.77 19.9099 16.34H21.0499C21.2599 16.34 21.4099 16.49 21.4099 16.7C21.4099 16.91 21.2599 17.06 21.0499 17.06H19.9099C19.8499 17.63 19.6099 18.14 19.2799 18.59L20.0899 19.4C20.2399 19.55 20.2399 19.76 20.0899 19.91C20.0299 19.97 19.9399 20 19.8499 20C19.7599 20 19.6699 19.97 19.6099 19.91L18.7999 19.1C18.3799 19.43 17.8399 19.67 17.2699 19.73V20.87C17.2699 21.08 17.1199 21.23 16.9099 21.23C16.6999 21.23 16.5499 21.08 16.5499 20.87V19.73C15.9799 19.67 15.4699 19.43 15.0199 19.1L14.2099 19.91C14.1499 19.97 14.0599 20 13.9699 20C13.8799 20 13.7899 19.97 13.7299 19.91C13.5799 19.76 13.5799 19.55 13.7299 19.4L14.5399 18.59C14.2099 18.17 13.9699 17.63 13.9099 17.06H12.7399C12.5599 17.06 12.3799 16.91 12.3799 16.7C12.3799 16.49 12.5299 16.34 12.7399 16.34H13.9099C13.9699 15.77 14.2099 15.26 14.5399 14.81L13.6699 14C13.5199 13.85 13.5199 13.64 13.6699 13.49C13.8199 13.34 14.0299 13.34 14.1799 13.49L14.9899 14.3ZM8.53994 10.37L10.6699 8.24C11.4499 7.46 12.7399 7.46 13.5199 8.24C14.2999 9.02 14.2999 10.31 13.5199 11.09L11.3899 13.22C10.9999 13.61 10.4899 13.82 9.94994 13.82C9.40994 13.82 8.92994 13.64 8.50994 13.22C7.75994 12.44 7.75994 11.15 8.53994 10.37ZM8.26994 15.74C9.61994 15.74 10.6999 16.85 10.6999 18.17C10.6999 19.49 9.61994 20.6 8.26994 20.6C6.91994 20.6 5.83994 19.52 5.83994 18.2C5.83994 16.88 6.94994 15.74 8.26994 15.74ZM31.7299 19.7C30.3799 19.7 29.2999 18.59 29.2999 17.27C29.2999 15.95 30.4099 14.84 31.7299 14.84C33.0499 14.84 34.1599 15.95 34.1599 17.27C34.1599 18.59 33.0499 19.7 31.7299 19.7Z" stroke="var(--stroke-0, white)" stroke-width="0.5" stroke-miterlimit="10" stroke-linecap="round"/>
</g>
</g>
<defs>
<clipPath id="clip0_0_217">
<rect width="30" height="30" fill="white" transform="translate(5 5)"/>
</clipPath>
</defs>
</svg>
