<svg preserveAspectRatio="none" width="100%" height="100%" overflow="visible" style="display: block;" viewBox="0 0 40 40" fill="none" xmlns="http://www.w3.org/2000/svg">
<g id="Frame 2085668219">
<circle id="Ellipse 102" cx="20" cy="20" r="20" fill="var(--fill-0, #E0DAD1)"/>
<g id="CFU-Driven Marketing 1" clip-path="url(#clip0_0_200)">
<path id="Vector" d="M29.798 10.202C27.182 7.58602 23.702 6.14302 20 6.14302C16.298 6.14302 12.821 7.58302 10.202 10.202C7.586 12.821 6.143 16.298 6.143 20C6.143 23.702 7.583 27.179 10.202 29.798C12.818 32.414 16.298 33.857 20 33.857C23.702 33.857 27.179 32.417 29.798 29.798C32.414 27.182 33.857 23.702 33.857 20C33.857 16.298 32.417 12.821 29.798 10.202ZM25.001 9.97402C26.339 9.97402 26.342 7.89202 25.001 7.89202C23.66 7.89202 23.66 9.97402 25.001 9.97402ZM21.512 14.414C22.85 14.414 22.853 12.332 21.512 12.332C20.171 12.332 20.171 14.414 21.512 14.414ZM25.442 23.675C26.774 23.543 26.573 21.473 25.238 21.605C23.903 21.737 24.107 23.807 25.442 23.675ZM23.939 14.297C25.577 14.297 25.58 11.753 23.939 11.753C22.298 11.753 22.298 14.297 23.939 14.297ZM15.569 17.471C16.157 17.015 15.449 16.1 14.861 16.559C14.273 17.018 14.981 17.93 15.569 17.471ZM18.128 8.35402C18.872 8.35402 18.872 7.19902 18.128 7.19902C17.384 7.19902 17.384 8.35402 18.128 8.35402ZM24.827 15.569C25.571 15.569 25.571 14.414 24.827 14.414C24.083 14.414 24.083 15.569 24.827 15.569ZM21.176 12.332C24.605 12.332 24.611 7.00102 21.176 7.00102C17.741 7.00102 17.741 12.332 21.176 12.332ZM21.782 19.376C23.315 19.028 22.775 16.646 21.239 16.997C19.703 17.348 20.246 19.727 21.782 19.376ZM16.886 11.144C18.683 11.144 18.686 8.35402 16.886 8.35402C15.086 8.35402 15.086 11.144 16.886 11.144ZM17.873 27.428C18.614 27.377 18.536 26.222 17.795 26.273C17.054 26.324 17.132 27.479 17.873 27.428ZM21.185 31.187C24.605 30.953 24.248 25.634 20.819 25.871C17.399 26.105 17.756 31.424 21.185 31.187ZM16.823 30.296C18.614 30.173 18.425 27.389 16.631 27.512C14.837 27.635 15.029 30.419 16.823 30.296ZM31.418 23.627C32.045 25.043 31.403 26.702 29.987 27.329C28.571 27.956 26.912 27.314 26.285 25.898C25.658 24.482 26.3 22.823 27.716 22.196C29.132 21.569 30.791 22.211 31.418 23.627ZM28.544 19.535C28.913 20.372 28.535 21.353 27.698 21.722C26.861 22.091 25.88 21.713 25.511 20.876C25.142 20.039 25.52 19.058 26.357 18.689C27.194 18.32 28.175 18.698 28.544 19.535ZM33.116 18.716C33.617 19.85 33.104 21.176 31.97 21.677C30.836 22.178 29.51 21.665 29.009 20.531C28.508 19.397 29.021 18.071 30.155 17.57C31.289 17.069 32.615 17.582 33.116 18.716ZM12.986 19.082C14.231 19.814 14.648 21.416 13.919 22.661C13.19 23.906 11.585 24.323 10.34 23.594C9.095 22.865 8.678 21.26 9.407 20.015C10.136 18.77 11.741 18.353 12.986 19.082ZM16.982 18.02C17.834 18.521 18.122 19.619 17.621 20.471C17.12 21.323 16.022 21.611 15.17 21.11C14.318 20.609 14.03 19.511 14.531 18.659C15.032 17.807 16.13 17.519 16.982 18.02ZM8.516 18.335C9.095 18.674 9.287 19.418 8.948 19.994C8.609 20.57 7.865 20.765 7.289 20.426C6.713 20.087 6.518 19.343 6.857 18.767C7.196 18.191 7.94 17.996 8.516 18.335ZM11.897 24.506C12.59 24.914 12.824 25.805 12.416 26.498C12.008 27.191 11.117 27.425 10.424 27.017C9.731 26.609 9.497 25.718 9.905 25.025C10.313 24.332 11.204 24.098 11.897 24.506Z" stroke="var(--stroke-0, #445438)" stroke-width="0.45" stroke-miterlimit="10"/>
</g>
</g>
<defs>
<clipPath id="clip0_0_200">
<rect width="30" height="30" fill="white" transform="translate(5 5)"/>
</clipPath>
</defs>
</svg>
