<svg preserveAspectRatio="none" width="100%" height="100%" overflow="visible" style="display: block;" viewBox="0 0 7.00078 7.00217" fill="none" xmlns="http://www.w3.org/2000/svg">
<g id="R">
<path id="Subtract" d="M3.44863 0.00276313C5.38132 -0.0257576 6.97173 1.51738 7.00039 3.45003C7.02889 5.38276 5.48486 6.9732 3.55215 7.00179C1.61939 7.03029 0.028891 5.4863 0.000388211 3.55354C-0.0281095 1.62083 1.51595 0.0313595 3.44863 0.00276313ZM3.34707 0.464677C1.67064 0.54556 0.377248 1.96981 0.457419 3.64632C0.537688 5.32286 1.96149 6.61759 3.63808 6.53792C5.31536 6.45809 6.60988 5.03258 6.52969 3.3553C6.44925 1.67817 5.02425 0.38397 3.34707 0.464677Z" fill="var(--fill-0, #201F1C)"/>
<path id="Subtract_2" d="M3.53559 1.58301C3.68339 1.58477 3.83105 1.59007 3.97797 1.60352C4.04355 1.60952 4.10969 1.6168 4.17426 1.62988C4.2616 1.64777 4.34683 1.67481 4.42914 1.70898C4.66626 1.80684 4.8923 1.9658 4.99067 2.20996C5.08467 2.44326 5.08159 2.78825 4.98188 3.01855C4.83767 3.35129 4.52825 3.54431 4.20844 3.6748C4.34435 3.8102 4.48177 3.95552 4.61567 4.09375L5.36567 4.86816C5.49417 5.00077 5.62893 5.14395 5.7602 5.27246C5.5704 5.27518 5.37517 5.27344 5.185 5.27344C5.07302 5.27411 4.96104 5.27358 4.84906 5.27246C4.68968 5.10596 4.53118 4.93309 4.37348 4.76465L3.52777 3.86133C3.31819 3.85625 3.08006 3.85886 2.86957 3.86035C2.86495 4.01796 2.86857 4.19383 2.8686 4.35254L2.86957 5.27344H2.19574V1.58301H3.53559ZM2.86957 2.09082C2.86449 2.45221 2.87192 2.81523 2.8686 3.17676C2.8681 3.23003 2.86818 3.28575 2.86957 3.33887H3.26996C3.55949 3.33862 3.91171 3.34347 4.14008 3.1416C4.29462 2.99643 4.32097 2.88371 4.33246 2.67871C4.35927 2.20192 3.94655 2.09066 3.55219 2.09082C3.32854 2.09091 3.09609 2.08916 2.86957 2.09082Z" fill="var(--fill-0, #201F1C)"/>
</g>
</svg>
