<svg preserveAspectRatio="none" width="100%" height="100%" overflow="visible" style="display: block;" viewBox="0 0 43.4783 43.4894" fill="none" xmlns="http://www.w3.org/2000/svg">
<g id="R">
<path id="Subtract" d="M21.4186 0.0142969C33.4233 -0.162646 43.2982 9.42554 43.4753 21.4303C43.6522 33.4352 34.0641 43.3099 22.0592 43.487C10.0546 43.6639 0.179635 34.0756 0.00259904 22.0709C-0.174239 10.0664 9.41406 0.191447 21.4186 0.0142969ZM40.5944 20.8454C40.0962 10.427 31.245 2.38601 20.8268 2.88734C10.4132 3.38858 2.37673 12.2353 2.87467 22.6491C3.37264 33.0629 12.2166 41.1028 22.6305 40.608C33.049 40.1129 41.0925 31.2637 40.5944 20.8454Z" fill="var(--fill-0, white)"/>
<path id="Subtract_2" d="M19.1961 9.82992C21.0268 9.82987 22.8713 9.79085 24.6961 9.95785C25.1032 9.99512 25.5111 10.0446 25.9119 10.1258C26.455 10.2369 26.9871 10.4006 27.4989 10.6131C28.9714 11.221 30.3762 12.2091 30.9871 13.7254C31.571 15.1745 31.5488 17.3164 30.9295 18.7469C30.034 20.814 28.1152 22.0115 26.1287 22.8221C26.973 23.6632 27.8233 24.567 28.6551 25.4256L33.3172 30.2352C34.1154 31.0589 34.9482 31.9517 35.7635 32.7498C34.5847 32.7668 33.3763 32.7547 32.1952 32.7547C31.4983 32.7589 30.8012 32.7568 30.1043 32.7498C29.1139 31.7152 28.1292 30.6403 27.1493 29.5936L21.8983 23.9803C20.5966 23.9488 19.1206 23.9701 17.8133 23.9793C17.7846 24.9586 17.8073 26.049 17.8075 27.035L17.8104 32.7547L13.6268 32.7557L13.6258 9.8309L19.1961 9.82992ZM17.8143 12.9959C17.7826 15.2416 17.833 17.4975 17.8123 19.744C17.8093 20.0748 17.8066 20.418 17.8153 20.7479L20.3035 20.7498C22.1019 20.7483 24.2875 20.7763 25.7059 19.5223C26.6655 18.6208 26.8318 17.9224 26.9032 16.6493C27.0694 13.6881 24.5068 12.9979 22.0575 12.9989C20.6673 12.9994 19.2223 12.9856 17.8143 12.9959Z" fill="var(--fill-0, white)"/>
</g>
</svg>
