<svg preserveAspectRatio="none" width="100%" height="100%" overflow="visible" style="display: block;" viewBox="0 0 179.439 99.9945" fill="none" xmlns="http://www.w3.org/2000/svg">
<g id="Group">
<path id="Vector" d="M149.421 35.7418C150.288 33.6276 151.104 31.6471 151.917 29.6614C154.439 23.4867 156.964 17.3146 159.468 11.1319C159.652 10.6781 159.87 10.5181 160.374 10.5208C164.104 10.5444 167.837 10.5444 171.567 10.5181C172.084 10.5155 172.239 10.6834 172.308 11.1477C173.154 16.7663 174.009 22.3824 174.873 27.9984C175.782 33.9082 176.705 39.8154 177.617 45.7252C178.222 49.6415 178.811 53.563 179.424 57.4793C179.48 57.8334 179.382 57.9174 179.043 57.9174C175.148 57.9095 171.255 57.9095 167.36 57.92C166.984 57.92 166.909 57.7705 166.869 57.4399C166.325 53.1407 165.763 48.8467 165.211 44.5501C164.638 40.0961 164.067 35.6395 163.494 31.1855C163.475 31.0543 163.424 30.9231 163.355 30.6582C163.105 31.23 162.897 31.6943 162.699 32.1612C159.148 40.542 155.594 48.9175 152.058 57.3036C151.856 57.7862 151.605 57.9462 151.085 57.9278C149.896 57.8859 148.704 57.8728 147.518 57.9305C146.913 57.9593 146.681 57.7154 146.475 57.2091C143.012 48.6185 139.535 40.0384 136.058 31.4556C135.965 31.2248 135.858 30.9992 135.68 30.5848C135.48 31.8963 135.304 33.019 135.139 34.1469C134.355 39.4272 133.573 44.7101 132.798 49.9904C132.446 52.3721 132.088 54.7513 131.771 57.1357C131.696 57.697 131.555 57.9383 130.894 57.9331C127.209 57.8937 123.524 57.9042 119.84 57.9252C119.288 57.9305 119.149 57.8465 119.256 57.2458C120.328 51.1996 121.354 45.1482 122.397 39.0967C123.394 33.2944 124.399 27.4921 125.399 21.6899C125.988 18.2589 126.599 14.8305 127.153 11.3916C127.26 10.728 127.468 10.505 128.188 10.5129C131.731 10.5549 135.277 10.5496 138.821 10.5181C139.444 10.5129 139.74 10.6677 139.972 11.2762C142.999 19.1953 146.059 27.0987 149.112 35.0073C149.19 35.2119 149.28 35.4139 149.421 35.7418Z" fill="var(--fill-0, #1E386C)"/>
<path id="Vector_2" d="M57.3311 34.2983C57.3311 41.9341 57.3258 49.5699 57.3445 57.2084C57.3471 57.7697 57.2218 57.935 56.6273 57.9297C52.9212 57.8982 49.2152 57.9008 45.5091 57.9271C44.9146 57.9323 44.7812 57.7566 44.7839 57.1952C44.7999 41.8764 44.7999 26.5576 44.7812 11.2387C44.7812 10.6616 44.9412 10.5148 45.5198 10.5174C49.2258 10.5436 52.9319 10.5462 56.6379 10.5148C57.2512 10.5095 57.3445 10.7036 57.3418 11.2466C57.3232 18.9349 57.3311 26.6153 57.3311 34.2983Z" fill="var(--fill-0, #1E386C)"/>
<path id="Vector_3" d="M169.529 77.0892C170.207 78.3194 171.193 79.025 172.508 79.2637C174.089 79.5496 175.456 78.6473 175.595 77.244C175.683 76.3678 175.283 75.7462 174.574 75.2766C174.027 74.9173 173.403 74.7232 172.793 74.4976C172.225 74.2904 171.646 74.1067 171.1 73.8628C168.986 72.9211 168.108 71.4784 168.29 69.2907C168.455 67.3156 169.831 65.7076 171.881 65.2118C174.115 64.6689 176.171 65.0571 177.992 66.5076C178.357 66.7988 178.44 67.048 178.085 67.389C177.952 67.5175 177.856 67.6802 177.741 67.8244C177.427 68.2232 177.189 68.8107 176.782 68.9681C176.358 69.1334 176.104 68.4356 175.691 68.2153C174.851 67.7746 173.993 67.5962 173.067 67.869C172.249 68.1104 171.74 68.7005 171.67 69.4927C171.598 70.3033 172.094 70.7728 172.74 71.1112C173.126 71.3184 173.553 71.4469 173.966 71.6017C174.553 71.822 175.15 72.0161 175.728 72.2575C178.36 73.3513 179.376 75.1717 178.923 77.9522C178.549 80.2238 176.558 81.9655 174.067 82.1963C171.481 82.4377 169.367 81.593 167.722 79.5916C167.415 79.2191 167.447 78.9988 167.799 78.6998C168.375 78.2066 168.914 77.6663 169.529 77.0892Z" fill="var(--fill-0, #2B2B2B)"/>
<path id="Vector_4" d="M160.31 77.5544C160.31 78.7269 160.294 79.805 160.315 80.8805C160.323 81.2163 160.185 81.3684 159.894 81.4891C154.722 83.6085 148.843 81.2713 147.518 75.6579C146.478 71.2643 148.795 66.8312 152.842 65.5066C155.124 64.7564 157.417 64.7774 159.673 65.6928C160.134 65.8791 160.353 66.1178 160.326 66.6502C160.275 67.6496 160.313 68.6595 160.313 69.8058C158.849 68.3238 157.18 67.6916 155.202 68.0405C153.86 68.2766 152.781 68.9586 151.946 70.013C150.16 72.2663 150.341 75.8022 152.335 77.7118C154.559 79.847 157.455 79.8129 160.31 77.5544Z" fill="var(--fill-0, #2B2B2B)"/>
<path id="Vector_5" d="M124.927 75.0312C124.927 77.1166 124.914 79.2045 124.938 81.2925C124.943 81.7568 124.831 81.9483 124.325 81.9168C123.65 81.8748 122.97 81.867 122.298 81.9194C121.738 81.9614 121.653 81.7358 121.656 81.2505C121.674 77.169 121.648 73.0875 121.685 69.006C121.69 68.3187 121.538 68.08 120.813 68.143C120.029 68.2138 119.229 68.1403 118.44 68.1666C118.027 68.1823 117.851 68.0879 117.878 67.642C117.918 67.0255 117.899 66.4039 117.883 65.7874C117.878 65.4963 117.974 65.3809 118.28 65.3835C121.613 65.3914 124.946 65.3914 128.279 65.3809C128.625 65.3809 128.713 65.5146 128.705 65.8268C128.689 66.4694 128.686 67.1095 128.708 67.7521C128.721 68.101 128.561 68.1692 128.252 68.164C127.343 68.1508 126.431 68.1902 125.524 68.1482C125.015 68.1246 124.908 68.303 124.914 68.7699C124.94 70.8552 124.927 72.9432 124.927 75.0312Z" fill="var(--fill-0, #2B2B2B)"/>
<path id="Vector_6" d="M139.185 73.6167C139.185 76.1402 139.158 78.6609 139.203 81.1791C139.214 81.8191 139.011 81.9608 138.419 81.9162C137.817 81.8664 137.206 81.8716 136.604 81.9136C136.057 81.9529 135.892 81.7798 135.895 81.2316C135.921 77.8609 135.908 74.4902 135.908 71.1222C135.908 69.4014 135.921 67.6833 135.9 65.9626C135.892 65.5245 136.009 65.354 136.481 65.375C137.177 65.4117 137.881 65.4143 138.577 65.375C139.07 65.3435 139.201 65.4983 139.198 65.9809C139.171 68.528 139.185 71.0723 139.185 73.6167Z" fill="var(--fill-0, #2B2B2B)"/>
<path id="Vector_7" d="M86.179 73.5943C86.179 76.1597 86.1683 78.7251 86.1897 81.2879C86.1923 81.76 86.075 81.941 85.5738 81.9095C84.9019 81.8676 84.2193 81.8597 83.5501 81.9122C82.9902 81.9541 82.9076 81.7259 82.9102 81.2433C82.9289 77.3716 82.9209 73.4999 82.9209 69.6282C82.9209 68.3901 82.9369 67.1547 82.9129 65.9166C82.9049 65.4995 83.0195 65.35 83.4595 65.371C84.1793 65.4077 84.9045 65.4103 85.6244 65.371C86.1097 65.3421 86.195 65.5362 86.1923 65.9612C86.171 68.5082 86.179 71.0499 86.179 73.5943Z" fill="var(--fill-0, #2B2B2B)"/>
<path id="Vector_8" d="M79.657 91.5752C79.985 91.4257 80.2063 91.3024 80.4409 91.2211C81.854 90.7516 83.1311 91.5909 83.1818 93.0651C83.2191 94.1878 83.1631 95.3131 83.2004 96.4358C83.2191 97.0155 82.8485 96.908 82.5126 96.9106C82.1766 96.9106 81.8033 97.0155 81.8247 96.4358C81.862 95.4495 81.846 94.4632 81.83 93.4769C81.8167 92.7189 81.5154 92.37 80.9048 92.3385C80.2489 92.307 79.753 92.7005 79.7077 93.414C79.6464 94.374 79.633 95.3393 79.6704 96.302C79.6917 96.866 79.4437 96.9237 78.9665 96.9289C78.4786 96.9342 78.2733 96.8529 78.2813 96.2994C78.3106 93.4533 78.3079 90.6099 78.2839 87.7639C78.2786 87.2497 78.4706 87.1474 78.9318 87.171C79.3477 87.1947 79.6944 87.1369 79.673 87.756C79.6224 88.9888 79.657 90.2269 79.657 91.5752Z" fill="var(--fill-0, #2B2B2B)"/>
<path id="Vector_9" d="M51.8632 91.5839C52.2019 91.4318 52.4418 91.2927 52.7004 91.2141C54.1189 90.776 55.3453 91.6023 55.3773 93.0423C55.404 94.165 55.3533 95.293 55.396 96.4156C55.4173 96.977 55.0867 96.9114 54.7294 96.914C54.3668 96.9166 54.0416 96.9639 54.0682 96.4104C54.1135 95.5159 54.0895 94.6214 54.0762 93.727C54.0629 92.7643 53.7643 92.3551 53.095 92.3341C52.3352 92.3131 51.8846 92.822 51.8659 93.7716C51.8473 94.6424 51.8233 95.5185 51.8739 96.3842C51.9086 96.9875 51.546 96.9062 51.17 96.9114C50.7808 96.9166 50.4635 96.9612 50.4688 96.3737C50.4981 93.483 50.4981 90.5924 50.4688 87.7017C50.4635 87.101 50.8021 87.1797 51.178 87.1719C51.57 87.164 51.8926 87.1194 51.8713 87.7096C51.8313 88.9739 51.8632 90.2356 51.8632 91.5839Z" fill="var(--fill-0, #2B2B2B)"/>
<path id="Vector_10" d="M172.496 91.3294C172.595 91.298 172.619 91.2848 172.64 91.2822C174.05 91.193 174.05 91.193 174.669 92.4128C174.989 93.0449 175.301 93.6823 175.69 94.464C176.093 93.6797 176.442 93.003 176.789 92.3236C177.381 91.1589 177.381 91.1589 178.818 91.3216C178.332 92.2554 177.858 93.163 177.383 94.0706C176.445 95.8595 175.509 97.6537 174.568 99.4426C174.349 99.8571 173.405 100.143 173.016 99.9122C172.76 99.7627 172.973 99.5922 173.045 99.4584C173.52 98.5403 173.979 97.6117 174.509 96.7251C174.826 96.1953 174.834 95.7782 174.52 95.2273C173.805 93.9761 173.184 92.6725 172.496 91.3294Z" fill="var(--fill-0, #2B2B2B)"/>
<path id="Vector_11" d="M84.2839 99.9057C84.9184 98.72 85.497 97.6026 86.1076 96.5061C86.3075 96.1494 86.3209 95.853 86.1262 95.4858C85.4037 94.1349 84.7131 92.7656 84.0039 91.3937C85.2757 91.0527 85.5237 91.1629 86.0356 92.2043C86.3982 92.944 86.7768 93.6732 87.1874 94.4837C87.5766 93.7021 87.9259 93.0069 88.2672 92.3066C88.8431 91.1367 88.8404 91.1341 90.2882 91.336C89.6376 92.5899 89.0004 93.828 88.3552 95.0661C87.6966 96.3278 87.0274 97.5842 86.3662 98.8433C85.7663 99.9896 85.7689 99.9896 84.2839 99.9057Z" fill="var(--fill-0, #2B2B2B)"/>
<path id="Vector_12" d="M32.7464 94.0343C32.7464 93.347 32.7331 92.6598 32.7544 91.9725C32.7597 91.7443 32.5998 91.3876 32.9171 91.3089C33.2823 91.2171 33.8049 91.0964 34.0315 91.3771C34.2368 91.6289 34.2768 91.5555 34.4688 91.4532C36.1085 90.5902 37.5589 91.3404 37.6763 93.1582C37.7482 94.2782 37.7002 95.4035 37.7029 96.5289C37.7029 97.1453 37.2203 96.8672 36.9324 96.8987C36.6604 96.9328 36.3085 97.0246 36.3191 96.5131C36.3405 95.5058 36.3458 94.496 36.3138 93.4887C36.2845 92.5811 35.9299 92.2768 35.1353 92.3345C34.5674 92.3739 34.3221 92.707 34.2208 93.2054C34.0102 94.252 34.1115 95.3091 34.1275 96.361C34.1355 96.9223 33.8556 96.9249 33.4423 96.9171C33.0477 96.9092 32.7064 96.9538 32.7384 96.3741C32.7784 95.5977 32.7464 94.8134 32.7464 94.0343Z" fill="var(--fill-0, #2B2B2B)"/>
<path id="Vector_13" d="M138.825 94.038C138.825 93.3507 138.812 92.6609 138.833 91.9762C138.838 91.748 138.678 91.3913 138.993 91.3126C139.358 91.2182 139.881 91.1001 140.11 91.3808C140.315 91.6326 140.355 91.5592 140.547 91.4569C142.192 90.5912 143.648 91.3467 143.76 93.1592C143.827 94.2793 143.781 95.4046 143.784 96.5299C143.784 97.1463 143.299 96.8683 143.014 96.9024C142.742 96.9339 142.39 97.0309 142.4 96.5194C142.424 95.5122 142.427 94.5023 142.398 93.495C142.371 92.5927 142.014 92.2831 141.219 92.3382C140.654 92.3776 140.403 92.7107 140.302 93.2065C140.091 94.2295 140.193 95.2656 140.206 96.2938C140.214 96.8368 140.022 96.9391 139.523 96.9286C139.062 96.9181 138.777 96.884 138.814 96.3096C138.86 95.5515 138.825 94.7961 138.825 94.038Z" fill="var(--fill-0, #2B2B2B)"/>
<path id="Vector_14" d="M104.451 88.4189C103.182 88.2458 103.017 88.3901 103.017 89.5993C103.017 89.7593 103.017 89.922 103.017 90.0793C103.017 91.126 103.014 91.1522 104.097 91.2571C104.561 91.3017 104.459 91.5981 104.443 91.8421C104.425 92.0939 104.633 92.4795 104.107 92.5057C103.766 92.5241 103.324 92.3431 103.108 92.608C102.865 92.9018 103.03 93.353 103.022 93.7385C103.009 94.5386 102.998 95.3413 103.025 96.1413C103.041 96.6318 103.022 96.9413 102.348 96.9335C101.732 96.9256 101.623 96.7184 101.644 96.178C101.684 95.1288 101.657 94.0743 101.655 93.0172C101.655 92.7732 101.703 92.5503 101.313 92.4742C100.996 92.4086 100.98 91.3515 101.292 91.2965C101.727 91.2151 101.647 90.9528 101.655 90.6931C101.668 90.0531 101.633 89.4078 101.692 88.773C101.788 87.7002 102.54 87.0208 103.569 87.0234C104.137 87.0234 104.601 87.1389 104.459 87.8759C104.422 88.0491 104.451 88.2327 104.451 88.4189Z" fill="var(--fill-0, #2B2B2B)"/>
<path id="Vector_15" d="M15.2048 94.0515C15.2048 93.3642 15.1914 92.6796 15.2101 91.9923C15.2154 91.7589 15.0608 91.3838 15.3381 91.3156C15.7194 91.2212 16.2073 91.1005 16.5246 91.3917C16.6979 91.5543 16.7032 91.5753 16.9085 91.4651C18.5722 90.5733 20.0466 91.3785 20.1053 93.22C20.1399 94.2718 20.0866 95.3263 20.1346 96.3782C20.1613 96.9631 19.8253 96.9028 19.4387 96.9185C18.9961 96.9369 18.7562 96.8687 18.7722 96.3388C18.8015 95.3551 18.7588 94.3715 18.7348 93.3878C18.7189 92.7609 18.4869 92.3176 17.759 92.3097C17.0765 92.3019 16.6739 92.6429 16.6232 93.4272C16.5619 94.3846 16.5512 95.3499 16.5965 96.3099C16.6259 96.8923 16.3539 96.9264 15.8927 96.9211C15.4447 96.9185 15.1434 96.9133 15.1888 96.3178C15.2501 95.5676 15.2048 94.8095 15.2048 94.0515Z" fill="var(--fill-0, #2B2B2B)"/>
<path id="Vector_16" d="M129.512 92.0419C129.512 93.4584 129.482 94.8775 129.525 96.2966C129.541 96.8526 129.325 96.9471 128.837 96.9208C128.421 96.8999 128.109 96.9471 128.117 96.3359C128.155 93.4767 128.155 90.6176 128.117 87.7584C128.109 87.1551 128.4 87.1813 128.829 87.1656C129.304 87.1472 129.541 87.2181 129.525 87.7846C129.48 89.2037 129.512 90.6228 129.512 92.0419Z" fill="var(--fill-0, #2B2B2B)"/>
<path id="Vector_17" d="M72.7977 92.0418C72.7977 93.4845 72.7737 94.9272 72.8084 96.3673C72.8217 96.9365 72.5151 96.9208 72.1125 96.9208C71.7152 96.9182 71.4166 96.9496 71.4219 96.3752C71.4513 93.4924 71.4513 90.607 71.4219 87.7242C71.4166 87.1576 71.7019 87.1708 72.1072 87.1734C72.5044 87.176 72.8244 87.1419 72.811 87.7164C72.7737 89.1591 72.7977 90.5991 72.7977 92.0418Z" fill="var(--fill-0, #2B2B2B)"/>
<path id="Vector_18" d="M94.9515 92.0005C94.9515 90.5814 94.9755 89.1596 94.9382 87.7432C94.9248 87.2054 95.1648 87.1609 95.602 87.1687C96.0393 87.1766 96.3353 87.1687 96.3273 87.7642C96.2979 90.626 96.2979 93.4877 96.3299 96.3469C96.3353 96.9738 95.986 96.8925 95.5807 96.9214C95.1141 96.9502 94.9248 96.8322 94.9382 96.3259C94.9728 94.8858 94.9515 93.4405 94.9515 92.0005Z" fill="var(--fill-0, #2B2B2B)"/>
<path id="Vector_19" d="M161.997 94.3036C162.307 93.6399 162.605 93.0052 162.899 92.3704C163.437 91.2031 163.434 91.2031 164.909 91.308C163.936 93.2937 162.978 95.2426 161.963 97.307C160.947 95.2295 159.992 93.2884 159.035 91.3395C159.15 91.3001 159.192 91.2739 159.235 91.2687C160.502 91.1952 160.499 91.1978 161.013 92.3336C161.288 92.937 161.565 93.5403 161.845 94.1436C161.864 94.1803 161.904 94.2091 161.997 94.3036Z" fill="var(--fill-0, #2B2B2B)"/>
<path id="Vector_20" d="M170.805 94.6599C170.805 95.2554 170.773 95.8561 170.813 96.4489C170.853 97.0469 170.442 96.9053 170.122 96.9053C169.802 96.9027 169.402 97.0469 169.418 96.4515C169.45 95.3262 169.431 94.2009 169.423 93.0782C169.421 92.829 169.538 92.5405 169.079 92.4723C168.797 92.4303 168.749 91.3548 169.018 91.3155C169.535 91.2342 169.413 90.9063 169.423 90.6099C169.431 90.4263 169.426 90.2427 169.426 90.059C169.426 89.238 169.733 89.0229 170.567 89.217C170.797 89.2721 170.802 89.3954 170.802 89.5606C170.802 89.8833 170.829 90.2059 170.797 90.5233C170.746 91.0348 170.826 91.347 171.479 91.284C172.018 91.2316 171.762 91.6985 171.791 91.9398C171.823 92.1864 171.898 92.5667 171.434 92.4959C170.797 92.4015 170.77 92.7503 170.797 93.2146C170.826 93.6946 170.805 94.1773 170.805 94.6599Z" fill="var(--fill-0, #2B2B2B)"/>
<path id="Vector_21" d="M74.7416 94.6807C74.7416 94.2216 74.7549 93.7626 74.7362 93.3036C74.7229 92.9783 74.8562 92.6504 74.3603 92.4143C74.0724 92.2779 74.1044 91.4779 74.3283 91.3756C75.0722 91.0346 74.6776 90.4654 74.7202 90.0194C74.7922 89.2955 75.2375 88.9676 75.9227 89.2351C76.0987 89.3033 76.096 89.424 76.0987 89.5578C76.1014 89.8778 76.1253 90.2004 76.096 90.5205C76.048 91.0293 76.1227 91.3598 76.7786 91.2812C77.3012 91.2182 77.1145 91.6589 77.1332 91.9133C77.1545 92.1992 77.2105 92.5743 76.7172 92.5009C76.1387 92.417 76.08 92.7107 76.0934 93.175C76.1227 94.2531 76.072 95.3312 76.1147 96.4093C76.136 96.9575 75.8267 96.926 75.4588 96.9155C75.0962 96.9051 74.6883 97.01 74.7309 96.4014C74.7736 95.827 74.7416 95.2525 74.7416 94.6807Z" fill="var(--fill-0, #2B2B2B)"/>
<path id="Vector_22" d="M7.14423 94.0237C7.14423 93.36 7.14423 92.6911 7.14423 92.0275C7.14423 91.3455 7.89343 90.8812 8.39735 91.3324C8.68797 91.5894 8.74929 91.5002 8.94659 91.356C9.22121 91.1566 9.54382 91.1225 9.87443 91.1251C10.8609 91.133 11.0129 91.3822 10.5383 92.2399C10.4317 92.4341 10.3624 92.5469 10.0717 92.4891C9.0719 92.2845 8.55199 92.7095 8.512 93.7561C8.48 94.6033 8.46667 95.4559 8.51733 96.2979C8.55199 96.8645 8.30137 96.9222 7.82411 96.9222C7.33886 96.9222 7.09357 96.8487 7.12823 96.2926C7.17889 95.5398 7.14423 94.7817 7.14423 94.0237Z" fill="var(--fill-0, #2B2B2B)"/>
<path id="Vector_23" d="M30.8619 94.0847C30.8619 94.8401 30.8272 95.5982 30.8726 96.351C30.9072 96.8966 30.6299 96.9412 30.2034 96.9176C29.8327 96.8966 29.4755 96.9963 29.4915 96.3904C29.5315 94.8585 29.5341 93.324 29.4888 91.7895C29.4728 91.1809 29.8248 91.2753 30.1954 91.2622C30.6113 91.2412 30.9099 91.2544 30.8726 91.8209C30.8246 92.5685 30.8619 93.3266 30.8619 94.0847Z" fill="var(--fill-0, #2B2B2B)"/>
<path id="Vector_24" d="M99.5846 94.1779C99.5846 94.9334 99.5553 95.6915 99.5953 96.4443C99.6246 96.961 99.3127 96.9453 98.9821 96.9059C98.6674 96.8692 98.1929 97.1289 98.2009 96.4653C98.2195 94.8888 98.2275 93.3097 98.1955 91.728C98.1849 91.143 98.5661 91.2637 98.8914 91.2742C99.1954 91.282 99.6193 91.101 99.5926 91.7096C99.558 92.5306 99.5846 93.3543 99.5846 94.1779Z" fill="var(--fill-0, #2B2B2B)"/>
<path id="Vector_25" d="M167.45 94.0873C167.45 94.8873 167.426 95.6874 167.458 96.4874C167.479 96.9701 167.175 96.9412 166.877 96.9071C166.583 96.8704 166.111 97.1222 166.111 96.5189C166.109 94.8952 166.109 93.2741 166.111 91.6504C166.111 91.034 166.594 91.3199 166.879 91.2753C167.175 91.2334 167.482 91.2045 167.46 91.6898C167.426 92.4846 167.45 93.2873 167.45 94.0873Z" fill="var(--fill-0, #2B2B2B)"/>
<path id="Vector_26" d="M13.2728 94.0638C13.2728 94.8664 13.2488 95.6665 13.2808 96.4691C13.3022 97.0069 12.9449 96.9203 12.6329 96.9072C12.321 96.8915 11.8971 97.0698 11.9024 96.4744C11.9184 94.8717 11.9104 93.269 11.9051 91.6636C11.9024 91.0472 12.3716 91.3017 12.6623 91.2754C12.9342 91.2518 13.2915 91.1469 13.2755 91.6584C13.2542 92.4584 13.2728 93.2637 13.2728 94.0638Z" fill="var(--fill-0, #2B2B2B)"/>
<path id="Vector_27" d="M12.6404 88.1224C13.1337 88.1381 13.5256 88.5421 13.5043 89.0142C13.4803 89.4943 13.067 89.8589 12.5684 89.8195C12.0432 89.7776 11.7712 89.4707 11.7473 88.9749C11.7206 88.4975 12.1579 88.1093 12.6404 88.1224Z" fill="var(--fill-0, #2B2B2B)"/>
<path id="Vector_28" d="M166.789 89.8297C166.293 89.8323 165.885 89.4494 165.911 88.9693C165.946 88.4342 166.255 88.1247 166.805 88.1299C167.327 88.1378 167.604 88.4657 167.644 88.9536C167.684 89.4389 167.285 89.8271 166.789 89.8297Z" fill="var(--fill-0, #2B2B2B)"/>
<path id="Vector_29" d="M98.9241 88.1123C99.444 88.1831 99.7559 88.4376 99.7399 89.0015C99.7266 89.5734 99.396 89.8252 98.8521 89.8042C98.3322 89.7832 98.0469 89.4789 98.0469 88.9727C98.0469 88.4245 98.3722 88.1569 98.9241 88.1123Z" fill="var(--fill-0, #2B2B2B)"/>
<path id="Vector_30" d="M30.0879 88.1221C30.6824 88.1273 31.0637 88.5155 31.0317 89.0113C30.997 89.528 30.7064 89.8035 30.1732 89.8061C29.6399 89.8087 29.288 89.4546 29.3227 88.9378C29.3573 88.4185 29.6666 88.1614 30.0879 88.1221Z" fill="var(--fill-0, #2B2B2B)"/>
<g id="Group 1000002503">
<path id="Vector_31" d="M85.391 15.09C85.431 12.2309 87.8013 9.92255 90.6648 9.9514C93.6083 9.98026 95.9679 12.362 95.9199 15.2579C95.8746 18.0751 93.427 20.4228 90.5955 20.3624C87.66 20.2995 85.3483 17.9623 85.391 15.09Z" fill="var(--fill-0, #FBAA1A)"/>
<path id="Vector_32" d="M75.5499 37.2963C76.0431 37.4301 76.2937 37.7396 76.4351 38.2354C76.7257 39.2479 77.1203 40.2473 77.7575 41.0919C78.3387 41.8631 78.4987 42.629 78.1761 43.513C78.1361 43.6599 78.0241 43.7412 77.8908 43.7832C76.811 44.1032 76.2831 44.856 76.1284 45.9158C76.1098 46.0522 76.0751 46.1833 75.9951 46.2987C75.6459 46.6555 75.1713 46.7814 74.726 46.9624C73.8808 47.1801 73.0276 47.2273 72.1691 47.0778C71.8332 47.0201 71.4679 46.9833 71.2466 46.6633C70.964 46.4928 70.6787 46.3197 70.3961 46.1492C70.3774 45.8712 70.5747 45.6902 70.7107 45.4829C71.2493 44.6724 71.2226 43.8514 70.732 43.0435C70.2601 42.267 69.5189 41.9654 68.6284 41.9654C68.4044 41.9654 68.1671 42.0598 67.9805 41.8526C68.0205 41.4303 68.0605 41.0027 68.1005 40.5778C68.0951 40.4807 68.1138 40.381 68.1911 40.3286C68.9216 39.8381 69.0016 38.9803 69.3802 38.2904C69.7988 38.0071 70.1161 37.5796 70.6254 37.4222C70.9 37.3697 71.0466 37.5717 71.2173 37.7186C72.4971 38.8046 73.8355 38.76 75.0566 37.5979C75.1926 37.4668 75.2833 37.2386 75.5499 37.2963Z" fill="var(--fill-0, #95C93E)"/>
<path id="Vector_33" d="M101.29 14.6071C98.7761 14.6071 96.8111 12.6738 96.8164 10.2055C96.8217 7.80538 98.8241 5.83544 101.272 5.82233C103.727 5.80921 105.756 7.8185 105.748 10.2553C105.74 12.6712 103.757 14.6071 101.29 14.6071Z" fill="var(--fill-0, #FBD705)"/>
<path id="Vector_34" d="M83.4983 51.9181C83.4236 54.5831 82.0399 56.2645 79.6003 56.6633C77.15 57.0593 74.6491 55.0632 74.5371 52.6158C74.5238 52.3404 74.5265 52.0676 74.5211 51.7922C74.3558 50.9895 74.7798 50.3626 75.1584 49.7252C75.3343 49.4314 75.5743 49.1848 75.8223 48.9461C76.2595 48.5894 76.7074 48.251 77.2673 48.0936C78.1872 48.4084 79.083 48.1697 79.9816 47.9756C80.3468 48.1015 80.7148 48.23 81.08 48.3559C82.1972 48.5632 82.7118 49.4314 83.173 50.2996C83.4263 50.7823 83.7703 51.3069 83.4983 51.9181Z" fill="var(--fill-0, #FBD705)"/>
<path id="Vector_35" d="M70.188 35.7788C67.0712 36.3139 65.2182 34.643 64.5276 33.0324C63.7944 31.3274 63.9437 29.6539 65.0822 28.1613C66.1434 26.7711 67.5884 26.0996 69.3881 26.2648C69.5721 26.4957 69.4548 26.7475 69.4308 26.9888C69.2122 29.1266 70.9372 30.5667 73.0569 30.0158C73.2968 29.9529 73.5288 29.806 73.7954 29.9031C74.0674 30.9969 73.9127 32.0487 73.5075 33.0849C73.3395 33.2344 73.1235 33.216 72.9182 33.2422C71.6678 33.3944 70.8626 34.0738 70.4573 35.2384C70.3933 35.4325 70.372 35.6476 70.188 35.7788Z" fill="var(--fill-0, #623493)"/>
<path id="Vector_36" d="M107.703 38.9693C106.989 37.9804 106.639 36.8892 106.757 35.6694C106.661 34.392 107.954 32.6398 109.108 32.4824C109.655 32.3093 110.196 32.1099 110.78 32.0784C110.873 32.0076 110.975 31.9551 111.092 31.9368C112.793 31.6797 114.974 33.4005 115.081 35.0819C115.625 37.4925 114.654 39.2998 112.297 40.2703C112.233 40.3359 112.177 40.412 112.092 40.4539C110.783 41.073 108.367 40.2572 107.703 38.9693Z" fill="var(--fill-0, #0063A6)"/>
<path id="Vector_37" d="M100.004 47.1355C100.98 48.0876 101.484 49.2313 101.452 50.5953C101.636 51.5265 101.319 52.2741 100.599 52.8748C99.5802 54.0263 98.3218 54.627 96.746 54.4827C96.1408 54.6637 95.6076 54.4408 95.101 54.1627C94.0745 53.6014 93.3199 52.8066 92.9893 51.6708C92.9227 51.4347 92.808 51.196 92.984 50.9547C92.7894 48.6542 93.7172 47.2325 96.0475 46.2646C96.2554 46.178 96.4874 46.1649 96.682 46.0469C97.8685 45.7793 99.4682 46.3039 100.004 47.1355Z" fill="var(--fill-0, #0063A6)"/>
<path id="Vector_38" d="M92.9994 50.9538C93.4154 52.9946 94.6818 54.1619 96.7641 54.4819C96.5029 54.8334 96.6815 55.2373 96.6175 55.6151C96.2976 57.5273 94.9751 58.8625 93.0634 59.1798C91.3197 59.4684 89.5494 58.5451 88.6802 56.8899C88.6268 56.7876 88.5735 56.6879 88.5202 56.583C87.7203 55.4892 88.0536 53.2989 89.1361 52.5172C90.1626 51.3762 91.4664 50.8961 92.9994 50.9538Z" fill="var(--fill-0, #00A0DD)"/>
<path id="Vector_39" d="M81.0373 18.185C78.9764 18.1902 77.358 16.6006 77.3633 14.5756C77.3686 12.5873 78.971 11.0108 81 11.003C83.0663 10.9951 84.6874 12.5873 84.6767 14.6071C84.6661 16.6033 83.061 18.1797 81.0373 18.185Z" fill="var(--fill-0, #C8235D)"/>
<path id="Vector_40" d="M79.973 22.417C79.8397 23.2302 79.6584 24.0224 79.0879 24.6729C77.8801 26.0448 76.3816 26.3045 74.6806 25.8035C74.0647 25.4677 73.5848 24.93 72.9289 24.6545C72.7662 24.3162 72.553 23.9961 72.5156 23.6106C73.1875 22.5875 73.1129 21.4727 72.9262 20.3448C73.5128 19.4346 74.3873 18.9257 75.4058 18.6162C75.4351 18.6136 75.4671 18.6083 75.4965 18.6031C76.9176 18.4982 78.1547 18.8654 79.1012 19.9723C79.3198 20.1559 79.1758 20.392 79.1918 20.6045C79.2265 21.0452 79.3651 21.4386 79.6424 21.7875C79.7944 21.9737 80.0344 22.1206 79.973 22.417Z" fill="var(--fill-0, #E04C9B)"/>
<path id="Vector_41" d="M109.108 32.4808C107.831 33.1917 107.052 34.2592 106.756 35.6678C105.85 36.0167 104.933 36.182 103.957 35.9721C103.578 35.8882 103.421 35.7833 103.458 35.3452C103.647 33.1444 103.349 31.0014 102.469 28.9606C102.298 28.5619 102.413 28.3993 102.749 28.2078C105.554 26.6077 109.1 28.6012 109.119 31.7935C109.119 32.0244 109.111 32.2526 109.108 32.4808Z" fill="var(--fill-0, #95C93E)"/>
<path id="Vector_42" d="M83.5015 51.9171C83.2642 50.3564 82.4724 49.1603 81.0833 48.3576C81.0699 47.4815 81.1606 46.629 81.5845 45.8316C81.7685 45.4827 81.9231 45.4486 82.2644 45.6637C84.5147 47.0644 86.9836 47.7805 89.6472 47.77C90.2017 47.7674 90.2551 47.9851 90.1911 48.4205C89.9938 49.7845 89.3112 50.8548 88.1967 51.6679C88.1008 51.967 87.8315 52.0745 87.5808 52.1768C86.5543 52.6044 85.5092 52.7145 84.4454 52.3001C84.1281 52.1742 83.8135 52.0456 83.5015 51.9171Z" fill="var(--fill-0, #00A0DD)"/>
<path id="Vector_43" d="M105.025 22.344C105.081 22.7138 105.137 23.0837 105.19 23.4535C105.182 23.6503 105.009 23.6949 104.878 23.7788C103.932 24.3769 103.735 24.9802 104.14 26.0294C104.193 26.1711 104.319 26.3048 104.199 26.4701C104.007 26.6668 103.825 26.8793 103.617 27.0603C103.212 27.4092 102.764 27.7974 102.239 27.8236C101.618 27.8577 101.612 27.1521 101.354 26.777C100.159 25.0431 98.7141 23.569 96.8798 22.5066C96.3545 22.2023 96.3359 21.9453 96.6212 21.4862C96.8771 21.0692 97.1971 20.7098 97.5277 20.3583C97.7836 20.3058 97.9649 20.4685 98.1702 20.5681C99.3887 21.1767 100.674 20.8934 101.522 19.8311C101.66 19.6553 101.748 19.4245 102.012 19.3799C102.263 19.4769 102.514 19.5714 102.767 19.6684C102.964 19.7471 102.996 19.9386 103.055 20.1039C103.337 20.9065 103.847 21.5203 104.617 21.9164C104.798 22.0161 105.001 22.1 105.025 22.344Z" fill="var(--fill-0, #00A0DD)"/>
<path id="Vector_44" d="M103.247 50.0258C103.298 49.732 103.333 49.4382 103.399 49.147C103.73 47.6912 105.018 46.5554 106.519 46.3849C108.164 46.1987 109.638 46.9699 110.345 48.3549C110.537 48.7273 110.521 49.0054 110.249 49.349C109.188 50.692 108.025 51.9327 106.756 53.0895C106.338 53.4699 105.964 53.5774 105.474 53.3335C104.863 53.3545 104.474 52.961 104.143 52.557C103.541 51.8331 103.015 51.0514 103.247 50.0258Z" fill="var(--fill-0, #FBAA1A)"/>
<path id="Vector_45" d="M105.024 22.3431C103.797 21.8421 103.022 20.9712 102.766 19.6754C102.814 19.198 102.742 18.718 102.894 18.2432C103.44 16.5303 105.219 15.5545 106.989 16.0136C108.679 16.449 109.727 18.1802 109.362 19.9272C109.013 21.6008 107.296 22.7156 105.499 22.4375C105.341 22.4113 105.184 22.3746 105.024 22.3431Z" fill="var(--fill-0, #E04C9B)"/>
<path id="Vector_46" d="M107.712 38.9697C108.994 40.2498 110.503 40.7534 112.303 40.2708C112.471 40.5751 112.679 40.861 112.727 41.2177C112.338 41.3541 111.948 41.1889 111.554 41.223C110.671 41.299 110.053 41.863 109.997 42.6866C109.925 43.6939 110.405 44.3628 111.325 44.5648C111.53 44.6094 111.81 44.5228 111.898 44.8297C110.346 46.4665 107.706 46.359 106.309 44.5989C106.139 44.3838 105.984 44.1608 105.821 43.9431C105.499 43.7962 105.517 43.4814 105.454 43.2086C105.403 42.9857 105.608 42.7811 105.499 42.5555C105.494 40.9161 106.232 39.7226 107.712 38.9697Z" fill="var(--fill-0, #95C93E)"/>
<path id="Vector_47" d="M73.0204 24.6348C73.7456 24.787 74.2389 25.2591 74.6815 25.8021C75.4974 27.4809 75.2441 28.6508 73.7963 29.9046C72.5778 30.5105 71.378 30.5499 70.2822 29.6738C69.1544 28.7688 68.9971 27.5779 69.389 26.2664C69.7996 25.524 70.3702 24.9522 71.1754 24.6296C71.826 24.2046 72.4392 24.2046 73.0204 24.6348Z" fill="var(--fill-0, #E45626)"/>
<path id="Vector_48" d="M115.089 35.0812C114.447 32.9801 112.565 32.0017 110.789 32.0778C110.349 30.7321 110.346 29.4075 110.999 28.1169C111.258 26.9759 112.908 25.7509 113.986 25.8978C114.69 27.6788 115.049 29.5386 115.26 31.4325C115.335 32.0909 115.375 32.7545 115.396 33.4182C115.417 33.9874 115.497 34.5828 115.089 35.0812Z" fill="var(--fill-0, #00A0DD)"/>
<path id="Vector_49" d="M75.9488 49.0225C75.1836 49.8016 74.7116 50.7275 74.5197 51.7951C73.3225 52.3906 72.1361 52.4325 71.0403 51.6036C70.0511 50.8561 69.6831 49.8304 69.9071 48.6159C70.0618 47.7792 70.579 47.1759 71.2322 46.667C72.3894 47.0342 73.5625 47.0578 74.7463 46.8113C75.5755 47.1601 76.1247 48.1648 75.9488 49.0225Z" fill="var(--fill-0, #E45626)"/>
<path id="Vector_50" d="M70.1992 35.7782C70.5352 33.8922 71.5697 33.0528 73.5187 33.0869C75.6517 33.8004 76.2836 35.1172 75.5477 37.297C74.6972 38.3646 73.66 38.9312 72.2362 38.5534C71.5483 38.3698 71.1191 37.8531 70.6205 37.4255C70.4365 36.8878 70.1966 36.3632 70.1992 35.7782Z" fill="var(--fill-0, #00A950)"/>
<path id="Vector_51" d="M82.918 2.75964C82.9206 1.19103 84.1604 -0.0155863 85.7575 0.000152212C87.3439 0.0132677 88.5464 1.23563 88.5357 2.81997C88.525 4.35186 87.3012 5.53749 85.7308 5.54274C84.1311 5.54274 82.9153 4.34136 82.918 2.75964Z" fill="var(--fill-0, #E04C9B)"/>
<path id="Vector_52" d="M72.9268 20.3427C73.5134 21.523 73.3828 22.6274 72.5749 23.6635C72.3136 24.2773 71.7644 24.4189 71.1698 24.4898C69.834 24.6393 68.7115 24.3009 68.0183 23.0785C67.3278 21.8588 67.6877 20.34 68.8369 19.5242C69.978 18.7111 71.5697 18.8554 72.5322 19.8652C72.6762 20.0121 72.7962 20.1826 72.9268 20.3427Z" fill="var(--fill-0, #95C93E)"/>
<path id="Vector_53" d="M102.011 19.3894C100.961 21.2386 99.4142 21.5744 97.5265 20.3651C96.5426 19.0588 96.4493 17.7552 97.2679 16.7217C98.0304 15.7564 99.3902 15.4101 100.531 15.8849C101.643 16.3492 102.318 17.5243 102.152 18.7205C102.126 18.946 102.059 19.1664 102.011 19.3894Z" fill="var(--fill-0, #E45626)"/>
<path id="Vector_54" d="M77.1723 7.3763C77.199 5.92049 78.3881 4.80568 79.8839 4.83453C81.3236 4.86339 82.4621 6.03328 82.4408 7.46287C82.4195 8.91343 81.2117 10.044 79.7266 9.99939C78.2655 9.95742 77.1457 8.80589 77.1723 7.3763Z" fill="var(--fill-0, #E45626)"/>
<path id="Vector_55" d="M84.4503 52.304C85.7727 52.5086 87.0418 52.4037 88.2016 51.6719C88.5109 51.9552 88.8202 52.2385 89.1295 52.5191C88.2603 53.7782 88.015 55.1291 88.5136 56.5849C87.3804 57.3141 86.1993 57.4059 85.0555 56.6741C83.981 55.9869 83.5944 54.9507 83.7784 53.71C83.8584 53.1749 84.109 52.7159 84.4503 52.304Z" fill="var(--fill-0, #E45626)"/>
<path id="Vector_56" d="M113.982 25.897C112.664 26.217 111.683 26.9777 110.995 28.1161C109.452 27.6912 108.577 26.6577 108.566 25.2517C108.558 23.8982 109.412 22.786 110.747 22.4109C111.958 22.0725 112.48 22.2929 112.998 23.4156C113.368 24.2235 113.763 25.0261 113.982 25.897Z" fill="var(--fill-0, #E45626)"/>
<path id="Vector_57" d="M79.9826 47.9831C79.1108 48.5444 78.1936 48.5995 77.2418 48.2034C76.3806 47.9778 75.81 47.1332 75.93 46.2623C76.0233 44.6439 76.5139 44.0406 78.1669 43.516C80.3852 43.4871 81.3317 45.3705 80.8091 46.821C80.6438 47.2853 80.3426 47.6552 79.9826 47.9831Z" fill="var(--fill-0, #E04C9B)"/>
<path id="Vector_58" d="M69.3729 38.2928C69.3275 39.2607 68.9063 40.024 68.0931 40.5801C66.2801 41.1677 64.8909 40.5985 64.435 39.0824C64.0458 37.7839 64.7923 36.4514 66.1281 36.0579C67.4452 35.6697 68.8316 36.4042 69.2209 37.6921C69.2822 37.8915 69.3222 38.0935 69.3729 38.2928Z" fill="var(--fill-0, #E04C9B)"/>
<path id="Vector_59" d="M105.591 43.2122C105.666 43.4562 105.738 43.7001 105.81 43.9441C105.863 45.0615 105.487 45.9796 104.431 46.4885C103.389 46.9921 102.41 46.7796 101.533 46.053C101.045 45.9822 100.96 45.5546 100.816 45.2163C100.331 44.0831 100.896 42.5906 101.992 42.024C102.16 41.9374 102.328 41.864 102.519 41.9505C103.647 41.6777 104.604 41.9243 105.34 42.845C105.511 42.9079 105.49 43.1021 105.591 43.2122Z" fill="var(--fill-0, #E45626)"/>
<path id="Vector_60" d="M67.9718 41.8564C69.8302 41.6204 70.974 42.3181 71.254 43.8762C71.4193 44.7943 71.0273 45.5235 70.3874 46.1557C68.5398 47.3938 66.6974 46.2554 66.3508 44.7786C66.0762 43.6113 66.6147 42.6119 67.9718 41.8564Z" fill="var(--fill-0, #00A0DD)"/>
<path id="Vector_61" d="M75.4993 18.6025C75.4673 18.6052 75.438 18.6078 75.4086 18.6156C73.7929 18.6996 72.865 18.1514 72.5531 16.9342C72.2598 15.788 72.8784 14.6181 73.9822 14.222C75.1047 13.8206 76.3525 14.3085 76.8777 15.3525C77.403 16.3991 77.043 17.674 76.0405 18.3009C75.8672 18.411 75.6806 18.5029 75.4993 18.6025Z" fill="var(--fill-0, #FBD705)"/>
<path id="Vector_62" d="M79.9834 22.4165C79.2315 21.7608 78.8849 20.966 79.1115 19.9718C79.6794 18.697 80.6553 18.1645 81.8791 18.4662C82.8629 18.7075 83.5428 19.6361 83.5001 20.6827C83.4415 22.1306 81.9724 23.1195 80.5619 22.6526C80.3673 22.587 80.178 22.4952 79.9834 22.4165Z" fill="var(--fill-0, #FBD705)"/>
<path id="Vector_63" d="M103.25 50.0244C103.421 51.4986 104.082 52.6527 105.471 53.3348C104.973 54.426 104.136 55.0293 102.901 54.9296C101.624 54.8273 100.933 54.0325 100.605 52.8705C101.075 52.178 101.368 51.4199 101.461 50.591C102.005 50.2421 102.592 50.027 103.25 50.0244Z" fill="var(--fill-0, #E04C9B)"/>
<path id="Vector_64" d="M102.527 41.9455C100.695 42.7849 100.29 44.4768 101.54 46.048C101.074 46.4677 100.612 46.8979 100.007 47.134C99.0127 46.4048 97.9062 46.0375 96.6558 46.1424C96.5118 46.1949 96.4825 46.1241 96.5011 46.0034C97.6156 45.3293 98.6581 44.566 99.5753 43.6426C100.471 42.7377 101.204 41.712 101.866 40.6104C102.231 41.03 102.345 41.5022 102.527 41.9455Z" fill="var(--fill-0, #FBD706)"/>
<path id="Vector_65" d="M75.3262 4.16791C74.2277 4.17316 73.3772 3.35738 73.3558 2.27667C73.3345 1.18809 74.2304 0.301481 75.3342 0.314597C76.4167 0.327712 77.2672 1.18284 77.2645 2.25044C77.2645 3.33115 76.4247 4.16267 75.3262 4.16791Z" fill="var(--fill-0, #00A950)"/>
<path id="Vector_66" d="M111.896 44.828C110.979 44.8516 110.262 44.5159 109.905 43.6476C109.593 42.8896 109.702 42.1761 110.296 41.5728C111.011 40.8488 111.846 40.8777 112.725 41.216C113.851 42.2522 113.941 43.5296 112.955 44.3742C112.648 44.6392 112.285 44.7598 111.896 44.828Z" fill="var(--fill-0, #E04C9B)"/>
<path id="Vector_67" d="M104.195 26.4684C103.337 25.1228 103.683 24.0657 105.185 23.4493C106.39 23.444 107.19 24.029 107.291 24.9916C107.371 25.7418 107.107 26.3478 106.443 26.7386C105.635 27.2186 104.891 27.0035 104.195 26.4684Z" fill="var(--fill-0, #FBD706)"/>
<path id="Vector_68" d="M105.601 43.2092C105.518 43.0859 105.433 42.9626 105.348 42.8393C105.398 42.7423 105.449 42.6478 105.497 42.5508C105.662 42.7528 105.596 42.9862 105.601 43.2092Z" fill="var(--fill-0, #DBCC94)"/>
<path id="Vector_69" d="M96.4975 46.0059C96.5508 46.0531 96.6015 46.0977 96.6521 46.1449C96.4655 46.2577 96.2602 46.276 96.0469 46.2655C96.1615 46.116 96.3268 46.0557 96.4975 46.0059Z" fill="var(--fill-0, #DFC75F)"/>
</g>
<path id="Vector_70" d="M35.8767 39.1348C34.9248 36.4042 33.0345 34.5155 30.2883 33.4584C29.2271 33.0492 28.1206 32.842 27.0008 32.6217C27.0861 32.3882 27.2941 32.362 27.4461 32.2754C29.4751 31.1265 30.8428 29.453 31.5654 27.2706C32.3706 24.8416 32.3972 22.3523 31.9733 19.863C31.3014 15.9205 29.1418 13.1216 25.2758 11.6816C22.9295 10.8081 20.4819 10.5536 18.0103 10.5405C12.2539 10.5117 6.49491 10.5379 0.735877 10.5195C0.157307 10.5195 0 10.669 0 11.2435C0.0159973 26.5623 0.0159973 41.8838 0 57.2053C0 57.7719 0.143976 57.9345 0.730544 57.9319C7.09481 57.9109 13.4591 57.9424 19.8233 57.9083C22.7482 57.8899 25.6144 57.465 28.3766 56.4498C32.3146 55.0019 35.2101 52.5414 36.2873 48.4153C37.1005 45.3017 36.9351 42.175 35.8767 39.1348ZM13.2298 19.9941C14.8162 20.0125 16.3893 20.0754 17.9223 20.545C19.65 21.0748 20.5539 22.1634 20.6579 23.9445C20.6899 24.4901 20.6925 25.0488 20.6152 25.5892C20.3806 27.268 19.2954 28.1887 17.7117 28.6477C16.5866 28.9703 15.4347 29.1015 14.2669 29.1172C12.5792 29.1435 12.5792 29.1435 12.5792 27.5119C12.5792 25.2193 12.5979 22.9267 12.5659 20.6342C12.5552 20.1069 12.7179 19.9863 13.2298 19.9941ZM21.9217 47.2428C20.0553 48.3156 18.0263 48.3733 15.984 48.4651C15.0295 48.5071 14.0723 48.452 13.1178 48.4809C12.6912 48.494 12.5606 48.3786 12.5686 47.9484C12.5979 46.4349 12.5792 44.9213 12.5792 43.4078C12.5792 41.9179 12.5952 40.4254 12.5712 38.9354C12.5632 38.4869 12.6459 38.2902 13.1711 38.298C15.0108 38.3348 16.8612 38.201 18.6849 38.4423C20.3086 38.6574 21.8977 38.9591 23.0895 40.3388C24.8385 42.3665 24.2519 45.905 21.9217 47.2428Z" fill="var(--fill-0, #1E386C)"/>
<path id="Vector_71" d="M111.194 69.3617C109.448 66.0094 105.294 64.3385 101.19 65.1857C95.8339 66.2901 93.3943 71.1664 94.6261 76.0375C95.6046 79.896 98.9214 82.2227 103.275 82.2227C111.239 82.2463 113.967 74.6839 111.194 69.3617ZM103.254 79.3084C100.033 79.3006 97.7269 76.9293 97.7349 73.6321C97.7429 70.2745 100.023 67.9531 103.305 67.9636C106.568 67.9741 108.837 70.3244 108.829 73.6845C108.821 76.9555 106.477 79.3189 103.254 79.3084Z" fill="var(--fill-0, #2B2B2B)"/>
<path id="Vector_72" d="M55.1091 71.8501C54.4319 68.0781 51.6297 65.4969 47.385 65.0641C40.7888 64.39 36.4402 69.2873 37.536 75.3624C38.3066 79.6328 41.6873 82.2218 46.2652 82.2218C52.2989 82.2244 56.1596 77.6969 55.1091 71.8501ZM50.5445 77.4635C48.7555 79.5672 45.2387 79.9344 42.9431 78.232C41.3914 77.0779 40.7808 75.4778 40.7808 73.18C40.8448 71.273 41.7247 69.3739 44.0016 68.4322C46.1586 67.5351 48.2649 67.7685 50.0699 69.3319C52.2989 71.2625 52.4988 75.1657 50.5445 77.4635Z" fill="var(--fill-0, #2B2B2B)"/>
<path id="Vector_73" d="M71.5752 73.0388C72.6017 72.0866 72.855 71.7482 73.0763 71.0348C73.8442 68.5533 72.3484 66.0561 69.7569 65.5578C67.8905 65.1984 65.9922 65.4738 64.1125 65.3768C63.5472 65.3453 63.4192 65.5368 63.4219 66.0666C63.4432 69.6655 63.4326 73.2618 63.4326 76.8606C63.4326 78.3479 63.4352 79.8379 63.4326 81.3278C63.4326 81.6373 63.4006 81.9206 63.8778 81.9075C66.0641 81.855 68.2584 82.0255 70.4394 81.7789C71.7272 81.6347 72.8737 81.1337 73.7189 80.1369C75.8358 77.6371 74.7694 74.1326 71.5752 73.0388ZM66.7094 70.0878C66.7094 69.7442 66.7094 69.4032 66.7094 69.0596C66.7094 67.9867 66.7094 67.9867 67.8372 68.0235C69.3009 68.0733 70.1355 68.8419 70.1248 70.135C70.1168 71.2315 69.5142 71.9397 68.4157 72.1391C66.7867 72.4381 66.7094 72.3752 66.7094 70.7751C66.7094 70.5469 66.7094 70.316 66.7094 70.0878ZM69.7675 79.0247C68.8583 79.3054 67.9225 79.1637 66.9973 79.19C66.6694 79.2004 66.712 78.9644 66.7094 78.765C66.7067 78.1486 66.7094 77.5295 66.7094 76.9131C66.7094 76.3177 66.7094 75.7222 66.7094 75.1294C66.7094 74.9169 66.6934 74.7071 67.0133 74.7123C67.9412 74.7307 68.877 74.6389 69.7809 74.9117C70.8047 75.2212 71.3486 75.9426 71.3459 76.9262C71.3433 77.9414 70.762 78.7204 69.7675 79.0247Z" fill="var(--fill-0, #2B2B2B)"/>
<path id="Vector_74" d="M25.6783 74.9884C26.1662 74.7996 26.6328 74.6632 27.054 74.4402C28.8137 73.5248 29.6536 71.6283 29.3257 69.3855C29.051 67.5074 27.6113 65.9808 25.5903 65.5847C23.3773 65.1519 21.127 65.4614 18.8954 65.3879C18.5221 65.3748 18.5835 65.6476 18.5835 65.868C18.5808 71.0486 18.5835 76.2344 18.5781 81.415C18.5781 81.7534 18.6554 81.916 19.042 81.9082C19.8339 81.8845 20.6258 81.8872 21.4176 81.9055C21.7803 81.916 21.9136 81.798 21.9029 81.436C21.8816 80.7251 21.8976 80.0143 21.8976 79.3034C21.8976 78.1335 21.8922 76.9636 21.9029 75.7937C21.9056 75.6101 21.7749 75.3399 22.0655 75.2665C22.2868 75.2062 22.3775 75.4239 22.4788 75.5681C22.6361 75.7964 22.7854 76.0298 22.9401 76.258C24.1105 77.9971 25.2783 79.7362 26.4568 81.4701C26.5795 81.6485 26.6514 81.9003 26.9501 81.9003C28.1978 81.895 29.4456 81.8977 30.8667 81.8977C29.0777 79.5185 27.3873 77.2627 25.6783 74.9884ZM24.1772 72.7614C23.4626 72.9582 22.6201 73.2126 22.0202 72.8349C21.6309 72.5857 21.9402 71.7647 21.9002 71.2007C21.8816 70.9489 21.8976 70.6971 21.8976 70.4453C21.8976 69.7816 21.9109 69.118 21.8922 68.4543C21.8842 68.1343 21.9802 68.0032 22.3242 68.0163C22.9027 68.0399 23.484 68.0058 24.0572 68.1474C25.3023 68.4543 25.9716 69.2203 25.9955 70.4085C26.0195 71.6125 25.4143 72.4204 24.1772 72.7614Z" fill="var(--fill-0, #2B2B2B)"/>
<path id="Vector_75" d="M6.73202 65.4982C4.72436 65.2018 2.6847 65.451 0.661041 65.3749C0.106467 65.3539 0.0131492 65.5533 0.0158154 66.0412C0.0371452 68.5646 0.0264803 71.0853 0.0264803 73.6088C0.0264803 76.1532 0.0371452 78.7002 0.0158154 81.2446C0.010483 81.7351 0.114466 81.9528 0.666373 81.9161C1.33826 81.8689 2.02081 81.8662 2.6927 81.9161C3.25261 81.9581 3.34326 81.7351 3.33526 81.2472C3.30593 79.5946 3.33526 77.9447 3.31659 76.2948C3.31126 75.883 3.42058 75.7177 3.86317 75.7413C4.51373 75.7754 5.16962 75.7571 5.82018 75.7492C8.98231 75.7099 10.8593 73.9445 11.0433 70.8493C11.2059 68.0845 9.51556 65.9048 6.73202 65.4982ZM5.84151 72.8638C5.12696 73.0422 4.40708 72.9477 3.6872 72.9792C3.34859 72.995 3.31926 72.8061 3.32193 72.5464C3.32993 71.8854 3.32459 71.2191 3.32459 70.5555C3.32459 69.8918 3.33526 69.2282 3.31926 68.5646C3.31393 68.276 3.40191 68.1501 3.71386 68.158C4.40975 68.1763 5.1083 68.1344 5.79885 68.2944C6.93732 68.5567 7.6412 69.4092 7.6412 70.5581C7.6412 71.7096 6.94532 72.5858 5.84151 72.8638Z" fill="var(--fill-0, #2B2B2B)"/>
<path id="Vector_76" d="M122.758 95.8267C121.974 94.8745 121.956 94.8588 122.737 93.9381C123.262 93.3164 122.502 93.2351 122.324 92.9361C122.092 92.5531 121.908 92.9229 121.75 93.0803C121.063 93.7886 121.065 93.7912 120.417 93.0148C120.356 92.9439 120.297 92.8731 120.236 92.8023C119.575 92.018 119.575 92.018 120.287 91.3176C121.103 90.5123 121.249 89.4316 120.647 88.6499C120.007 87.8184 118.647 87.5797 117.668 88.1253C116.81 88.6027 116.45 89.7254 116.874 90.7091C117.031 91.0763 117.498 91.496 117.407 91.7478C117.287 92.0914 116.743 92.275 116.423 92.5715C115.597 93.3374 115.384 94.2843 115.706 95.3362C116.007 96.312 116.725 96.8366 117.727 97.0018C118.834 97.1855 119.796 96.8864 120.631 96.1572C120.801 96.0103 121.02 95.6903 121.225 96.0838C121.721 97.0386 122.564 96.9704 123.593 96.855C123.27 96.4589 123.017 96.1415 122.758 95.8267ZM118.847 88.9909C119.332 88.9909 119.689 89.2454 119.708 89.7831C119.721 90.1608 118.983 91.0212 118.727 90.8901C118.316 90.6776 118.063 90.2841 118.015 89.8093C118.015 89.248 118.356 88.9909 118.847 88.9909ZM120.065 94.864C119.676 95.3257 119.234 95.7349 118.604 95.8346C118.042 95.9211 117.54 95.7874 117.202 95.2942C117.045 95.066 116.959 94.8063 116.959 94.725C116.973 93.9407 117.69 93.0069 118.228 92.8311C118.442 92.7629 118.527 92.8757 118.631 93.0016C119.074 93.5263 119.519 94.0509 119.956 94.5834C120.017 94.662 120.161 94.746 120.065 94.864Z" fill="var(--fill-0, #2B2B2B)"/>
<path id="Vector_77" d="M5.40403 94.0451C5.31605 93.106 4.77214 92.5001 3.8043 92.1118C4.67882 91.3879 4.74548 90.5196 4.47352 89.6173C4.19357 88.6887 3.47636 88.2166 2.51918 88.0854C2.19924 88.0408 1.87129 88.0119 1.54868 88.0093C0.0102707 87.9988 0.0102707 88.0015 0.0102707 89.4992C0.0102707 91.7682 0.0102707 94.0372 0.0129369 96.3088C0.0129369 96.5921 -0.0697159 96.9278 0.428867 96.9147C1.38071 96.8859 2.34055 96.9672 3.28706 96.7914C4.77747 96.5108 5.54268 95.5245 5.40403 94.0451ZM1.69266 89.355C2.22857 89.2684 2.79114 89.2999 3.11642 89.8455C3.4177 90.3491 3.35904 90.8764 3.0311 91.338C2.71915 91.7735 2.2179 91.8259 1.71132 91.8154C1.45003 91.8102 1.41803 91.6423 1.41537 91.4429C1.4127 91.1465 1.41537 90.8475 1.41537 90.5485H1.4127C1.4127 90.4357 1.38337 90.3098 1.41803 90.2075C1.51669 89.9189 1.14875 89.4442 1.69266 89.355ZM4.0016 94.5277C3.87362 95.1913 3.36971 95.4458 2.75381 95.5376C2.52452 95.5717 2.28722 95.5455 2.06059 95.5796C1.53002 95.6609 1.33805 95.4458 1.40737 94.9369C1.43936 94.7113 1.4127 94.4805 1.4127 94.2523C1.4127 94.1815 1.40204 94.1133 1.41537 94.0451C1.49536 93.6857 1.18874 93.1034 1.58867 92.9958C2.2179 92.8279 2.93778 92.8489 3.53235 93.2503C3.98294 93.5545 4.09759 94.0241 4.0016 94.5277Z" fill="var(--fill-0, #2B2B2B)"/>
<path id="Vector_78" d="M45.1223 91.8557C45.1249 91.6564 45.2582 91.318 44.917 91.2944C44.549 91.2708 44.0478 91.0688 43.8238 91.4229C43.6478 91.701 43.6132 91.6511 43.4079 91.5226C42.4347 90.914 41.4402 90.9718 40.5284 91.5961C39.4592 92.3279 39.1953 93.4191 39.3846 94.6362C39.5579 95.7353 40.1124 96.5616 41.2162 96.934C42.1228 97.2383 42.968 97.039 43.7838 96.3884C43.7625 96.8842 43.7811 97.2541 43.7198 97.6108C43.6238 98.18 43.2719 98.5708 42.6853 98.6889C42.1041 98.8069 41.4402 98.7518 41.2189 98.1852C40.8803 97.3144 40.2724 97.4639 39.6165 97.519C39.8458 99.064 40.803 99.9296 42.2641 99.9401C43.8638 99.9532 44.8583 99.1532 45.0396 97.5557C45.2582 95.6618 45.0903 93.7549 45.1223 91.8557ZM42.2854 95.8455C41.3816 95.8455 40.707 95.1084 40.6963 94.109C40.6857 93.0912 41.3896 92.3174 42.3147 92.3331C43.2106 92.3489 43.8745 93.1017 43.8691 94.0985C43.8665 95.0743 43.1626 95.8481 42.2854 95.8455Z" fill="var(--fill-0, #2B2B2B)"/>
<path id="Vector_79" d="M151.187 91.6061C151.195 91.2546 150.96 91.2966 150.726 91.2599C150.283 91.1891 149.894 91.5878 149.614 91.551C149.203 91.4986 148.809 91.1523 148.324 91.1287C146.567 91.0448 145.276 92.3904 145.385 94.2004C145.495 96.0182 146.713 97.1802 148.353 97.0517C148.899 97.0097 149.337 96.7343 149.795 96.43C149.795 96.8549 149.838 97.2274 149.785 97.5841C149.702 98.156 149.355 98.5521 148.771 98.6806C148.19 98.8091 147.532 98.7593 147.297 98.2006C146.95 97.3717 146.377 97.4084 145.663 97.5343C145.999 99.1711 146.942 99.9738 148.438 99.937C149.99 99.9029 150.936 99.1108 151.104 97.5133C151.315 95.5486 151.147 93.5734 151.187 91.6061ZM148.372 95.8424C147.465 95.8581 146.785 95.1394 146.753 94.1348C146.724 93.1301 147.43 92.3275 148.342 92.3301C149.246 92.3327 149.91 93.0619 149.923 94.0692C149.939 95.0476 149.254 95.8293 148.372 95.8424Z" fill="var(--fill-0, #2B2B2B)"/>
<path id="Vector_80" d="M27.5437 91.751C27.5437 91.57 27.6344 91.2553 27.3117 91.2894C26.9598 91.3261 26.4639 91.0035 26.2746 91.4887C26.1493 91.8114 26.1013 91.6828 25.928 91.5779C24.2696 90.5759 22.3872 91.3313 21.8806 93.1859C21.3181 95.2581 22.6965 97.1677 24.6668 97.0628C25.2481 97.0287 25.7173 96.7611 26.2079 96.3887C26.2906 96.9316 26.2399 97.3802 26.1093 97.8104C25.9493 98.3402 25.5547 98.6524 24.9948 98.7127C24.4002 98.7783 23.7897 98.6602 23.5897 98.0701C23.3604 97.3881 22.8885 97.4851 22.3872 97.4799C22.0913 97.4772 22.0433 97.5979 22.0859 97.855C22.2326 98.7311 23.0431 99.6124 23.9256 99.8301C25.952 100.334 27.477 99.24 27.533 97.1808C27.5784 95.3709 27.5464 93.561 27.5437 91.751ZM24.7655 95.8431C23.843 95.864 23.1871 95.1637 23.1684 94.1459C23.1471 93.0888 23.7923 92.3386 24.7228 92.336C25.6347 92.3307 26.2799 93.0442 26.2906 94.0646C26.2959 95.0771 25.656 95.8247 24.7655 95.8431Z" fill="var(--fill-0, #2B2B2B)"/>
<path id="Vector_81" d="M69.4823 96.2132C69.5036 95.5024 69.4903 94.7942 69.4903 94.0833C69.4903 93.3016 69.4769 92.5226 69.4956 91.7435C69.5036 91.4051 69.4316 91.2399 69.0397 91.2582C68.6184 91.2766 68.1945 91.2241 67.9145 91.6281C67.5199 91.3264 67.0827 91.1402 66.5708 91.1245C64.4405 91.0615 63.1127 93.1206 63.9019 95.2742C64.4805 96.8585 66.2162 97.5012 67.7146 96.6854C67.8799 96.5962 67.9545 96.4231 68.1625 96.7457C68.4078 97.1235 68.941 96.9267 69.3223 96.8664C69.6396 96.8192 69.4743 96.4415 69.4823 96.2132ZM66.6481 95.8434C65.7469 95.8513 65.0963 95.1247 65.0937 94.1017C65.091 93.0498 65.6936 92.3468 66.6108 92.3337C67.5493 92.318 68.2238 93.0603 68.2238 94.1043C68.2238 95.1011 67.5573 95.8381 66.6481 95.8434Z" fill="var(--fill-0, #2B2B2B)"/>
<path id="Vector_82" d="M58.7893 94.3894C59.3012 94.4183 59.8131 94.3973 60.325 94.3973C60.8609 94.3973 61.3968 94.3973 61.9327 94.3947C62.146 94.3947 62.3593 94.413 62.3593 94.0983C62.3567 92.7185 61.6661 91.226 59.9091 91.1342C57.9521 91.0319 56.5336 92.7736 56.9469 94.7908C57.1762 95.9082 57.7734 96.7397 58.9732 96.9784C60.173 97.2171 61.2422 96.9732 62.0447 95.9895C62.1407 95.8715 62.362 95.7587 62.202 95.5305C61.9221 95.1344 61.1835 95.0583 60.8369 95.3993C60.0451 96.1784 58.8479 95.958 58.424 94.9639C58.264 94.5757 58.272 94.3606 58.7893 94.3894ZM58.7679 92.6503C59.3438 92.0654 60.325 92.1493 60.7623 92.8182C60.8476 92.9494 60.9782 93.0936 60.8929 93.2563C60.8183 93.4005 60.645 93.3271 60.517 93.3297C60.237 93.3402 59.9597 93.3323 59.6798 93.3323C59.4718 93.3323 59.2612 93.3481 59.0532 93.3297C58.8586 93.3113 58.584 93.4425 58.4853 93.2248C58.376 92.9887 58.6133 92.8077 58.7679 92.6503Z" fill="var(--fill-0, #2B2B2B)"/>
<path id="Vector_83" d="M156.003 91.1407C154.243 90.9754 152.969 92.1296 152.825 94.0208C152.731 95.2458 153.443 96.4655 154.491 96.8695C155.693 97.3364 157.229 96.9561 157.97 95.9986C158.069 95.8701 158.328 95.7127 158.128 95.5475C157.869 95.3297 157.552 95.154 157.227 95.0386C156.981 94.952 156.92 95.2668 156.779 95.3979C155.96 96.177 154.659 95.9147 154.331 94.9022C154.227 94.5769 154.248 94.3697 154.68 94.3881C155.19 94.4064 155.704 94.3933 156.219 94.3933C156.752 94.3933 157.291 94.3933 157.826 94.3907C158.032 94.3881 158.232 94.4117 158.293 94.1153C158.562 92.8404 157.363 91.2692 156.003 91.1407ZM156.424 93.3362C155.757 93.3231 155.088 93.3309 154.352 93.3309C154.512 92.6385 154.918 92.3447 155.485 92.2738C155.973 92.2109 156.397 92.3788 156.68 92.8011C156.885 93.1054 156.955 93.3467 156.424 93.3362Z" fill="var(--fill-0, #2B2B2B)"/>
<path id="Vector_84" d="M108.387 91.1482C106.283 90.9121 104.723 92.7693 105.241 94.9254C105.494 95.9799 106.099 96.7642 107.24 96.9793C108.408 97.1997 109.467 96.9977 110.264 96.0376C110.373 95.9065 110.621 95.7307 110.466 95.5865C110.224 95.3556 109.904 95.1877 109.589 95.0487C109.32 94.9307 109.264 95.2455 109.131 95.374C108.291 96.1819 107.088 95.9642 106.678 94.9359C106.531 94.5687 106.555 94.3746 107.027 94.3903C107.539 94.4113 108.051 94.3956 108.563 94.3956C109.099 94.3929 109.635 94.3982 110.17 94.393C110.378 94.3903 110.568 94.4087 110.626 94.1044C110.869 92.8348 109.72 91.2977 108.387 91.1482ZM109.149 93.2204C109.104 93.4224 108.88 93.3201 108.733 93.3306C108.48 93.349 108.224 93.3358 107.971 93.3358C107.739 93.3358 107.507 93.3542 107.278 93.3306C107.091 93.3122 106.816 93.4591 106.736 93.1942C106.675 92.987 106.867 92.8191 107.008 92.6696C107.568 92.0794 108.555 92.1397 108.997 92.7955C109.083 92.9162 109.179 93.0945 109.149 93.2204Z" fill="var(--fill-0, #2B2B2B)"/>
<path id="Vector_85" d="M134.129 91.128C132.394 91.1411 131.114 92.3819 131.098 94.0711C131.082 95.7368 132.455 97.072 134.172 97.0641C135.916 97.0588 137.233 95.7604 137.227 94.0633C137.217 92.3504 135.916 91.1149 134.129 91.128ZM134.164 95.8443C133.18 95.8417 132.506 95.1492 132.492 94.121C132.476 93.0586 133.156 92.3373 134.169 92.3347C135.158 92.3294 135.814 93.0167 135.825 94.0606C135.838 95.144 135.182 95.847 134.164 95.8443Z" fill="var(--fill-0, #2B2B2B)"/>
</g>
</svg>
