<svg preserveAspectRatio="none" width="100%" height="100%" overflow="visible" style="display: block;" viewBox="0 0 591.553 329.563" fill="none" xmlns="http://www.w3.org/2000/svg">
<g id="Group">
<path id="Vector" d="M492.594 117.794C495.45 110.826 498.14 104.299 500.821 97.7545C509.136 77.4039 517.46 57.062 525.713 36.6854C526.32 35.1898 527.041 34.6625 528.702 34.6711C540.999 34.7489 553.304 34.7489 565.601 34.6625C567.306 34.6538 567.816 35.2071 568.045 36.7373C570.831 55.2551 573.653 73.7643 576.501 92.2735C579.498 111.751 582.539 131.22 585.545 150.697C587.54 163.604 589.483 176.529 591.505 189.436C591.689 190.603 591.364 190.88 590.248 190.88C577.406 190.854 564.573 190.854 551.731 190.888C550.492 190.888 550.246 190.395 550.114 189.306C548.321 175.137 546.466 160.985 544.647 146.824C542.757 132.145 540.876 117.457 538.986 102.777C538.924 102.345 538.757 101.913 538.529 101.04C537.703 102.924 537.017 104.454 536.367 105.993C524.659 133.614 512.942 161.218 501.287 188.857C500.619 190.447 499.792 190.975 498.078 190.914C494.158 190.776 490.229 190.733 486.318 190.923C484.323 191.018 483.558 190.214 482.881 188.545C471.463 160.233 460.001 131.955 448.54 103.668C448.232 102.907 447.88 102.163 447.291 100.798C446.632 105.12 446.052 108.82 445.507 112.538C442.923 129.94 440.348 147.351 437.79 164.754C436.629 172.604 435.452 180.445 434.406 188.303C434.16 190.153 433.694 190.949 431.514 190.931C419.366 190.802 407.219 190.836 395.072 190.906C393.252 190.923 392.795 190.646 393.147 188.666C396.68 168.739 400.064 148.795 403.501 128.851C406.788 109.728 410.102 90.605 413.398 71.482C415.341 60.1742 417.354 48.875 419.182 37.5413C419.533 35.3541 420.219 34.6193 422.592 34.6452C434.274 34.7835 445.964 34.7662 457.646 34.6625C459.702 34.6452 460.678 35.1553 461.443 37.1609C471.419 63.2605 481.51 89.3082 491.574 115.373C491.829 116.048 492.128 116.713 492.594 117.794Z" fill="var(--fill-0, white)"/>
<path id="Vector_2" d="M188.986 113.048C188.986 138.214 188.968 163.379 189.03 188.554C189.038 190.404 188.625 190.949 186.665 190.931C174.447 190.828 162.23 190.836 150.012 190.923C148.052 190.94 147.612 190.361 147.621 188.511C147.674 138.023 147.674 87.5359 147.612 37.0485C147.612 35.1466 148.14 34.6624 150.047 34.6711C162.265 34.7575 174.483 34.7662 186.7 34.6624C188.722 34.6452 189.03 35.2849 189.021 37.0744C188.959 62.4132 188.986 87.7261 188.986 113.048Z" fill="var(--fill-0, white)"/>
<path id="Vector_3" d="M558.889 254.075C561.122 258.13 564.374 260.456 568.707 261.242C573.92 262.185 578.429 259.211 578.886 254.586C579.176 251.698 577.857 249.649 575.519 248.102C573.717 246.917 571.661 246.278 569.648 245.534C567.775 244.851 565.868 244.246 564.066 243.442C557.096 240.338 554.204 235.584 554.802 228.374C555.347 221.864 559.882 216.564 566.642 214.93C574.007 213.141 580.784 214.42 586.788 219.201C587.992 220.161 588.264 220.982 587.095 222.106C586.656 222.529 586.339 223.065 585.961 223.541C584.924 224.855 584.142 226.791 582.797 227.31C581.4 227.855 580.565 225.555 579.202 224.829C576.433 223.377 573.603 222.789 570.553 223.688C567.855 224.483 566.176 226.428 565.947 229.039C565.71 231.711 567.345 233.258 569.472 234.373C570.746 235.056 572.153 235.48 573.515 235.99C575.449 236.716 577.418 237.356 579.325 238.151C588.001 241.756 591.35 247.756 589.855 256.92C588.625 264.406 582.059 270.147 573.849 270.907C565.323 271.703 558.353 268.919 552.93 262.323C551.919 261.095 552.024 260.369 553.184 259.384C555.083 257.758 556.859 255.977 558.889 254.075Z" fill="var(--fill-0, white)"/>
<path id="Vector_4" d="M528.497 255.605C528.497 259.47 528.444 263.023 528.514 266.567C528.541 267.674 528.083 268.175 527.125 268.573C510.073 275.558 490.692 267.855 486.323 249.355C482.895 234.874 490.534 220.264 503.877 215.898C511.401 213.426 518.96 213.495 526.396 216.512C527.916 217.126 528.637 217.913 528.549 219.668C528.382 222.961 528.505 226.29 528.505 230.068C523.68 225.183 518.177 223.1 511.655 224.25C507.234 225.028 503.674 227.275 500.923 230.751C495.034 238.177 495.632 249.83 502.206 256.124C509.537 263.161 519.083 263.049 528.497 255.605Z" fill="var(--fill-0, white)"/>
<path id="Vector_5" d="M411.875 247.284C411.875 254.157 411.831 261.038 411.91 267.92C411.927 269.45 411.558 270.081 409.888 269.977C407.664 269.839 405.423 269.813 403.208 269.986C401.362 270.124 401.081 269.381 401.09 267.781C401.151 254.33 401.063 240.878 401.186 227.426C401.204 225.161 400.703 224.374 398.312 224.582C395.728 224.815 393.091 224.573 390.489 224.66C389.127 224.711 388.547 224.4 388.635 222.931C388.766 220.899 388.705 218.85 388.652 216.819C388.635 215.859 388.951 215.479 389.962 215.487C400.949 215.513 411.936 215.513 422.923 215.479C424.066 215.479 424.356 215.919 424.33 216.948C424.277 219.066 424.268 221.176 424.339 223.294C424.382 224.444 423.855 224.668 422.835 224.651C419.838 224.608 416.832 224.737 413.844 224.599C412.165 224.521 411.813 225.109 411.831 226.648C411.919 233.521 411.875 240.402 411.875 247.284Z" fill="var(--fill-0, white)"/>
<path id="Vector_6" d="M458.838 242.629C458.838 250.946 458.75 259.253 458.899 267.553C458.934 269.662 458.266 270.129 456.315 269.982C454.329 269.818 452.316 269.835 450.329 269.973C448.527 270.103 447.982 269.533 447.991 267.726C448.079 256.617 448.035 245.508 448.035 234.407C448.035 228.736 448.079 223.074 448.009 217.403C447.982 215.959 448.369 215.397 449.925 215.466C452.219 215.587 454.54 215.596 456.834 215.466C458.46 215.362 458.89 215.872 458.882 217.463C458.794 225.857 458.838 234.243 458.838 242.629Z" fill="var(--fill-0, white)"/>
<path id="Vector_7" d="M284.078 242.557C284.078 251.012 284.043 259.467 284.113 267.913C284.122 269.469 283.735 270.065 282.083 269.962C279.868 269.823 277.618 269.797 275.411 269.97C273.566 270.109 273.293 269.357 273.302 267.766C273.363 255.006 273.337 242.246 273.337 229.485C273.337 225.405 273.39 221.333 273.311 217.253C273.284 215.878 273.662 215.385 275.113 215.454C277.486 215.575 279.877 215.584 282.25 215.454C283.85 215.359 284.131 215.999 284.122 217.4C284.052 225.794 284.078 234.171 284.078 242.557Z" fill="var(--fill-0, white)"/>
<path id="Vector_8" d="M262.596 301.807C263.677 301.314 264.407 300.908 265.18 300.64C269.839 299.092 274.049 301.859 274.216 306.717C274.339 310.417 274.154 314.126 274.277 317.826C274.339 319.737 273.117 319.382 272.01 319.391C270.902 319.391 269.672 319.737 269.742 317.826C269.865 314.575 269.812 311.325 269.759 308.074C269.716 305.576 268.722 304.426 266.709 304.322C264.547 304.219 262.912 305.515 262.763 307.867C262.561 311.031 262.517 314.212 262.64 317.385C262.71 319.244 261.893 319.434 260.319 319.451C258.711 319.469 258.034 319.201 258.06 317.376C258.157 307.997 258.148 298.625 258.069 289.245C258.052 287.551 258.684 287.214 260.205 287.292C261.576 287.369 262.719 287.179 262.649 289.219C262.482 293.283 262.596 297.363 262.596 301.807Z" fill="var(--fill-0, white)"/>
<path id="Vector_9" d="M170.989 301.835C172.105 301.334 172.896 300.876 173.749 300.616C178.425 299.173 182.468 301.896 182.574 306.642C182.662 310.342 182.495 314.059 182.635 317.759C182.706 319.61 181.616 319.393 180.438 319.402C179.243 319.411 178.17 319.566 178.258 317.742C178.408 314.794 178.328 311.846 178.284 308.898C178.241 305.725 177.256 304.377 175.05 304.308C172.545 304.239 171.059 305.916 170.998 309.045C170.936 311.915 170.857 314.803 171.024 317.656C171.138 319.644 169.943 319.376 168.704 319.393C167.42 319.411 166.374 319.558 166.392 317.621C166.489 308.094 166.489 298.567 166.392 289.04C166.374 287.061 167.491 287.32 168.73 287.294C170.022 287.268 171.086 287.121 171.015 289.066C170.884 293.233 170.989 297.392 170.989 301.835Z" fill="var(--fill-0, white)"/>
<path id="Vector_10" d="M568.658 301.004C568.983 300.901 569.063 300.857 569.133 300.849C573.783 300.555 573.783 300.555 575.822 304.575C576.877 306.658 577.905 308.759 579.188 311.335C580.516 308.75 581.667 306.52 582.81 304.281C584.761 300.443 584.761 300.443 589.499 300.979C587.899 304.056 586.334 307.047 584.77 310.039C581.676 315.935 578.591 321.848 575.488 327.744C574.767 329.11 571.655 330.052 570.372 329.291C569.528 328.798 570.232 328.237 570.469 327.796C572.033 324.77 573.545 321.709 575.294 318.787C576.34 317.041 576.367 315.667 575.33 313.851C572.974 309.727 570.926 305.431 568.658 301.004Z" fill="var(--fill-0, white)"/>
<path id="Vector_11" d="M277.878 329.266C279.97 325.359 281.877 321.676 283.89 318.062C284.549 316.886 284.593 315.91 283.952 314.699C281.57 310.247 279.293 305.734 276.955 301.213C281.148 300.089 281.965 300.452 283.653 303.884C284.848 306.322 286.096 308.725 287.45 311.397C288.733 308.821 289.885 306.53 291.01 304.221C292.908 300.366 292.9 300.357 297.672 301.023C295.528 305.155 293.427 309.236 291.3 313.316C289.129 317.474 286.923 321.615 284.743 325.765C282.765 329.543 282.774 329.543 277.878 329.266Z" fill="var(--fill-0, white)"/>
<path id="Vector_12" d="M107.991 309.913C107.991 307.648 107.947 305.383 108.017 303.118C108.035 302.366 107.507 301.191 108.553 300.931C109.757 300.629 111.48 300.231 112.227 301.156C112.904 301.986 113.036 301.744 113.669 301.407C119.074 298.562 123.856 301.035 124.243 307.026C124.48 310.717 124.322 314.426 124.331 318.135C124.331 320.167 122.74 319.25 121.79 319.354C120.894 319.466 119.734 319.769 119.769 318.083C119.839 314.763 119.857 311.435 119.751 308.115C119.655 305.124 118.486 304.121 115.866 304.311C113.994 304.441 113.185 305.539 112.851 307.182C112.157 310.631 112.491 314.115 112.544 317.582C112.57 319.432 111.647 319.44 110.285 319.414C108.984 319.389 107.859 319.535 107.964 317.625C108.096 315.066 107.991 312.481 107.991 309.913Z" fill="var(--fill-0, white)"/>
<path id="Vector_13" d="M457.648 309.928C457.648 307.663 457.604 305.389 457.674 303.133C457.692 302.38 457.165 301.205 458.202 300.945C459.406 300.634 461.129 300.245 461.885 301.17C462.561 302 462.693 301.758 463.326 301.421C468.749 298.568 473.549 301.058 473.918 307.032C474.137 310.723 473.988 314.432 473.997 318.141C473.997 320.172 472.397 319.256 471.457 319.368C470.56 319.472 469.4 319.792 469.435 318.106C469.514 314.786 469.523 311.458 469.426 308.138C469.338 305.164 468.161 304.144 465.541 304.326C463.678 304.455 462.851 305.553 462.517 307.187C461.823 310.559 462.157 313.974 462.201 317.362C462.227 319.152 461.595 319.489 459.951 319.455C458.43 319.42 457.49 319.308 457.613 317.414C457.762 314.916 457.648 312.426 457.648 309.928Z" fill="var(--fill-0, white)"/>
<path id="Vector_14" d="M344.364 291.412C340.18 290.841 339.635 291.317 339.635 295.302C339.635 295.829 339.635 296.365 339.635 296.884C339.635 300.333 339.627 300.42 343.195 300.766C344.725 300.913 344.391 301.89 344.338 302.694C344.276 303.524 344.962 304.794 343.23 304.881C342.105 304.941 340.646 304.345 339.934 305.218C339.134 306.186 339.679 307.673 339.653 308.944C339.609 311.581 339.574 314.226 339.662 316.863C339.715 318.48 339.653 319.5 337.429 319.474C335.399 319.448 335.038 318.765 335.109 316.984C335.241 313.526 335.153 310.051 335.144 306.567C335.144 305.763 335.302 305.028 334.019 304.777C332.973 304.561 332.92 301.077 333.949 300.895C335.381 300.627 335.118 299.763 335.144 298.907C335.188 296.798 335.074 294.671 335.267 292.579C335.583 289.043 338.062 286.804 341.455 286.813C343.327 286.813 344.857 287.193 344.391 289.622C344.268 290.193 344.364 290.798 344.364 291.412Z" fill="var(--fill-0, white)"/>
<path id="Vector_15" d="M50.1426 309.972C50.1426 307.707 50.0987 305.45 50.1602 303.185C50.1778 302.416 49.668 301.179 50.5821 300.955C51.8391 300.643 53.4476 300.246 54.4936 301.205C55.0649 301.741 55.0825 301.811 55.7593 301.447C61.2441 298.508 66.1048 301.162 66.2982 307.231C66.4124 310.698 66.2366 314.173 66.3949 317.64C66.4828 319.568 65.3752 319.369 64.1007 319.421C62.6416 319.481 61.8506 319.256 61.9033 317.51C62 314.268 61.8594 311.026 61.7802 307.784C61.7275 305.718 60.9628 304.257 58.5632 304.231C56.313 304.205 54.9858 305.329 54.8188 307.914C54.6166 311.069 54.5815 314.251 54.7309 317.415C54.8276 319.334 53.931 319.447 52.4104 319.429C50.9337 319.421 49.9405 319.403 50.0899 317.441C50.2921 314.968 50.1426 312.47 50.1426 309.972Z" fill="var(--fill-0, white)"/>
<path id="Vector_16" d="M426.938 303.347C426.938 308.015 426.842 312.692 426.982 317.369C427.035 319.202 426.323 319.513 424.715 319.427C423.343 319.358 422.315 319.513 422.341 317.499C422.464 308.076 422.464 298.653 422.341 289.229C422.315 287.241 423.273 287.328 424.688 287.276C426.253 287.215 427.035 287.449 426.982 289.316C426.833 293.993 426.938 298.67 426.938 303.347Z" fill="var(--fill-0, white)"/>
<path id="Vector_17" d="M240.003 303.354C240.003 308.109 239.923 312.863 240.038 317.61C240.082 319.486 239.071 319.434 237.744 319.434C236.434 319.425 235.449 319.529 235.467 317.635C235.564 308.134 235.564 298.625 235.467 289.124C235.449 287.257 236.39 287.3 237.726 287.308C239.036 287.317 240.09 287.205 240.046 289.098C239.923 293.853 240.003 298.599 240.003 303.354Z" fill="var(--fill-0, white)"/>
<path id="Vector_18" d="M313.002 303.208C313.002 298.531 313.081 293.845 312.958 289.177C312.914 287.405 313.705 287.258 315.147 287.284C316.589 287.31 317.564 287.284 317.538 289.246C317.441 298.678 317.441 308.11 317.547 317.533C317.564 319.599 316.413 319.331 315.077 319.426C313.538 319.521 312.914 319.132 312.958 317.464C313.073 312.718 313.002 307.954 313.002 303.208Z" fill="var(--fill-0, white)"/>
<path id="Vector_19" d="M534.095 310.81C535.115 308.623 536.1 306.531 537.066 304.439C538.842 300.592 538.833 300.592 543.694 300.938C540.486 307.482 537.33 313.905 533.981 320.709C530.632 313.862 527.486 307.465 524.33 301.041C524.708 300.912 524.849 300.825 524.989 300.808C529.164 300.566 529.156 300.575 530.852 304.318C531.757 306.306 532.672 308.295 533.594 310.283C533.656 310.404 533.788 310.499 534.095 310.81Z" fill="var(--fill-0, white)"/>
<path id="Vector_20" d="M563.11 311.975C563.11 313.937 563.004 315.917 563.136 317.871C563.268 319.842 561.914 319.375 560.86 319.375C559.805 319.366 558.486 319.842 558.539 317.879C558.645 314.17 558.583 310.462 558.557 306.762C558.548 305.94 558.935 304.989 557.423 304.765C556.491 304.626 556.333 301.082 557.221 300.952C558.926 300.684 558.522 299.603 558.557 298.627C558.583 298.021 558.566 297.416 558.566 296.811C558.566 294.105 559.576 293.396 562.328 294.036C563.083 294.218 563.101 294.624 563.101 295.169C563.101 296.232 563.189 297.295 563.083 298.341C562.916 300.027 563.18 301.056 565.334 300.848C567.109 300.675 566.265 302.214 566.362 303.01C566.468 303.822 566.714 305.076 565.184 304.842C563.083 304.531 562.996 305.681 563.083 307.211C563.18 308.793 563.11 310.384 563.11 311.975Z" fill="var(--fill-0, white)"/>
<path id="Vector_21" d="M246.377 312.043C246.377 310.53 246.421 309.018 246.36 307.505C246.316 306.433 246.755 305.352 245.12 304.574C244.171 304.124 244.276 301.488 245.015 301.151C247.467 300.027 246.166 298.151 246.307 296.681C246.544 294.295 248.012 293.214 250.271 294.096C250.851 294.321 250.842 294.719 250.851 295.159C250.86 296.214 250.939 297.277 250.842 298.332C250.684 300.009 250.93 301.099 253.092 300.839C254.815 300.632 254.2 302.084 254.261 302.923C254.332 303.865 254.516 305.101 252.89 304.859C250.983 304.583 250.79 305.551 250.833 307.081C250.93 310.634 250.763 314.187 250.904 317.74C250.974 319.547 249.955 319.444 248.742 319.409C247.546 319.374 246.201 319.72 246.342 317.715C246.483 315.821 246.377 313.928 246.377 312.043Z" fill="var(--fill-0, white)"/>
<path id="Vector_22" d="M23.5741 309.883C23.5741 307.696 23.5741 305.492 23.5741 303.304C23.5741 301.057 26.044 299.527 27.7053 301.013C28.6634 301.861 28.8655 301.567 29.516 301.091C30.4213 300.434 31.4849 300.322 32.5748 300.331C35.827 300.356 36.328 301.178 34.7635 304.005C34.4119 304.644 34.1833 305.016 33.2253 304.826C29.9291 304.152 28.2151 305.552 28.0833 309.002C27.9778 311.794 27.9338 314.604 28.1008 317.379C28.2151 319.246 27.3889 319.436 25.8155 319.436C24.2158 319.436 23.4071 319.194 23.5214 317.361C23.6884 314.88 23.5741 312.382 23.5741 309.883Z" fill="var(--fill-0, white)"/>
<path id="Vector_23" d="M101.729 310.08C101.729 312.57 101.614 315.068 101.764 317.549C101.878 319.347 100.964 319.494 99.5575 319.416C98.3357 319.347 97.1579 319.676 97.2106 317.679C97.3425 312.63 97.3513 307.573 97.2019 302.515C97.1491 300.51 98.3094 300.821 99.5311 300.778C100.902 300.708 101.887 300.752 101.764 302.619C101.606 305.083 101.729 307.581 101.729 310.08Z" fill="var(--fill-0, white)"/>
<path id="Vector_24" d="M328.294 310.382C328.294 312.872 328.197 315.37 328.329 317.851C328.426 319.554 327.397 319.502 326.308 319.373C325.27 319.252 323.706 320.108 323.732 317.92C323.794 312.725 323.82 307.52 323.715 302.307C323.679 300.379 324.936 300.777 326.009 300.812C327.011 300.838 328.408 300.241 328.32 302.247C328.206 304.953 328.294 307.667 328.294 310.382Z" fill="var(--fill-0, white)"/>
<path id="Vector_25" d="M552.026 310.095C552.026 312.732 551.947 315.369 552.053 318.005C552.123 319.596 551.121 319.501 550.137 319.389C549.17 319.268 547.614 320.098 547.614 318.109C547.605 312.758 547.605 307.415 547.614 302.064C547.614 300.032 549.205 300.975 550.145 300.828C551.121 300.689 552.132 300.594 552.062 302.193C551.947 304.813 552.026 307.458 552.026 310.095Z" fill="var(--fill-0, white)"/>
<path id="Vector_26" d="M43.7504 310.016C43.7504 312.662 43.6713 315.298 43.7768 317.944C43.8471 319.716 42.6693 319.431 41.6409 319.388C40.6125 319.336 39.2149 319.924 39.2325 317.961C39.2853 312.679 39.2589 307.397 39.2413 302.106C39.2325 300.074 40.7795 300.913 41.7376 300.826C42.6342 300.749 43.812 300.403 43.7592 302.089C43.6889 304.725 43.7504 307.379 43.7504 310.016Z" fill="var(--fill-0, white)"/>
<path id="Vector_27" d="M41.6564 290.429C43.2825 290.481 44.5746 291.812 44.5043 293.368C44.4252 294.95 43.0627 296.152 41.4191 296.022C39.6875 295.884 38.7909 294.872 38.7118 293.238C38.6239 291.665 40.0654 290.386 41.6564 290.429Z" fill="var(--fill-0, white)"/>
<path id="Vector_28" d="M549.877 296.051C548.242 296.06 546.898 294.798 546.986 293.216C547.1 291.452 548.119 290.432 549.93 290.449C551.653 290.475 552.567 291.556 552.699 293.164C552.831 294.763 551.512 296.043 549.877 296.051Z" fill="var(--fill-0, white)"/>
<path id="Vector_29" d="M326.125 290.395C327.839 290.628 328.868 291.467 328.815 293.325C328.771 295.21 327.681 296.04 325.888 295.971C324.174 295.901 323.233 294.899 323.233 293.23C323.233 291.423 324.306 290.541 326.125 290.395Z" fill="var(--fill-0, white)"/>
<path id="Vector_30" d="M99.2062 290.428C101.166 290.445 102.423 291.724 102.318 293.358C102.203 295.061 101.245 295.969 99.4875 295.978C97.7295 295.987 96.5693 294.819 96.6835 293.116C96.7978 291.405 97.8174 290.557 99.2062 290.428Z" fill="var(--fill-0, white)"/>
<g id="Group 1000002503">
<path id="Vector_31" d="M281.499 49.7335C281.631 40.3104 289.445 32.7027 298.885 32.7978C308.589 32.8929 316.368 40.7426 316.21 50.2868C316.06 59.5717 307.991 67.309 298.657 67.1102C288.979 66.9027 281.358 59.1999 281.499 49.7335Z" fill="var(--fill-0, #FBAA1A)"/>
<path id="Vector_32" d="M249.037 122.927C250.663 123.368 251.489 124.388 251.955 126.022C252.913 129.359 254.214 132.652 256.315 135.436C258.231 137.978 258.758 140.502 257.695 143.416C257.563 143.9 257.194 144.168 256.754 144.306C253.194 145.361 251.454 147.842 250.944 151.335C250.883 151.784 250.768 152.216 250.505 152.597C249.353 153.772 247.789 154.187 246.321 154.784C243.535 155.501 240.722 155.657 237.892 155.164C236.784 154.974 235.58 154.853 234.85 153.798C233.919 153.236 232.978 152.666 232.046 152.104C231.985 151.188 232.635 150.591 233.084 149.908C234.859 147.237 234.771 144.531 233.154 141.868C231.598 139.309 229.155 138.315 226.219 138.315C225.48 138.315 224.698 138.626 224.083 137.943C224.215 136.551 224.347 135.142 224.478 133.742C224.461 133.422 224.522 133.093 224.777 132.92C227.186 131.304 227.449 128.477 228.697 126.203C230.077 125.27 231.123 123.86 232.802 123.342C233.708 123.169 234.191 123.834 234.754 124.319C238.973 127.898 243.385 127.751 247.411 123.921C247.859 123.489 248.158 122.737 249.037 122.927Z" fill="var(--fill-0, #95C93E)"/>
<path id="Vector_33" d="M333.892 48.148C325.603 48.148 319.125 41.7765 319.143 33.6415C319.16 25.7312 325.761 19.2387 333.83 19.1955C341.926 19.1523 348.615 25.7744 348.588 33.8058C348.562 41.7679 342.022 48.148 333.892 48.148Z" fill="var(--fill-0, #FBD705)"/>
<path id="Vector_34" d="M275.271 171.113C275.025 179.896 270.463 185.438 262.42 186.752C254.343 188.057 246.098 181.478 245.729 173.412C245.685 172.505 245.693 171.606 245.676 170.698C245.131 168.052 246.528 165.986 247.777 163.885C248.357 162.917 249.148 162.105 249.965 161.318C251.407 160.142 252.883 159.027 254.729 158.508C257.762 159.546 260.715 158.759 263.677 158.119C264.881 158.534 266.094 158.958 267.299 159.373C270.981 160.056 272.678 162.917 274.199 165.779C275.034 167.369 276.167 169.098 275.271 171.113Z" fill="var(--fill-0, #FBD705)"/>
<path id="Vector_35" d="M231.4 117.927C221.125 119.691 215.016 114.184 212.74 108.876C210.322 103.256 210.815 97.7408 214.568 92.8217C218.066 88.2398 222.83 86.0266 228.763 86.5713C229.37 87.3321 228.983 88.162 228.904 88.9573C228.183 96.0031 233.87 100.749 240.858 98.9338C241.649 98.7263 242.414 98.2422 243.293 98.5621C244.189 102.167 243.679 105.634 242.343 109.049C241.79 109.541 241.078 109.481 240.401 109.567C236.278 110.069 233.624 112.308 232.288 116.146C232.077 116.786 232.007 117.495 231.4 117.927Z" fill="var(--fill-0, #623493)"/>
<path id="Vector_36" d="M355.077 128.434C352.721 125.175 351.57 121.578 351.956 117.558C351.64 113.348 355.903 107.573 359.709 107.055C361.511 106.484 363.295 105.827 365.22 105.723C365.528 105.49 365.862 105.317 366.248 105.256C371.856 104.409 379.046 110.08 379.398 115.622C381.191 123.567 377.991 129.523 370.221 132.722C370.01 132.938 369.826 133.189 369.545 133.327C365.229 135.367 357.265 132.679 355.077 128.434Z" fill="var(--fill-0, #0063A6)"/>
<path id="Vector_37" d="M329.682 155.345C332.899 158.483 334.56 162.252 334.455 166.748C335.061 169.817 334.015 172.281 331.642 174.26C328.284 178.056 324.135 180.035 318.941 179.56C316.945 180.156 315.187 179.422 313.517 178.505C310.133 176.655 307.646 174.036 306.556 170.292C306.336 169.514 305.958 168.728 306.538 167.932C305.897 160.35 308.956 155.665 316.638 152.475C317.323 152.189 318.088 152.146 318.73 151.757C322.641 150.875 327.915 152.604 329.682 155.345Z" fill="var(--fill-0, #0063A6)"/>
<path id="Vector_38" d="M306.558 167.931C307.929 174.657 312.104 178.504 318.969 179.559C318.108 180.717 318.697 182.049 318.486 183.294C317.431 189.596 313.071 193.996 306.769 195.042C301.02 195.993 295.184 192.95 292.319 187.495C292.143 187.158 291.967 186.829 291.791 186.484C289.154 182.879 290.253 175.66 293.822 173.084C297.206 169.323 301.504 167.741 306.558 167.931Z" fill="var(--fill-0, #00A0DD)"/>
<path id="Vector_39" d="M267.144 59.9321C260.35 59.9494 255.014 54.7105 255.032 48.0365C255.05 41.4835 260.332 36.2877 267.021 36.2618C273.833 36.2359 279.177 41.4835 279.142 48.1402C279.107 54.7191 273.816 59.9148 267.144 59.9321Z" fill="var(--fill-0, #C8235D)"/>
<path id="Vector_40" d="M263.647 73.8765C263.208 76.5565 262.61 79.1673 260.729 81.3113C256.747 85.8327 251.808 86.6885 246.2 85.0373C244.169 83.9307 242.587 82.1585 240.425 81.2507C239.889 80.1355 239.186 79.0808 239.062 77.81C241.277 74.4384 241.031 70.7642 240.416 67.0468C242.35 64.047 245.233 62.3698 248.591 61.3497C248.687 61.3411 248.793 61.3238 248.889 61.3065C253.574 60.9607 257.653 62.171 260.773 65.8192C261.494 66.4244 261.019 67.2024 261.072 67.9027C261.186 69.3551 261.643 70.6518 262.557 71.8016C263.058 72.4154 263.85 72.8996 263.647 73.8765Z" fill="var(--fill-0, #E04C9B)"/>
<path id="Vector_41" d="M359.689 107.05C355.478 109.393 352.912 112.911 351.936 117.554C348.948 118.703 345.924 119.248 342.707 118.557C341.459 118.28 340.94 117.934 341.063 116.49C341.687 109.237 340.703 102.174 337.802 95.4481C337.24 94.1341 337.618 93.5981 338.725 92.967C347.972 87.6935 359.662 94.2638 359.724 104.785C359.724 105.546 359.697 106.298 359.689 107.05Z" fill="var(--fill-0, #95C93E)"/>
<path id="Vector_42" d="M275.265 171.109C274.483 165.966 271.873 162.023 267.293 159.378C267.249 156.491 267.548 153.681 268.946 151.053C269.552 149.903 270.062 149.791 271.187 150.5C278.605 155.116 286.745 157.476 295.526 157.442C297.354 157.433 297.53 158.15 297.319 159.586C296.668 164.081 294.418 167.608 290.744 170.288C290.428 171.274 289.54 171.628 288.714 171.965C285.33 173.374 281.884 173.738 278.377 172.372C277.331 171.957 276.294 171.533 275.265 171.109Z" fill="var(--fill-0, #00A0DD)"/>
<path id="Vector_43" d="M346.216 73.6459C346.401 74.8649 346.585 76.0839 346.761 77.3028C346.735 77.9512 346.163 78.0982 345.733 78.3748C342.612 80.3459 341.962 82.3343 343.298 85.7923C343.474 86.2591 343.887 86.7 343.491 87.2447C342.858 87.8931 342.261 88.5933 341.575 89.1898C340.239 90.3396 338.762 91.6191 337.031 91.7056C334.983 91.8179 334.965 89.4924 334.112 88.2562C330.175 82.5417 325.411 77.6832 319.363 74.1819C317.632 73.1791 317.57 72.3319 318.511 70.819C319.355 69.4444 320.409 68.26 321.499 67.1016C322.343 66.9287 322.941 67.4647 323.618 67.7932C327.634 69.7989 331.871 68.8652 334.666 65.3639C335.123 64.7847 335.413 64.0239 336.284 63.877C337.11 64.1968 337.936 64.5081 338.771 64.8279C339.421 65.0873 339.527 65.7184 339.72 66.263C340.652 68.9084 342.331 70.9314 344.871 72.2368C345.469 72.5653 346.137 72.8419 346.216 73.6459Z" fill="var(--fill-0, #00A0DD)"/>
<path id="Vector_44" d="M340.363 164.869C340.53 163.901 340.644 162.933 340.864 161.973C341.954 157.175 346.2 153.432 351.148 152.87C356.571 152.256 361.432 154.798 363.761 159.362C364.394 160.59 364.342 161.506 363.445 162.639C359.947 167.065 356.114 171.154 351.93 174.967C350.55 176.22 349.32 176.575 347.703 175.771C345.69 175.84 344.406 174.543 343.317 173.212C341.33 170.826 339.598 168.25 340.363 164.869Z" fill="var(--fill-0, #FBAA1A)"/>
<path id="Vector_45" d="M346.211 73.6399C342.168 71.9887 339.61 69.1185 338.766 64.8478C338.925 63.2744 338.687 61.6924 339.188 60.1276C340.99 54.4824 346.853 51.2664 352.689 52.7793C358.262 54.2144 361.716 59.9201 360.512 65.6778C359.361 71.1934 353.7 74.8675 347.776 73.9511C347.257 73.8647 346.739 73.7437 346.211 73.6399Z" fill="var(--fill-0, #E04C9B)"/>
<path id="Vector_46" d="M355.074 128.428C359.302 132.647 364.277 134.306 370.21 132.716C370.764 133.719 371.45 134.661 371.608 135.837C370.325 136.286 369.041 135.741 367.74 135.854C364.831 136.105 362.792 137.963 362.607 140.678C362.37 143.998 363.952 146.202 366.985 146.868C367.661 147.015 368.584 146.729 368.874 147.741C363.759 153.135 355.057 152.781 350.451 146.98C349.888 146.271 349.379 145.536 348.842 144.819C347.779 144.335 347.84 143.297 347.629 142.398C347.462 141.663 348.139 140.989 347.779 140.246C347.761 134.842 350.196 130.909 355.074 128.428Z" fill="var(--fill-0, #95C93E)"/>
<path id="Vector_47" d="M240.726 81.1983C243.116 81.6997 244.742 83.2559 246.202 85.0454C248.891 90.5783 248.056 94.434 243.283 98.5664C239.266 100.563 235.311 100.693 231.698 97.8056C227.98 94.823 227.462 90.8981 228.754 86.5756C230.108 84.129 231.989 82.2444 234.643 81.181C236.788 79.7805 238.809 79.7805 240.726 81.1983Z" fill="var(--fill-0, #E45626)"/>
<path id="Vector_48" d="M379.378 115.621C377.26 108.696 371.054 105.472 365.2 105.722C363.75 101.287 363.741 96.9215 365.895 92.6681C366.747 88.9075 372.188 84.8702 375.739 85.3543C378.06 91.2244 379.246 97.3537 379.941 103.596C380.187 105.765 380.319 107.953 380.389 110.14C380.459 112.016 380.723 113.978 379.378 115.621Z" fill="var(--fill-0, #00A0DD)"/>
<path id="Vector_49" d="M250.381 161.57C247.859 164.138 246.303 167.189 245.67 170.708C241.723 172.67 237.812 172.809 234.199 170.077C230.938 167.613 229.725 164.233 230.464 160.23C230.974 157.472 232.679 155.484 234.832 153.807C238.647 155.017 242.514 155.095 246.417 154.282C249.151 155.432 250.961 158.743 250.381 161.57Z" fill="var(--fill-0, #E45626)"/>
<path id="Vector_50" d="M231.391 117.926C232.498 111.71 235.909 108.944 242.334 109.056C249.366 111.407 251.449 115.747 249.023 122.931C246.219 126.45 242.8 128.317 238.106 127.072C235.838 126.467 234.423 124.764 232.78 123.355C232.173 121.583 231.382 119.854 231.391 117.926Z" fill="var(--fill-0, #00A950)"/>
<path id="Vector_51" d="M273.331 9.09516C273.34 3.92538 277.427 -0.051369 282.692 0.000501656C287.922 0.0437272 291.886 4.07235 291.851 9.29399C291.816 14.3427 287.781 18.2503 282.604 18.2676C277.33 18.2676 273.322 14.3082 273.331 9.09516Z" fill="var(--fill-0, #E04C9B)"/>
<path id="Vector_52" d="M240.416 67.0496C242.349 70.9399 241.919 74.5795 239.256 77.9943C238.394 80.0173 236.583 80.4841 234.623 80.7175C230.22 81.2103 226.519 80.0951 224.234 76.0665C221.957 72.0465 223.144 67.041 226.932 64.3523C230.694 61.6724 235.942 62.1478 239.115 65.4762C239.59 65.9603 239.985 66.5223 240.416 67.0496Z" fill="var(--fill-0, #95C93E)"/>
<path id="Vector_53" d="M336.283 63.8979C332.82 69.9927 327.722 71.0992 321.499 67.1138C318.256 62.8086 317.948 58.512 320.646 55.1058C323.16 51.9244 327.643 50.7832 331.405 52.348C335.07 53.8782 337.294 57.7512 336.749 61.6934C336.661 62.4368 336.441 63.163 336.283 63.8979Z" fill="var(--fill-0, #E45626)"/>
<path id="Vector_54" d="M254.422 24.3086C254.51 19.5106 258.431 15.8364 263.362 15.9315C268.108 16.0266 271.861 19.8823 271.791 24.5939C271.721 29.3746 267.739 33.1007 262.843 32.9537C258.026 32.8154 254.334 29.0202 254.422 24.3086Z" fill="var(--fill-0, #E45626)"/>
<path id="Vector_55" d="M278.383 172.386C282.743 173.061 286.927 172.715 290.751 170.303C291.77 171.236 292.79 172.17 293.809 173.095C290.944 177.245 290.135 181.697 291.779 186.495C288.043 188.898 284.15 189.201 280.379 186.789C276.836 184.524 275.562 181.109 276.168 177.02C276.432 175.256 277.258 173.743 278.383 172.386Z" fill="var(--fill-0, #E45626)"/>
<path id="Vector_56" d="M375.747 85.351C371.404 86.4057 368.17 88.9128 365.902 92.6648C360.813 91.2643 357.93 87.8581 357.895 83.2243C357.868 78.7634 360.681 75.0979 365.085 73.8616C369.075 72.7464 370.798 73.4726 372.503 77.1727C373.725 79.8354 375.026 82.4808 375.747 85.351Z" fill="var(--fill-0, #E45626)"/>
<path id="Vector_57" d="M263.67 158.14C260.795 159.99 257.772 160.171 254.634 158.866C251.795 158.122 249.914 155.339 250.309 152.469C250.617 147.134 252.234 145.146 257.684 143.417C264.997 143.322 268.117 149.529 266.394 154.31C265.849 155.84 264.856 157.059 263.67 158.14Z" fill="var(--fill-0, #E04C9B)"/>
<path id="Vector_58" d="M228.677 126.208C228.527 129.398 227.138 131.914 224.457 133.746C218.48 135.683 213.901 133.807 212.398 128.81C211.115 124.531 213.576 120.139 217.979 118.842C222.322 117.563 226.892 119.983 228.176 124.228C228.378 124.885 228.51 125.551 228.677 126.208Z" fill="var(--fill-0, #E04C9B)"/>
<path id="Vector_59" d="M348.114 142.414C348.36 143.218 348.597 144.022 348.834 144.826C349.01 148.509 347.771 151.534 344.29 153.212C340.853 154.872 337.628 154.171 334.736 151.777C333.127 151.543 332.846 150.134 332.371 149.019C330.772 145.284 332.635 140.365 336.248 138.498C336.801 138.212 337.355 137.97 337.988 138.256C341.706 137.357 344.861 138.169 347.287 141.204C347.85 141.411 347.78 142.051 348.114 142.414Z" fill="var(--fill-0, #E45626)"/>
<path id="Vector_60" d="M224.066 137.953C230.193 137.175 233.964 139.474 234.887 144.609C235.432 147.635 234.14 150.039 232.03 152.122C225.939 156.203 219.865 152.451 218.722 147.583C217.817 143.736 219.593 140.442 224.066 137.953Z" fill="var(--fill-0, #00A0DD)"/>
<path id="Vector_61" d="M248.884 61.3108C248.778 61.3195 248.681 61.3281 248.585 61.3541C243.258 61.6307 240.199 59.8239 239.171 55.8126C238.204 52.0346 240.243 48.1789 243.882 46.8735C247.583 45.5508 251.696 47.1588 253.428 50.5996C255.159 54.049 253.973 58.2505 250.668 60.3167C250.097 60.6798 249.481 60.9823 248.884 61.3108Z" fill="var(--fill-0, #FBD705)"/>
<path id="Vector_62" d="M263.649 73.8828C261.17 71.7215 260.028 69.102 260.775 65.8256C262.647 61.624 265.864 59.8691 269.899 60.8633C273.142 61.6586 275.383 64.719 275.243 68.1684C275.049 72.9405 270.206 76.1997 265.556 74.6609C264.915 74.4447 264.291 74.1421 263.649 73.8828Z" fill="var(--fill-0, #FBD705)"/>
<path id="Vector_63" d="M340.367 164.873C340.929 169.732 343.109 173.535 347.689 175.783C346.045 179.38 343.285 181.368 339.215 181.039C335.005 180.702 332.729 178.083 331.647 174.253C333.194 171.971 334.161 169.472 334.469 166.74C336.262 165.591 338.196 164.882 340.367 164.873Z" fill="var(--fill-0, #E04C9B)"/>
<path id="Vector_64" d="M337.991 138.24C331.952 141.007 330.616 146.583 334.739 151.761C333.2 153.144 331.68 154.562 329.685 155.34C326.406 152.937 322.758 151.727 318.636 152.072C318.161 152.245 318.064 152.012 318.126 151.614C321.8 149.392 325.237 146.877 328.261 143.834C331.214 140.851 333.631 137.471 335.811 133.84C337.015 135.223 337.393 136.779 337.991 138.24Z" fill="var(--fill-0, #FBD706)"/>
<path id="Vector_65" d="M248.296 13.7412C244.674 13.7584 241.87 11.0698 241.8 7.50803C241.73 3.92031 244.683 0.998264 248.322 1.04149C251.891 1.08471 254.695 3.90302 254.686 7.42158C254.686 10.9834 251.917 13.7239 248.296 13.7412Z" fill="var(--fill-0, #00A950)"/>
<path id="Vector_66" d="M368.865 147.741C365.841 147.819 363.477 146.713 362.299 143.851C361.271 141.353 361.631 139.001 363.591 137.013C365.947 134.627 368.698 134.722 371.599 135.837C375.308 139.252 375.607 143.462 372.354 146.246C371.344 147.119 370.148 147.517 368.865 147.741Z" fill="var(--fill-0, #E04C9B)"/>
<path id="Vector_67" d="M343.503 87.2358C340.673 82.8009 341.816 79.3169 346.764 77.2853C350.737 77.268 353.374 79.1958 353.708 82.3686C353.972 84.8411 353.102 86.8381 350.913 88.1262C348.25 89.7083 345.797 88.9994 343.503 87.2358Z" fill="var(--fill-0, #FBD706)"/>
<path id="Vector_68" d="M348.117 142.414C347.845 142.008 347.563 141.601 347.282 141.195C347.449 140.875 347.616 140.564 347.774 140.244C348.319 140.91 348.1 141.679 348.117 142.414Z" fill="var(--fill-0, #DBCC94)"/>
<path id="Vector_69" d="M318.125 151.627C318.301 151.783 318.468 151.93 318.635 152.085C318.02 152.457 317.343 152.518 316.64 152.483C317.018 151.99 317.563 151.791 318.125 151.627Z" fill="var(--fill-0, #DFC75F)"/>
</g>
<path id="Vector_70" d="M118.275 128.979C115.137 119.98 108.905 113.755 99.8514 110.271C96.3531 108.923 92.7053 108.24 89.0136 107.514C89.2949 106.744 89.9805 106.658 90.4815 106.372C97.1705 102.586 101.68 97.0703 104.062 89.8776C106.716 81.8722 106.804 73.668 105.407 65.4638C103.191 52.4702 96.0718 43.2459 83.3267 38.4997C75.5917 35.6209 67.5228 34.7823 59.3747 34.7391C40.3976 34.644 21.4118 34.7304 2.42597 34.6699C0.518594 34.6699 0 35.1627 0 37.056C0.0527384 87.5434 0.0527384 138.039 0 188.536C0 190.403 0.474646 190.939 2.40839 190.93C23.3895 190.861 44.3706 190.965 65.3517 190.852C74.994 190.792 84.443 189.391 93.5492 186.046C106.532 181.274 116.077 173.165 119.628 159.566C122.309 149.304 121.764 138.999 118.275 128.979ZM43.6147 65.8961C48.8446 65.9566 54.0305 66.1641 59.0846 67.7115C64.7804 69.4578 67.7601 73.0456 68.1029 78.9156C68.2083 80.7138 68.2171 82.5552 67.9622 84.3361C67.1887 89.8689 63.6113 92.9034 58.3902 94.4163C54.6809 95.4796 50.8838 95.9119 47.0339 95.9637C41.47 96.0502 41.47 96.0502 41.47 90.6729C41.47 83.1171 41.5315 75.5613 41.426 68.0055C41.3909 66.2678 41.927 65.8701 43.6147 65.8961ZM72.2692 155.701C66.1164 159.237 59.4274 159.427 52.6945 159.73C49.5477 159.868 46.3922 159.687 43.2455 159.782C41.8391 159.825 41.4084 159.445 41.4348 158.027C41.5315 153.039 41.47 148.051 41.47 143.062C41.47 138.152 41.5227 133.233 41.4436 128.322C41.4172 126.844 41.6897 126.196 43.4213 126.222C49.4862 126.343 55.5863 125.902 61.5985 126.697C66.9514 127.406 72.1901 128.4 76.1191 132.948C81.8852 139.63 79.9514 151.292 72.2692 155.701Z" fill="var(--fill-0, white)"/>
<path id="Vector_71" d="M366.542 228.602C360.785 217.554 347.09 212.047 333.563 214.839C315.904 218.479 307.862 234.55 311.923 250.604C315.148 263.321 326.083 270.989 340.436 270.989C366.691 271.067 375.683 246.143 366.542 228.602ZM340.366 261.385C329.748 261.359 322.145 253.544 322.171 242.677C322.198 231.611 329.713 223.96 340.533 223.995C351.292 224.029 358.772 231.775 358.746 242.85C358.719 253.63 350.993 261.419 340.366 261.385Z" fill="var(--fill-0, white)"/>
<path id="Vector_72" d="M181.675 236.8C179.443 224.369 170.205 215.862 156.212 214.435C134.466 212.214 120.13 228.354 123.742 248.376C126.282 262.45 137.428 270.983 152.52 270.983C172.411 270.992 185.139 256.07 181.675 236.8ZM166.627 255.301C160.729 262.234 149.136 263.445 141.568 257.834C136.452 254.03 134.439 248.756 134.439 241.183C134.65 234.898 137.551 228.639 145.057 225.536C152.168 222.579 159.112 223.349 165.063 228.501C172.411 234.864 173.07 247.728 166.627 255.301Z" fill="var(--fill-0, white)"/>
<path id="Vector_73" d="M235.939 240.715C239.323 237.577 240.158 236.461 240.887 234.11C243.419 225.932 238.488 217.702 229.944 216.059C223.791 214.875 217.533 215.782 211.336 215.463C209.473 215.359 209.051 215.99 209.06 217.736C209.13 229.597 209.095 241.45 209.095 253.311C209.095 258.213 209.104 263.123 209.095 268.033C209.095 269.054 208.989 269.987 210.563 269.944C217.77 269.771 225.004 270.333 232.194 269.52C236.44 269.045 240.219 267.394 243.006 264.109C249.985 255.87 246.469 244.32 235.939 240.715ZM219.897 230.989C219.897 229.857 219.897 228.733 219.897 227.6C219.897 224.064 219.897 224.064 223.616 224.185C228.441 224.35 231.192 226.883 231.157 231.145C231.131 234.758 229.144 237.093 225.523 237.75C220.152 238.735 219.897 238.528 219.897 233.254C219.897 232.502 219.897 231.741 219.897 230.989ZM229.979 260.443C226.982 261.368 223.897 260.901 220.847 260.988C219.766 261.022 219.906 260.244 219.897 259.587C219.889 257.556 219.897 255.515 219.897 253.484C219.897 251.521 219.897 249.559 219.897 247.605C219.897 246.905 219.845 246.213 220.899 246.23C223.958 246.291 227.044 245.988 230.023 246.887C233.398 247.908 235.192 250.285 235.183 253.527C235.174 256.873 233.258 259.44 229.979 260.443Z" fill="var(--fill-0, white)"/>
<path id="Vector_74" d="M84.6794 247.148C86.2879 246.525 87.8261 246.076 89.2149 245.341C95.0161 242.324 97.7849 236.073 96.7038 228.682C95.7984 222.492 91.052 217.46 84.3893 216.155C77.0939 214.728 69.6753 215.749 62.3183 215.507C61.0878 215.463 61.2899 216.362 61.2899 217.089C61.2811 234.163 61.2899 251.254 61.2723 268.328C61.2723 269.443 61.5272 269.979 62.8018 269.953C65.4123 269.876 68.0229 269.884 70.6334 269.945C71.8288 269.979 72.2683 269.59 72.2331 268.397C72.1628 266.054 72.2156 263.712 72.2156 261.369C72.2156 257.513 72.198 253.657 72.2331 249.802C72.2419 249.197 71.8112 248.306 72.7693 248.064C73.4989 247.865 73.7977 248.583 74.1317 249.058C74.6503 249.81 75.1425 250.58 75.6523 251.332C79.511 257.064 83.3609 262.795 87.246 268.51C87.6503 269.098 87.8877 269.927 88.8721 269.927C92.9857 269.91 97.0993 269.919 101.784 269.919C95.8863 262.078 90.3136 254.643 84.6794 247.148ZM79.7308 239.808C77.3751 240.456 74.5976 241.295 72.6199 240.05C71.3366 239.229 72.3562 236.523 72.2244 234.664C72.1628 233.834 72.2156 233.004 72.2156 232.174C72.2156 229.987 72.2595 227.8 72.198 225.613C72.1716 224.558 72.488 224.126 73.6219 224.169C75.5293 224.247 77.4455 224.134 79.3352 224.601C83.4401 225.613 85.6463 228.137 85.7254 232.053C85.8045 236.021 83.8092 238.684 79.7308 239.808Z" fill="var(--fill-0, white)"/>
<path id="Vector_75" d="M22.2152 215.87C15.5965 214.893 8.87239 215.714 2.20099 215.463C0.372721 215.394 0.0650803 216.051 0.07387 217.659C0.144188 225.976 0.109029 234.284 0.109029 242.6C0.109029 250.986 0.144188 259.381 0.07387 267.766C0.0562905 269.383 0.39909 270.101 2.21857 269.98C4.43358 269.824 6.68375 269.815 8.89876 269.98C10.7446 270.118 11.0435 269.383 11.0171 267.775C10.9204 262.329 11.0171 256.891 10.9556 251.453C10.938 250.096 11.2984 249.551 12.7575 249.629C14.9022 249.741 17.0644 249.681 19.2091 249.655C29.6337 249.525 35.8217 243.707 36.4282 233.506C36.9644 224.394 31.3917 217.21 22.2152 215.87ZM19.2794 240.145C16.9238 240.733 14.5506 240.422 12.1773 240.526C11.061 240.578 10.9644 239.955 10.9731 239.099C10.9995 236.921 10.9819 234.725 10.9819 232.538C10.9819 230.35 11.0171 228.163 10.9644 225.976C10.9468 225.025 11.2368 224.61 12.2652 224.636C14.5594 224.696 16.8623 224.558 19.1388 225.085C22.892 225.95 25.2125 228.76 25.2125 232.546C25.2125 236.341 22.9184 239.229 19.2794 240.145Z" fill="var(--fill-0, white)"/>
<path id="Vector_76" d="M404.691 315.819C402.107 312.681 402.045 312.629 404.621 309.595C406.352 307.546 403.847 307.278 403.258 306.292C402.494 305.03 401.887 306.249 401.369 306.768C399.101 309.102 399.11 309.111 396.974 306.552C396.772 306.318 396.578 306.085 396.376 305.852C394.196 303.267 394.196 303.267 396.543 300.958C399.233 298.304 399.716 294.743 397.73 292.166C395.62 289.426 391.137 288.639 387.911 290.437C385.081 292.011 383.895 295.711 385.292 298.953C385.811 300.163 387.349 301.546 387.05 302.376C386.655 303.509 384.861 304.114 383.807 305.091C381.082 307.615 380.379 310.736 381.442 314.203C382.435 317.419 384.8 319.148 388.105 319.692C391.753 320.297 394.926 319.312 397.677 316.909C398.239 316.424 398.96 315.37 399.637 316.667C401.272 319.813 404.049 319.589 407.442 319.208C406.379 317.903 405.544 316.857 404.691 315.819ZM391.797 293.29C393.396 293.29 394.574 294.129 394.636 295.901C394.68 297.146 392.245 299.982 391.401 299.549C390.047 298.849 389.212 297.552 389.054 295.987C389.054 294.137 390.179 293.29 391.797 293.29ZM395.813 312.647C394.53 314.168 393.071 315.517 390.997 315.845C389.142 316.131 387.49 315.69 386.373 314.064C385.855 313.312 385.573 312.456 385.573 312.188C385.617 309.604 387.982 306.526 389.757 305.947C390.46 305.722 390.742 306.094 391.085 306.509C392.544 308.238 394.012 309.967 395.453 311.722C395.655 311.981 396.13 312.258 395.813 312.647Z" fill="var(--fill-0, white)"/>
<path id="Vector_77" d="M17.8189 309.954C17.5288 306.859 15.7357 304.862 12.545 303.583C15.428 301.197 15.6478 298.335 14.7512 295.361C13.8283 292.301 11.4639 290.745 8.30836 290.313C7.25359 290.166 6.17246 290.07 5.1089 290.062C0.0372187 290.027 0.0372188 290.036 0.0372188 294.972C0.0372188 302.45 0.0372188 309.928 0.0460085 317.415C0.0460085 318.349 -0.226473 319.455 1.41721 319.412C4.55514 319.317 7.71945 319.585 10.8398 319.006C15.7533 318.081 18.2759 314.83 17.8189 309.954ZM5.58354 294.497C7.35028 294.212 9.20491 294.315 10.2773 296.113C11.2705 297.773 11.0771 299.511 9.99599 301.032C8.96759 302.468 7.31512 302.64 5.64507 302.606C4.78368 302.589 4.6782 302.035 4.66941 301.378C4.66062 300.401 4.66941 299.416 4.66941 298.43H4.66062C4.66062 298.059 4.56393 297.644 4.6782 297.306C5.00342 296.355 3.79044 294.791 5.58354 294.497ZM13.1955 311.545C12.7735 313.732 11.1123 314.571 9.08186 314.873C8.32594 314.986 7.54365 314.899 6.79653 315.012C5.04737 315.28 4.41451 314.571 4.64304 312.894C4.74852 312.15 4.66062 311.389 4.66062 310.637C4.66062 310.404 4.62546 310.179 4.66941 309.954C4.9331 308.77 3.92228 306.851 5.24074 306.496C7.31512 305.943 9.68835 306.012 11.6485 307.335C13.1339 308.338 13.5119 309.885 13.1955 311.545Z" fill="var(--fill-0, white)"/>
<path id="Vector_78" d="M148.765 302.733C148.774 302.076 149.213 300.961 148.088 300.883C146.875 300.806 145.222 300.14 144.484 301.307C143.904 302.223 143.79 302.059 143.113 301.635C139.905 299.63 136.626 299.82 133.62 301.878C130.095 304.29 129.225 307.886 129.849 311.897C130.421 315.52 132.249 318.243 135.888 319.47C138.876 320.473 141.663 319.816 144.352 317.672C144.282 319.306 144.344 320.525 144.141 321.701C143.825 323.577 142.665 324.865 140.731 325.254C138.815 325.643 136.626 325.461 135.897 323.594C134.78 320.724 132.776 321.217 130.614 321.398C131.37 326.49 134.525 329.343 139.342 329.378C144.616 329.421 147.895 326.784 148.492 321.519C149.213 315.277 148.659 308.992 148.765 302.733ZM139.412 315.883C136.433 315.883 134.209 313.453 134.174 310.16C134.139 306.805 136.459 304.255 139.509 304.307C142.463 304.359 144.651 306.84 144.634 310.125C144.625 313.341 142.304 315.891 139.412 315.883Z" fill="var(--fill-0, white)"/>
<path id="Vector_79" d="M498.437 301.916C498.463 300.757 497.69 300.896 496.916 300.775C495.457 300.541 494.174 301.855 493.251 301.734C491.897 301.561 490.596 300.42 488.997 300.342C483.204 300.066 478.95 304.501 479.31 310.466C479.671 316.457 483.688 320.287 489.093 319.863C490.895 319.725 492.337 318.817 493.849 317.814C493.849 319.215 493.989 320.442 493.813 321.618C493.541 323.503 492.398 324.808 490.473 325.232C488.557 325.655 486.386 325.491 485.613 323.65C484.47 320.918 482.58 321.039 480.224 321.454C481.332 326.848 484.444 329.494 489.375 329.373C494.49 329.26 497.611 326.649 498.164 321.385C498.859 314.909 498.305 308.4 498.437 301.916ZM489.155 315.878C486.166 315.929 483.925 313.561 483.819 310.25C483.723 306.939 486.052 304.293 489.058 304.302C492.038 304.31 494.227 306.714 494.271 310.034C494.323 313.258 492.064 315.834 489.155 315.878Z" fill="var(--fill-0, white)"/>
<path id="Vector_80" d="M90.7827 302.383C90.7827 301.787 91.0815 300.749 90.018 300.862C88.8577 300.983 87.2228 299.919 86.5987 301.519C86.1856 302.582 86.0274 302.158 85.4561 301.813C79.9889 298.51 73.7833 301 72.1133 307.112C70.2586 313.942 74.8029 320.235 81.2985 319.89C83.2147 319.777 84.7617 318.895 86.379 317.668C86.6515 319.457 86.4845 320.936 86.0538 322.353C85.5264 324.1 84.2255 325.129 82.3797 325.327C80.4196 325.543 78.4067 325.154 77.7475 323.209C76.9916 320.962 75.4358 321.281 73.7833 321.264C72.8076 321.255 72.6494 321.653 72.7901 322.5C73.2735 325.388 75.9456 328.293 78.855 329.01C85.5352 330.67 90.5629 327.065 90.7475 320.279C90.8969 314.313 90.7915 308.348 90.7827 302.383ZM81.6238 315.87C78.5825 315.939 76.4202 313.631 76.3587 310.276C76.2884 306.792 78.4155 304.32 81.4831 304.311C84.4892 304.294 86.6163 306.645 86.6515 310.008C86.6691 313.345 84.5595 315.809 81.6238 315.87Z" fill="var(--fill-0, white)"/>
<path id="Vector_81" d="M229.088 317.089C229.158 314.746 229.114 312.412 229.114 310.069C229.114 307.493 229.07 304.925 229.132 302.357C229.158 301.242 228.921 300.698 227.629 300.758C226.24 300.819 224.842 300.646 223.919 301.977C222.619 300.983 221.177 300.369 219.489 300.317C212.466 300.11 208.089 306.896 210.691 313.994C212.598 319.215 218.32 321.333 223.26 318.645C223.805 318.351 224.051 317.78 224.737 318.844C225.546 320.088 227.303 319.44 228.56 319.241C229.606 319.086 229.061 317.841 229.088 317.089ZM219.744 315.87C216.773 315.896 214.629 313.501 214.62 310.129C214.611 306.663 216.598 304.346 219.621 304.303C222.715 304.251 224.939 306.697 224.939 310.138C224.939 313.423 222.742 315.852 219.744 315.87Z" fill="var(--fill-0, white)"/>
<path id="Vector_82" d="M193.811 311.088C195.498 311.184 197.186 311.114 198.874 311.114C200.64 311.114 202.407 311.114 204.174 311.106C204.877 311.106 205.58 311.166 205.58 310.129C205.571 305.582 203.295 300.662 197.502 300.36C191.051 300.023 186.375 305.763 187.737 312.411C188.493 316.094 190.462 318.834 194.417 319.621C198.373 320.408 201.897 319.604 204.543 316.362C204.859 315.973 205.589 315.601 205.062 314.849C204.139 313.544 201.704 313.293 200.561 314.417C197.951 316.984 194.004 316.258 192.607 312.982C192.079 311.702 192.106 310.993 193.811 311.088ZM193.74 305.357C195.639 303.429 198.874 303.706 200.315 305.91C200.596 306.342 201.027 306.818 200.746 307.354C200.5 307.829 199.928 307.587 199.507 307.596C198.584 307.63 197.669 307.604 196.747 307.604C196.061 307.604 195.367 307.656 194.681 307.596C194.039 307.535 193.134 307.968 192.809 307.25C192.448 306.472 193.231 305.875 193.74 305.357Z" fill="var(--fill-0, white)"/>
<path id="Vector_83" d="M514.294 300.382C508.493 299.837 504.292 303.641 503.817 309.874C503.509 313.911 505.856 317.931 509.311 319.263C513.275 320.801 518.338 319.548 520.781 316.392C521.106 315.969 521.959 315.45 521.3 314.906C520.447 314.188 519.401 313.609 518.329 313.228C517.52 312.943 517.318 313.98 516.852 314.413C514.154 316.98 509.864 316.116 508.783 312.779C508.441 311.707 508.511 311.024 509.935 311.084C511.614 311.145 513.31 311.102 515.006 311.102C516.764 311.102 518.54 311.102 520.307 311.093C520.983 311.084 521.643 311.162 521.845 310.185C522.733 305.984 518.777 300.805 514.294 300.382ZM515.683 307.618C513.486 307.574 511.28 307.6 508.854 307.6C509.381 305.318 510.717 304.35 512.589 304.116C514.198 303.909 515.595 304.462 516.527 305.854C517.204 306.857 517.432 307.652 515.683 307.618Z" fill="var(--fill-0, white)"/>
<path id="Vector_84" d="M357.3 300.397C350.364 299.619 345.222 305.74 346.928 312.846C347.763 316.321 349.758 318.906 353.52 319.615C357.37 320.341 360.859 319.676 363.487 316.511C363.848 316.079 364.665 315.5 364.155 315.025C363.356 314.264 362.301 313.71 361.264 313.252C360.376 312.863 360.191 313.901 359.752 314.324C356.983 316.987 353.019 316.269 351.665 312.881C351.182 311.67 351.261 311.03 352.817 311.082C354.504 311.151 356.192 311.1 357.88 311.1C359.646 311.091 361.413 311.108 363.18 311.091C363.865 311.082 364.49 311.143 364.683 310.14C365.483 305.956 361.694 300.89 357.3 300.397ZM359.813 307.227C359.664 307.892 358.926 307.555 358.442 307.59C357.607 307.65 356.763 307.607 355.928 307.607C355.164 307.607 354.399 307.668 353.643 307.59C353.028 307.529 352.122 308.013 351.859 307.14C351.656 306.457 352.289 305.904 352.755 305.411C354.601 303.466 357.853 303.665 359.312 305.826C359.594 306.224 359.91 306.812 359.813 307.227Z" fill="var(--fill-0, white)"/>
<path id="Vector_85" d="M442.176 300.338C436.454 300.382 432.235 304.471 432.182 310.038C432.129 315.528 436.656 319.928 442.317 319.902C448.065 319.885 452.407 315.606 452.39 310.012C452.355 304.367 448.065 300.295 442.176 300.338ZM442.29 315.882C439.047 315.874 436.823 313.591 436.779 310.202C436.726 306.701 438.968 304.324 442.308 304.315C445.569 304.298 447.731 306.563 447.766 310.004C447.81 313.574 445.648 315.891 442.29 315.882Z" fill="var(--fill-0, white)"/>
</g>
</svg>
