<svg preserveAspectRatio="none" width="100%" height="100%" overflow="visible" style="display: block;" viewBox="0 0 106 20" fill="none" xmlns="http://www.w3.org/2000/svg">
<g id="Frame 2085667406">
<path id="Star 1" d="M9.09303 1.95296C9.45143 1.18123 10.5486 1.18123 10.907 1.95296L12.5988 5.59594C12.7445 5.9097 13.042 6.12586 13.3854 6.16748L17.3729 6.65075C18.2176 6.75313 18.5567 7.79657 17.9335 8.37591L14.9916 11.1107C14.7382 11.3462 14.6246 11.696 14.6911 12.0354L15.4637 15.9771C15.6273 16.8121 14.7397 17.457 13.9962 17.0433L10.4862 15.0905C10.1839 14.9223 9.81612 14.9223 9.51382 15.0905L6.00382 17.0433C5.26026 17.457 4.37266 16.8121 4.53632 15.9771L5.3089 12.0354C5.37544 11.696 5.26179 11.3462 5.00842 11.1107L2.06655 8.37591C1.44334 7.79657 1.78237 6.75313 2.62708 6.65075L6.61456 6.16748C6.95798 6.12586 7.2555 5.9097 7.40121 5.59594L9.09303 1.95296Z" fill="var(--fill-0, #FFD101)"/>
<path id="Star 2" d="M30.593 1.95296C30.9514 1.18123 32.0486 1.18123 32.407 1.95296L34.0988 5.59594C34.2445 5.9097 34.542 6.12586 34.8854 6.16748L38.8729 6.65075C39.7176 6.75313 40.0567 7.79657 39.4335 8.37591L36.4916 11.1107C36.2382 11.3462 36.1246 11.696 36.1911 12.0354L36.9637 15.9771C37.1273 16.8121 36.2397 17.457 35.4962 17.0433L31.9862 15.0905C31.6839 14.9223 31.3161 14.9223 31.0138 15.0905L27.5038 17.0433C26.7603 17.457 25.8727 16.8121 26.0363 15.9771L26.8089 12.0354C26.8754 11.696 26.7618 11.3462 26.5084 11.1107L23.5665 8.37591C22.9433 7.79657 23.2824 6.75313 24.1271 6.65075L28.1146 6.16748C28.458 6.12586 28.7555 5.9097 28.9012 5.59594L30.593 1.95296Z" fill="var(--fill-0, #FFD101)"/>
<path id="Star 3" d="M52.093 1.95296C52.4514 1.18123 53.5486 1.18123 53.907 1.95296L55.5988 5.59594C55.7445 5.9097 56.042 6.12586 56.3854 6.16748L60.3729 6.65075C61.2176 6.75313 61.5567 7.79657 60.9335 8.37591L57.9916 11.1107C57.7382 11.3462 57.6246 11.696 57.6911 12.0354L58.4637 15.9771C58.6273 16.8121 57.7397 17.457 56.9962 17.0433L53.4862 15.0905C53.1839 14.9223 52.8161 14.9223 52.5138 15.0905L49.0038 17.0433C48.2603 17.457 47.3727 16.8121 47.5363 15.9771L48.3089 12.0354C48.3754 11.696 48.2618 11.3462 48.0084 11.1107L45.0665 8.37591C44.4433 7.79657 44.7824 6.75313 45.6271 6.65075L49.6146 6.16748C49.958 6.12586 50.2555 5.9097 50.4012 5.59594L52.093 1.95296Z" fill="var(--fill-0, #FFD101)"/>
<path id="Star 4" d="M73.593 1.95296C73.9514 1.18123 75.0486 1.18123 75.407 1.95296L77.0988 5.59594C77.2445 5.9097 77.542 6.12586 77.8854 6.16748L81.8729 6.65075C82.7176 6.75313 83.0567 7.79657 82.4335 8.37591L79.4916 11.1107C79.2382 11.3462 79.1246 11.696 79.1911 12.0354L79.9637 15.9771C80.1273 16.8121 79.2397 17.457 78.4962 17.0433L74.9862 15.0905C74.6839 14.9223 74.3161 14.9223 74.0138 15.0905L70.5038 17.0433C69.7603 17.457 68.8727 16.8121 69.0363 15.9771L69.8089 12.0354C69.8754 11.696 69.7618 11.3462 69.5084 11.1107L66.5665 8.37591C65.9433 7.79657 66.2824 6.75313 67.1271 6.65075L71.1146 6.16748C71.458 6.12586 71.7555 5.9097 71.9012 5.59594L73.593 1.95296Z" fill="var(--fill-0, #FFD101)"/>
<path id="Star 5" d="M95.093 1.95296C95.4514 1.18123 96.5486 1.18123 96.907 1.95296L98.5988 5.59594C98.7445 5.9097 99.042 6.12586 99.3854 6.16748L103.373 6.65075C104.218 6.75313 104.557 7.79657 103.933 8.37591L100.992 11.1107C100.738 11.3462 100.625 11.696 100.691 12.0354L101.464 15.9771C101.627 16.8121 100.74 17.457 99.9962 17.0433L96.4862 15.0905C96.1839 14.9223 95.8161 14.9223 95.5138 15.0905L92.0038 17.0433C91.2603 17.457 90.3727 16.8121 90.5363 15.9771L91.3089 12.0354C91.3754 11.696 91.2618 11.3462 91.0084 11.1107L88.0665 8.37591C87.4433 7.79657 87.7824 6.75313 88.6271 6.65075L92.6146 6.16748C92.958 6.12586 93.2555 5.9097 93.4012 5.59594L95.093 1.95296Z" fill="var(--fill-0, #FFD101)"/>
</g>
</svg>
